<svg width="55" height="55" viewBox="0 0 55 55" fill="none" xmlns="http://www.w3.org/2000/svg">
<path d="M16.7813 27.9412L17.8026 30.2941L14.4921 35.3161L14.8443 36.9666V40.6541L18.683 42.7612H23.1557V46.4135L23.684 50.7331L26.7127 52.9456L35.8693 43.3231L38.5458 39.3547L40.0249 35.3161L40.4476 30.8911V25.1317L40.0249 21.3038L37.9119 18.0378L36.644 17.4759L35.8693 16.7384L37.2075 11.7164L35.4819 8.55578L31.784 11.7164L25.797 11.1897V13.7884L24.0361 9.50398L19.9157 3.21777L20.9018 11.1897L17.8026 9.50398L16.7813 12.4188L17.8026 16.7384L14.8443 18.4592L15.6191 20.2502L15.1965 21.3038L12.4495 22.6734V25.1317L16.7813 27.9412Z" fill="#DCD9FF"/>
<path fill-rule="evenodd" clip-rule="evenodd" d="M19.5341 5.25668C19.2712 3.47004 19.0816 1.48219 19.1611 1.35414C19.2284 1.24438 19.3384 1.37243 20.0416 2.36026C21.0323 3.74444 22.0657 5.39083 23.7167 8.22018C24.0022 8.70731 24.2844 9.18789 24.5053 9.564C24.7102 9.91292 24.8623 10.1719 24.9152 10.2629L25.1232 10.6105L25.5695 10.4702C27.3979 9.89095 29.2997 10.0495 31.0546 10.9276C31.3237 11.0617 31.5805 11.1532 31.6233 11.1288C31.8374 11.0068 33.2316 9.93363 33.6841 9.54948C34.2283 9.09215 35.2984 8.01895 35.4757 7.76284C35.5308 7.67747 35.5858 7.62259 35.598 7.64089C35.6103 7.65308 35.8182 7.92748 36.0506 8.24457C36.7599 9.20801 37.0901 9.84826 37.3897 10.8361C37.5426 11.3422 37.5609 11.4703 37.5609 12.4825C37.5671 13.4459 37.5487 13.6471 37.4203 14.1472C37.3408 14.4581 37.2858 14.7203 37.298 14.7264C37.7322 14.9764 38.7656 15.7326 39.4933 16.3301C40.013 16.757 40.6306 17.2265 40.8569 17.379C41.0831 17.5314 41.2605 17.6838 41.2483 17.7204C41.2177 17.818 40.7163 18.0497 40.3127 18.1534C40.1109 18.2022 39.6951 18.2448 39.3587 18.2448C38.7595 18.2448 38.6372 18.2875 38.9001 18.4095C39.1325 18.5192 40.1537 19.5193 40.5573 20.0376C41.4562 21.1839 42.1655 22.4218 42.8259 24.0072C43.6147 25.8792 44 26.5621 44.6726 27.2756C44.8851 27.4994 44.9582 27.5765 44.9421 27.622C44.9337 27.6459 44.9005 27.661 44.85 27.6841C44.2996 27.9341 43.2723 27.928 42.5568 27.678C42.3061 27.5865 42.0921 27.5256 42.0799 27.5378C42.0677 27.5439 42.141 27.9524 42.2389 28.4341C42.3367 28.9159 42.5568 30.0927 42.7342 31.0501C42.9054 32.0074 43.1316 33.2147 43.2295 33.7331C43.9082 37.2027 44.8133 39.5442 45.9262 40.721L46.238 41.0503H45.7794C44.8438 41.0503 43.6331 40.5686 42.7097 39.8247L42.1961 39.4161L42.1594 39.5991C42.141 39.7027 42.1227 39.8979 42.1227 40.0381C42.1227 40.5076 41.9331 41.9345 41.7497 42.837C41.3033 45.0687 40.4044 46.9468 39.1814 48.2091C38.9185 48.4774 38.6922 48.6847 38.6739 48.6664C38.6555 48.6481 38.68 48.4713 38.7289 48.2761C38.8757 47.6359 38.998 46.581 39.0408 45.5992C39.0652 45.0748 39.0652 44.648 39.0469 44.648C39.0224 44.648 38.949 44.7638 38.8757 44.9102C38.3559 45.9285 37.0289 47.4468 36.1606 48.0139C35.2128 48.6359 34.2772 49.0079 33.4762 49.081L33.042 49.1176L33.5923 48.6603C34.3078 48.0627 35.0783 47.2395 35.5247 46.5993L35.6714 46.3858L35.5124 46.5078C35.4268 46.5749 35.1272 46.8127 34.852 47.0322C34.265 47.5078 33.5679 47.9225 31.7701 48.8798C31.0302 49.2701 30.1924 49.7457 29.905 49.9347C29.1835 50.4042 28.3885 51.2091 28.1378 51.7274C27.8076 52.3982 27.7404 53.1604 27.9605 53.6848C28.0033 53.7702 27.9788 53.7763 27.7465 53.7275C27.3245 53.6299 26.7925 53.3129 26.4684 52.9592C26.3412 52.821 26.2279 52.6719 26.1288 52.5136L26.133 52.5501L23.7314 50.7883L23.72 50.7696C23.5245 50.5938 23.195 50.2183 23.0135 49.9469C22.3347 48.9347 22.0473 47.9956 22.0473 46.7517C22.0412 45.7151 22.243 44.7882 22.6772 43.8248C22.7964 43.5592 22.8382 43.4662 22.8141 43.4438C22.8012 43.4317 22.7692 43.44 22.72 43.4528C21.5826 43.7333 19.4668 43.7943 18.4823 43.5687C16.495 43.1053 14.9724 41.8613 14.3486 40.1844C14.1713 39.6966 14.1591 39.6296 14.1101 38.3124C14.0857 37.5563 14.0796 36.9161 14.0979 36.8856C14.1163 36.8551 14.0307 36.7331 13.9145 36.6112C13.2969 35.9648 13.1746 35.0502 13.6026 34.2392C13.8289 33.8123 14.0123 33.6416 14.7706 33.1477C15.7734 32.4952 15.8101 32.4281 16.4216 30.1964C16.6112 29.5073 16.7763 28.9158 16.7885 28.8732C16.8068 28.8183 16.4827 28.8 15.5105 28.7817L14.208 28.7634L13.7249 28.5317C13.1073 28.239 12.6364 27.7695 12.3246 27.1353C12.0861 26.6536 11.921 26.0194 11.762 24.9218C11.6642 24.2511 11.5052 23.8243 11.2912 23.6291C11.1933 23.5438 11.1811 23.4157 11.1811 22.4828V21.4339L11.9027 21.3974C12.8994 21.3486 13.8105 21.0864 14.9357 20.5193L15.3576 20.3059L14.9724 20.0985C13.6638 19.4034 12.4469 17.9826 11.9699 16.6045C11.9027 16.4216 11.8537 16.2509 11.8537 16.2204C11.8537 16.1899 11.9944 16.2814 12.1717 16.4216C13.0706 17.1289 14.2508 17.3607 15.6633 17.1168C16.1036 17.0375 17.1065 16.7631 17.2471 16.6838C17.2716 16.6655 17.1676 16.4826 17.027 16.2753C16.2504 15.1655 15.8774 13.9398 15.8774 12.513C15.8774 11.4032 16.0425 10.6227 16.5133 9.59217C16.6845 9.20801 17.3205 8.21408 17.6262 7.84821L17.7791 7.66528L17.9503 7.8787C18.3967 8.44578 20.0844 10.0129 20.2495 10.0129C20.2801 10.0129 20.2862 9.94583 20.2679 9.86656C20.219 9.66534 19.7237 6.57378 19.5341 5.25668ZM33.9889 41.0651C33.7072 41.5806 33.3835 42.2009 33.2029 42.6414C33.1608 42.7443 33.1219 42.8445 33.0832 42.9443C32.9436 43.304 32.8067 43.657 32.529 44.0989C32.9302 43.8912 33.2545 43.7179 33.415 43.6236C36.3991 41.843 38.417 39.1905 39.2181 35.9892C39.5055 34.8306 39.585 34.1599 39.585 32.6964V31.3184L39.1203 30.8671C38.8634 30.6171 38.6005 30.3244 38.5271 30.2269L38.3987 30.0439L38.3926 30.2574C38.3803 31.2696 38.1174 33.0074 37.7811 34.3428C37.1199 36.9664 35.8162 39.2644 33.9889 41.0651ZM20.9895 6.51281C21.2096 6.04938 21.1974 5.75059 20.9405 5.29326C20.6103 4.68959 20.2312 4.1225 20.2312 4.22006C20.2312 4.26884 20.2618 4.4091 20.2924 4.52495C20.4085 4.9213 20.7204 6.48232 20.7204 6.65915C20.7204 6.93355 20.8182 6.87867 20.9895 6.51281ZM21.5398 9.47021C22.347 8.91532 22.6466 8.10432 22.2797 7.47016C22.1024 7.17747 22.0657 7.15307 22.0657 7.336C22.0657 7.57381 21.6743 8.20188 21.3074 8.55555L20.9467 8.90312L21.0689 9.11044C21.1362 9.2202 21.2096 9.39094 21.2341 9.4824L21.2769 9.65314L21.5398 9.47021ZM23.1603 11.3483C23.7106 10.6593 23.8084 10.2873 23.57 9.7507C23.4844 9.56167 23.4049 9.40313 23.3926 9.40313C23.3865 9.40313 23.3315 9.53728 23.2703 9.70802C23.1175 10.1349 22.5855 10.6897 21.9923 11.0312C21.7294 11.1776 21.5153 11.3056 21.5153 11.3117C21.5153 11.3178 21.5826 11.4581 21.6682 11.6227C21.7538 11.7873 21.8211 12.0008 21.8211 12.0983C21.8211 12.202 21.8517 12.2691 21.9067 12.2691C22.084 12.2691 22.9034 11.6654 23.1603 11.3483ZM20.6409 12.1959C20.5981 12.141 20.1701 11.763 19.6809 11.3483C19.1917 10.9398 18.6107 10.4275 18.3845 10.208L17.9809 9.81168L17.7608 10.2446C17.4306 10.9032 17.2899 11.4642 17.2532 12.2995C17.2288 12.8483 17.2471 13.1532 17.3205 13.513C17.4795 14.2874 18.1154 15.7631 18.3967 16.0192C18.5068 16.1228 18.5374 16.1106 18.9593 15.8423C19.4446 15.5362 19.5923 15.449 19.5874 15.3713C19.5851 15.3344 19.5486 15.2997 19.4974 15.2448C19.1061 14.8301 18.7942 14.0008 18.5129 12.6776C18.4151 12.202 18.3356 11.8056 18.3356 11.7934C18.3356 11.7812 18.4395 11.8666 18.5679 11.9947C18.6902 12.1166 19.0021 12.3666 19.2589 12.5496C20.0355 13.0984 20.2557 13.391 20.5981 14.3301L20.7387 14.7081L20.9283 14.5984C21.0323 14.5313 21.1118 14.4581 21.1056 14.4277C21.0995 14.3972 21.0506 14.2569 21.0017 14.1228C20.9528 13.9825 20.8672 13.513 20.8121 13.0862C20.7571 12.6532 20.6837 12.2569 20.6409 12.1959ZM36.1973 12.0373C36.1239 11.3727 35.861 10.519 35.598 10.0983C35.5063 9.95193 35.4146 9.82997 35.3963 9.82997C35.3779 9.83607 35.2006 9.98851 34.9988 10.1775C34.797 10.3605 34.3017 10.7873 33.8981 11.1227C32.5528 12.2447 32.082 12.6593 32.0025 12.8179C31.8557 13.1044 31.5377 14.4642 31.446 15.1838C31.4032 15.574 31.3604 16.1472 31.3604 16.4582C31.3604 16.7936 31.3359 17.0253 31.2992 17.0253C31.2687 17.0253 31.2381 16.9582 31.2381 16.885C31.2381 16.6167 31.1647 16.6655 30.9507 17.0741C30.6449 17.6595 30.1129 18.4522 29.7094 18.9461C29.0734 19.7144 28.0155 20.6656 27.0799 21.3059C26.9332 21.4035 27.1961 21.4096 31.8374 21.4096L36.7415 21.4156L36.7049 21.2449C36.552 20.6229 36.0383 19.44 35.6653 18.8424L35.5186 18.6168L35.6775 18.6778C36.0567 18.818 36.6682 19.2083 36.9372 19.4705C37.4753 20.001 37.9034 21.1047 38.0196 22.251C38.0501 22.5803 38.0991 23.5316 38.1174 24.373C38.1419 25.2084 38.1969 26.2024 38.2458 26.5743C38.417 27.9097 38.79 29.0561 39.322 29.861C39.6461 30.3549 40.5145 31.3001 40.4411 31.0805C40.1476 30.2208 40.0253 28.7939 40.1109 27.239C40.2393 24.7999 40.1598 23.3425 39.8296 22.1962C39.3343 20.4827 38.1602 18.9827 36.7538 18.2753C36.0811 17.9399 35.6714 17.8546 34.7114 17.8485C34.2466 17.8485 33.8675 17.8424 33.8675 17.8302C33.8675 17.8261 33.9484 17.7246 34.0649 17.5785C34.1209 17.5082 34.1852 17.4275 34.2528 17.3424C34.8153 16.6655 35.1333 16.1716 35.4574 15.4765C36.075 14.1655 36.3074 13.0984 36.1973 12.0373ZM30.6449 12.2447C30.2964 12.013 29.4403 11.6837 28.9022 11.5739C28.3335 11.4581 27.3184 11.452 26.7803 11.5678C26.34 11.6654 25.8569 11.8361 25.8569 11.9032C25.8569 11.952 26.8048 13.574 26.9699 13.8057L27.0799 13.9703L27.5263 13.7691C28.4436 13.3484 29.5687 13.0618 30.2719 13.0618C30.5371 13.0618 30.6589 13.0666 30.7256 13.0084C30.788 12.9539 30.8022 12.844 30.8406 12.6227C30.8834 12.4154 30.8651 12.391 30.6449 12.2447ZM23.6678 14.3972C24.7563 13.6593 25.2638 12.6288 24.848 12.0069C24.7624 11.8849 24.6829 11.7812 24.6706 11.7812C24.6584 11.7812 24.6278 11.8544 24.6034 11.9459C24.4444 12.58 23.5577 13.4032 22.5549 13.8362C22.3042 13.9459 22.0963 14.0557 22.0963 14.0801C22.0963 14.1106 22.1574 14.2386 22.2247 14.3728C22.2981 14.5069 22.3775 14.7081 22.402 14.8118C22.4204 14.9216 22.4693 15.013 22.4998 15.013C22.6038 15.013 23.307 14.6411 23.6678 14.3972ZM29.1712 17.2997C29.6849 16.5131 30.1986 15.3972 30.3514 14.7508L30.4309 14.4033L30.1802 14.4094C29.8255 14.4094 29.0856 14.6106 28.6087 14.8362C27.7281 15.2448 26.872 15.8667 25.7041 16.9338C22.9218 19.4888 21.2646 20.3303 17.2349 21.2571L15.5533 21.6474L15.8957 21.7449C17.8097 22.3059 20.2373 22.2632 22.7383 21.6291C25.4778 20.94 27.8626 19.3363 29.1712 17.2997ZM21.7339 16.7887C21.6442 16.3561 21.5765 16.0293 21.5765 16.0192C21.5765 15.9277 21.3441 16.0497 20.5981 16.5131C18.5679 17.7875 17.027 18.4095 15.3698 18.6168L14.7583 18.69L15.0335 18.8058C15.8101 19.1412 16.9414 19.3119 18.091 19.2632C18.9899 19.2327 19.583 19.1229 20.4147 18.8546C20.9895 18.6656 22.0045 18.2022 22.0045 18.1229C22.0045 18.0924 21.9067 17.6168 21.7905 17.0619C21.771 16.9677 21.752 16.876 21.7339 16.7887ZM16.1892 23.6596C16.4094 23.4218 16.6295 23.1779 16.6723 23.1108C16.7518 23.0072 16.6907 23.0011 14.8623 23.0011C13.8227 23.0011 12.9605 23.0133 12.9422 23.0315C12.9116 23.062 13.1746 24.9584 13.2296 25.117C13.2479 25.1718 13.413 25.1962 13.7799 25.1962H14.2997V24.6474V24.0986H15.0396H15.7795L16.1892 23.6596ZM27.7893 23.6535C28.0278 23.4157 28.254 23.1657 28.2968 23.1047C28.3763 23.0072 28.2723 23.0011 26.3828 23.0011C25.0865 23.0011 24.3894 23.0255 24.3894 23.062C24.3894 23.1596 24.634 24.9035 24.6645 25.0621C24.6951 25.1962 24.7196 25.2023 25.2332 25.184L25.7652 25.1658L25.7836 24.6292L25.8019 24.0986H26.5785H27.3612L27.7893 23.6535ZM37.1757 31.7513C37.2674 30.8183 37.2124 23.8608 37.1084 23.6718C37.0473 23.556 36.9861 23.5499 35.5186 23.5499H33.9959L33.7758 23.7389C33.519 23.9645 33.4089 24.2023 33.3478 24.6535C33.2621 25.306 33.0175 26.3426 32.8524 26.7573C32.5161 27.6048 31.9902 28.1963 31.2381 28.5683L30.8406 28.7634H28.3641H25.8875L25.4167 28.5378C25.0681 28.3732 24.8296 28.2024 24.53 27.8975C23.9552 27.3243 23.7167 26.8304 23.3192 25.428C23.1297 24.7328 22.5977 24.3974 22.029 24.617C21.6682 24.7511 21.5153 25.0011 21.3013 25.7755C20.8182 27.5134 19.9988 28.4585 18.6902 28.7878L18.2438 28.9037L17.9687 29.9586C17.2471 32.6903 16.868 33.4099 15.7673 34.105C14.6116 34.8367 14.477 35.166 15.113 35.7514L15.431 36.0441L15.4738 37.3734C15.5349 39.3552 15.5349 39.3552 15.8407 39.9527C16.3482 40.9589 17.2471 41.6479 18.4884 41.9711C19.1672 42.154 20.6531 42.1967 21.4297 42.0625C23.0257 41.7882 24.4077 40.8857 24.9642 39.7576C25.166 39.3552 25.2026 39.2088 25.276 38.4954C25.3372 37.9039 25.3983 37.6173 25.5023 37.41C25.6429 37.1234 26.0587 36.7148 26.4073 36.5136L26.6091 36.3978L26.5663 36.6234C26.5503 36.7089 26.5344 36.7652 26.5551 36.7991C26.5979 36.8692 26.7974 36.8436 27.4774 36.7819C29.6421 36.5807 31.2075 35.9038 32.4917 34.6111C33.4456 33.6477 34.21 32.1172 34.5402 30.5074C34.6625 29.8854 34.8398 28.3732 34.8643 27.6658L34.8765 27.239L35.0171 27.6658C35.6714 29.6659 35.2617 32.8062 34.051 35.0502C33.0603 36.8917 31.5744 38.3246 29.9112 39.0381C29.2813 39.3064 28.4558 39.5259 28.0644 39.5259C27.9177 39.5259 27.8076 39.5381 27.826 39.5564C27.936 39.6722 29.2018 39.8369 29.9234 39.8308C30.9323 39.8308 31.6539 39.6844 32.4489 39.3308C34.0204 38.6234 35.1639 37.5136 35.9955 35.8856C36.6865 34.5258 37.0167 33.3733 37.1757 31.7513Z" fill="url(#paint0_linear_5_49)"/>
<path d="M34.2772 12.4275C33.5312 13.0494 33.415 13.1714 33.2315 13.5372C32.7362 14.5251 31.9657 17.1837 32.1492 17.2934C32.2165 17.3361 32.9197 16.7507 33.3049 16.3239C34.216 15.33 34.6808 14.2873 34.9682 12.6043C35.0354 12.2018 35.1027 11.836 35.121 11.7933C35.1333 11.7567 35.1394 11.7201 35.1333 11.7201C35.1272 11.7201 34.7419 12.0372 34.2772 12.4275Z" fill="url(#paint1_linear_5_49)"/>
<path d="M21.7912 35.4704C21.4793 35.5802 21.1797 35.9156 21.0941 36.2631C21.0574 36.4095 21.0268 36.751 21.0268 37.0193V37.5132L21.5038 37.3363C22.2437 37.062 22.4149 36.9766 22.6411 36.7815C22.849 36.5985 22.8552 36.5985 22.9163 36.7144C22.953 36.7815 22.9836 36.8729 22.9836 36.9278C22.9836 36.9766 23.008 37.0315 23.0325 37.0498C23.0998 37.0863 23.0508 36.379 22.9775 36.129C22.8857 35.8424 22.6901 35.6229 22.4088 35.4948C22.1091 35.3607 22.103 35.3607 21.7912 35.4704Z" fill="url(#paint2_linear_5_49)"/>
<path d="M20.8568 5.293C21.1136 5.75033 21.1258 6.04912 20.9057 6.51255C20.7345 6.87841 20.6366 6.93329 20.6366 6.65889C20.6366 6.48206 20.3248 4.92105 20.2086 4.52469C20.178 4.40884 20.1474 4.26859 20.1474 4.2198C20.1474 4.12224 20.5265 4.68933 20.8568 5.293ZM22.1959 7.4699C22.5628 8.10406 22.2632 8.91506 21.456 9.46995L21.1931 9.65288L21.1503 9.48214C21.1258 9.39068 21.0524 9.21994 20.9852 9.11018L20.8629 8.90286L21.2237 8.55529C21.5905 8.20162 21.9819 7.57355 21.9819 7.33574C21.9819 7.15281 22.0186 7.17721 22.1959 7.4699ZM23.4862 9.75044C23.7247 10.287 23.6268 10.659 23.0765 11.348C22.8197 11.6651 22.0002 12.2688 21.8229 12.2688C21.7679 12.2688 21.7373 12.2017 21.7373 12.0981C21.7373 12.0005 21.67 11.7871 21.5844 11.6224C21.4988 11.4578 21.4316 11.3176 21.4316 11.3115C21.4316 11.3054 21.6456 11.1773 21.9085 11.031C22.5017 10.6895 23.0337 10.1346 23.1865 9.70776C23.2477 9.53703 23.3027 9.40287 23.3088 9.40287C23.3211 9.40287 23.4006 9.56141 23.4862 9.75044ZM19.5971 11.348C20.0863 11.7627 20.5143 12.1408 20.5571 12.1956C20.5999 12.2566 20.6733 12.653 20.7283 13.0859C20.7834 13.5127 20.869 13.9823 20.9179 14.1225C20.9668 14.2567 21.0157 14.3969 21.0219 14.4274C21.028 14.4579 20.9485 14.5311 20.8445 14.5981L20.655 14.7079L20.5143 14.3298C20.1719 13.3908 19.9517 13.0981 19.1751 12.5493C18.9183 12.3664 18.6065 12.1164 18.4842 11.9944C18.3557 11.8664 18.2518 11.781 18.2518 11.7932C18.2518 11.8054 18.3313 12.2017 18.4291 12.6774C18.7104 14.0006 19.0223 14.8299 19.4136 15.2445C19.5726 15.4152 19.591 15.3908 18.8755 15.8421C18.4536 16.1104 18.423 16.1226 18.3129 16.0189C18.0317 15.7628 17.3957 14.2872 17.2367 13.5127C17.1633 13.153 17.145 12.8481 17.1694 12.2993C17.2061 11.4639 17.3468 10.9029 17.677 10.2444L17.8971 9.81142L18.3007 10.2078C18.527 10.4273 19.1079 10.9395 19.5971 11.348ZM35.5143 10.098C35.7772 10.5188 36.0402 11.3724 36.1135 12.0371C36.2236 13.0981 35.9912 14.1652 35.3736 15.4762C35.0495 16.1713 34.7316 16.6653 34.169 17.3421C33.9611 17.6043 33.7837 17.8238 33.7837 17.8299C33.7837 17.8421 34.1629 17.8482 34.6276 17.8482C35.5876 17.8543 35.9973 17.9397 36.67 18.2751C38.0764 18.9824 39.2505 20.4824 39.7458 22.1959C40.076 23.3423 40.1555 24.7996 40.0271 27.2387C39.9415 28.7936 40.0638 30.2205 40.3573 31.0803C40.4307 31.2998 39.5624 30.3547 39.2383 29.8607C38.7063 29.0558 38.3333 27.9095 38.162 26.5741C38.1131 26.2021 38.0581 25.2082 38.0336 24.3728C38.0153 23.5313 37.9664 22.5801 37.9358 22.2508C37.8196 21.1044 37.3916 20.0007 36.8534 19.4702C36.5844 19.208 35.9729 18.8178 35.5938 18.6775L35.4348 18.6165L35.5815 18.8422C35.9545 19.4397 36.4682 20.6227 36.6211 21.2447L36.6578 21.4154L31.7536 21.4093C27.1123 21.4093 26.8494 21.4032 26.9962 21.3056C27.9317 20.6654 28.9896 19.7141 29.6256 18.9458C30.0292 18.4519 30.5612 17.6592 30.8669 17.0738C31.0809 16.6653 31.1543 16.6165 31.1543 16.8848C31.1543 16.958 31.1849 17.025 31.2155 17.025C31.2522 17.025 31.2766 16.7933 31.2766 16.4579C31.2766 16.147 31.3194 15.5738 31.3622 15.1835C31.4539 14.464 31.7719 13.1042 31.9187 12.8176C31.9982 12.6591 32.469 12.2444 33.8143 11.1224C34.2179 10.7871 34.7132 10.3602 34.915 10.1773C35.1168 9.98825 35.2941 9.83581 35.3125 9.82971C35.3308 9.82971 35.4225 9.95167 35.5143 10.098ZM24.7642 12.0066C25.18 12.6286 24.6725 13.6591 23.584 14.3969C23.2232 14.6408 22.52 15.0128 22.4161 15.0128C22.3855 15.0128 22.3366 14.9213 22.3182 14.8116C22.2938 14.7079 22.2143 14.5067 22.1409 14.3725C22.0736 14.2384 22.0125 14.1103 22.0125 14.0798C22.0125 14.0554 22.2204 13.9457 22.4711 13.8359C23.4739 13.403 24.3606 12.5798 24.5196 11.9456C24.5441 11.8542 24.5746 11.781 24.5869 11.781C24.5991 11.781 24.6786 11.8847 24.7642 12.0066ZM16.5885 23.1106C16.5457 23.1776 16.3256 23.4215 16.1054 23.6594L15.6957 24.0984H14.2159V25.196H13.6962C13.3293 25.196 13.1642 25.1716 13.1458 25.1167C13.0908 24.9582 12.8278 23.0618 12.8584 23.0313C12.8768 23.013 13.739 23.0008 14.7785 23.0008C16.6069 23.0008 16.668 23.0069 16.5885 23.1106ZM28.213 23.1045C28.1702 23.1654 27.944 23.4154 27.7055 23.6533L27.2774 24.0984H25.7181L25.6814 25.1655L25.1494 25.1838C24.6358 25.2021 24.6113 25.196 24.5808 25.0618C24.5502 24.9033 24.3056 23.1593 24.3056 23.0618C24.3056 23.0252 25.0027 23.0008 26.2991 23.0008C28.1886 23.0008 28.2925 23.0069 28.213 23.1045ZM37.0247 23.6716C37.1286 23.8606 37.1837 30.8181 37.0919 31.751C36.9329 33.373 36.6027 34.5255 35.9117 35.8853C35.0801 37.5134 33.9366 38.6232 32.3651 39.3305C31.5701 39.6842 30.8486 39.8305 29.8396 39.8305C29.118 39.8366 27.8522 39.672 27.7422 39.5561C27.7238 39.5378 27.8339 39.5256 27.9807 39.5256C28.372 39.5256 30.193 39.17 29.8274 39.0378C29.8315 39.0361 30.831 38.8982 30.8351 38.8964C32.4934 38.1812 32.979 36.8869 33.9672 35.0499C35.1779 32.8059 35.5876 29.6656 34.9333 27.6656L34.7927 27.2387L34.7805 27.6656C34.756 28.3729 34.5787 29.8851 34.4564 30.5071C34.1262 32.1169 33.3618 33.6474 32.4079 34.6109C31.1237 35.9036 29.5583 36.5804 27.3936 36.7817C26.3847 36.8731 26.4336 36.8853 26.4825 36.6231L26.5253 36.3975L26.3235 36.5134C25.975 36.7146 25.5591 37.1231 25.4185 37.4097C25.3145 37.6171 25.2534 37.9036 25.1922 38.4951C25.1189 39.2086 25.0822 39.3549 24.8804 39.7574C24.3239 40.8854 22.942 41.7879 21.346 42.0623C20.5694 42.1964 19.0834 42.1538 18.4047 41.9708C17.1633 41.6477 16.2644 40.9586 15.7569 39.9525C15.4511 39.3549 15.4511 39.3549 15.39 37.3731L15.3472 36.0438L15.0292 35.7511C14.3933 35.1658 14.5278 34.8365 15.6835 34.1048C16.7842 33.4096 17.1633 32.6901 17.8849 29.9583L18.1601 28.9034L18.6065 28.7875C19.9151 28.4583 20.7345 27.5131 21.2175 25.7753C21.4316 25.0009 21.5844 24.7509 21.9452 24.6167C22.5139 24.3972 23.0459 24.7326 23.2355 25.4277C23.6329 26.8302 23.8714 27.3241 24.4462 27.8973C24.7459 28.2022 24.9843 28.3729 25.3329 28.5375L25.8037 28.7632H30.7568L31.1543 28.568C31.9065 28.1961 32.4323 27.6046 32.7687 26.757C32.9338 26.3424 33.1784 25.3057 33.264 24.6533C33.3251 24.2021 33.4352 23.9642 33.692 23.7386L33.9122 23.5496H35.4348C36.9024 23.5496 36.9635 23.5557 37.0247 23.6716Z" fill="#DCD9FF"/>
<path d="M15.898 22.2366L14.4244 21.4713L12.03 21.4101L11.1704 21.4713V23.5529C11.1704 23.5529 11.4669 23.8071 11.6002 24.1652C11.8008 24.7043 11.9379 25.9713 11.9379 25.9713C11.9379 25.9713 12.119 26.6676 12.3063 27.0733C12.48 27.4498 12.8281 27.9611 12.8281 27.9611C12.8281 27.9611 13.1398 28.3842 13.4114 28.5427C13.6766 28.6975 14.2096 28.8182 14.2096 28.8182H15.591H18.4152C18.4152 28.8182 19.14 28.7385 19.6125 28.4509C19.9032 28.2738 20.4209 27.719 20.8097 27.0733C21.1767 26.464 21.3009 25.757 21.3009 25.757C21.3009 25.757 21.374 24.5495 22.4981 24.5631C22.9078 24.5681 23.1735 25.0529 23.1735 25.0529L23.4498 25.8488C23.4498 25.8488 23.7118 26.9741 24.1558 27.5325C24.4355 27.8841 24.9233 28.2672 24.9233 28.2672C24.9233 28.2672 25.2939 28.5424 25.4759 28.6345C25.6522 28.7238 25.9057 28.757 25.9057 28.757H30.8788C30.8788 28.757 31.4977 28.4585 31.8612 28.1754C32.1954 27.9149 32.5672 27.3488 32.5672 27.3488L33.0277 26.308C33.0277 26.308 33.1669 25.7391 33.2733 25.1142C33.3406 24.7187 33.2875 24.2824 33.5189 24.0121C33.6953 23.806 34.0407 23.5529 34.0407 23.5529H35.545H36.4966L37.1106 23.6142C37.1106 23.6142 37.0477 22.9425 36.9878 22.5121C36.9279 22.0818 36.7729 21.3489 36.7729 21.3489H26.9494C26.9494 21.3489 24.7993 22.1655 23.3577 22.4203C22.4086 22.5881 20.9632 22.604 20.9632 22.604C20.073 22.604 18.1267 22.6652 17.7092 22.6652C17.2917 22.6652 16.3277 22.3387 15.898 22.2366Z" fill="url(#paint3_linear_5_49)"/>
<path d="M14.3017 24.104L15.7752 24.1347L16.5426 23.2775L16.7268 23.0326C16.7268 23.0326 16.7506 23.0088 16.2357 23.002C15.6021 22.9936 14.3433 23.002 13.9333 23.002C13.19 23.002 12.9202 23.0326 12.9202 23.0326L13.0737 24.104L13.2272 25.1448C13.2272 25.1448 13.5393 25.1941 13.7491 25.2061C13.9589 25.218 14.3017 25.2061 14.3017 25.2061V24.104Z" fill="#DCD9FF"/>
<path d="M25.8139 24.1038L25.7832 25.1752C25.7832 25.1752 25.2316 25.2058 25.0158 25.2058C24.8 25.2058 24.6781 25.1446 24.6781 25.1446L24.5246 24.1038L24.3711 23.0324C24.3711 23.0324 24.5955 23.012 24.7395 23.0018C25.6124 22.9396 26.9805 23.0018 26.9805 23.0018C27.101 23.007 27.5526 22.9987 27.6251 23.0018C27.7558 23.0073 28.1163 23.0018 28.3312 23.0324C28.4308 23.0465 28.203 23.2782 27.9628 23.5222C27.6847 23.8046 27.3795 24.1038 27.3795 24.1038H25.8139Z" fill="#DCD9FF"/>
<path d="M23.2039 16.8794C22.7094 17.3422 21.976 18.1039 21.976 18.1039L20.4105 10.604L19.8579 7.23663L19.551 5.21626C19.551 5.21626 19.3277 3.67839 19.2133 2.73668C19.0688 1.54722 19.0306 0.975437 19.4589 1.57342C20.2264 2.64484 21.485 4.48157 21.485 4.48157C21.485 4.48157 22.5749 6.42902 23.296 7.54277C24.8159 10.0174 27.0412 13.9713 27.0412 13.9713C27.0412 13.9713 26.0083 14.5915 25.3835 15.0427C24.4809 15.6946 24.0165 16.1189 23.2039 16.8794Z" fill="url(#paint4_linear_5_49)"/>
<path d="M25.0155 12.41C25.0387 12.6014 24.9541 12.8998 24.9541 12.8998C24.9541 12.8998 24.7455 13.3953 24.5243 13.6651C24.2987 13.9403 23.8489 14.2774 23.8489 14.2774C23.8489 14.2774 23.409 14.5727 23.1122 14.7366C22.8776 14.866 22.4729 15.0489 22.4675 15.0121C22.4549 14.9256 22.3763 14.8688 22.3754 14.7366C22.3754 14.7366 22.0636 14.2403 22.0991 14.0631C22.0991 14.0631 22.4675 13.8794 22.928 13.6651C23.2654 13.5081 23.7261 13.1141 23.7261 13.1141C23.7261 13.1141 23.9803 12.8818 24.1252 12.7162C24.2828 12.536 24.3633 12.4863 24.4936 12.2264C24.6164 11.9815 24.6778 11.7366 24.6778 11.7366C24.6778 11.7366 24.9832 12.1447 25.0155 12.41Z" fill="#DCD9FF"/>
<path d="M23.6642 10.0223C23.6916 10.1787 23.704 10.2714 23.695 10.4203C23.6781 10.6998 23.5744 10.8178 23.4113 11.0497C23.2451 11.2863 22.9274 11.5835 22.9274 11.5835C22.9274 11.5835 22.603 11.8639 22.3748 12.0121C22.1946 12.1292 21.9573 12.2941 21.8837 12.257C21.8101 12.2199 21.801 11.9513 21.7303 11.7672C21.6574 11.5774 21.4953 11.4554 21.5152 11.308C21.5152 11.308 21.6201 11.199 21.9758 11.0019C22.2365 10.8575 22.5284 10.6346 22.5284 10.6346C22.5284 10.6346 22.7895 10.4406 22.8968 10.2978C23.0136 10.1425 23.1731 9.89989 23.1731 9.89989L23.388 9.37948C23.388 9.37948 23.6261 9.80545 23.6642 10.0223Z" fill="#DCD9FF"/>
<path d="M22.4052 7.66507C22.4404 7.78126 22.4598 7.88795 22.4666 8.0018C22.4794 8.21546 22.3848 8.51491 22.2824 8.70589C22.1779 8.90064 22.0368 9.04262 22.0368 9.04262C22.0368 9.04262 21.828 9.24603 21.6685 9.37934C21.5425 9.48467 21.3594 9.64565 21.3001 9.62424C21.2409 9.60282 21.1797 9.36809 21.1091 9.23481C21.0363 9.0974 20.9302 9.00323 20.9317 8.88955C20.9317 8.88955 20.9573 8.89462 21.1772 8.67527L21.4535 8.39977C21.4535 8.39977 21.6615 8.1506 21.7298 8.03242C21.8041 7.90386 21.914 7.7263 21.914 7.7263C21.914 7.7263 22.0982 7.32835 22.0675 7.2059C22.0484 7.12991 22.2195 7.29264 22.2517 7.35896C22.2986 7.45586 22.3762 7.56941 22.4052 7.66507Z" fill="#DCD9FF"/>
<path d="M20.6873 4.75701C20.6873 4.75701 21.1092 5.41448 21.1478 5.76722C21.1787 6.0497 21.0957 6.29298 20.9943 6.50191C20.9086 6.67839 20.7487 7.00124 20.7487 6.83864C20.7487 6.71619 20.5338 5.70599 20.5338 5.70599C20.5338 5.70599 20.3189 4.72641 20.2268 4.20601C20.1835 3.96103 20.6873 4.75701 20.6873 4.75701Z" fill="#DCD9FF"/>
<path d="M22.1493 35.48C21.8374 35.5897 21.5378 35.9251 21.4522 36.2727C21.4155 36.419 21.3849 36.7605 21.3849 37.0288V37.5227L21.8619 37.3459C22.6018 37.0715 22.773 36.9861 22.9992 36.791C23.2071 36.608 23.2133 36.608 23.2744 36.7239C23.3111 36.791 23.3417 36.8824 23.3417 36.9373C23.3417 36.9861 23.3661 37.041 23.3906 37.0593C23.4579 37.0959 23.4089 36.3885 23.3356 36.1385C23.2438 35.8519 23.0482 35.6324 22.7669 35.5044C22.4672 35.3702 22.4611 35.3702 22.1493 35.48Z" fill="url(#paint5_linear_5_49)"/>
<path d="M34.3053 12.4341C33.5593 13.056 33.4431 13.178 33.2597 13.5438C32.7644 14.5317 31.9939 17.1903 32.1773 17.3C32.2446 17.3427 32.9478 16.7573 33.3331 16.3305C34.2442 15.3366 34.7089 14.2939 34.9963 12.6109C35.0636 12.2084 35.1308 11.8426 35.1492 11.7999C35.1614 11.7633 35.1675 11.7267 35.1614 11.7267C35.1553 11.7267 34.7701 12.0438 34.3053 12.4341Z" fill="url(#paint6_linear_5_49)"/>
<defs>
<linearGradient id="paint0_linear_5_49" x1="30.6932" y1="4.0989" x2="52.9191" y2="39.2248" gradientUnits="userSpaceOnUse">
<stop stop-color="#763AF1"/>
<stop offset="1" stop-color="#6066F4"/>
</linearGradient>
<linearGradient id="paint1_linear_5_49" x1="33.7992" y1="17.0003" x2="36.3376" y2="13.7564" gradientUnits="userSpaceOnUse">
<stop stop-color="#763AF1"/>
<stop offset="1" stop-color="#6066F4"/>
</linearGradient>
<linearGradient id="paint2_linear_5_49" x1="22.1609" y1="37.4008" x2="22.8955" y2="35.7336" gradientUnits="userSpaceOnUse">
<stop stop-color="#763AF1"/>
<stop offset="1" stop-color="#6066F4"/>
</linearGradient>
<linearGradient id="paint3_linear_5_49" x1="25.6083" y1="21.7445" x2="26.4493" y2="28.6488" gradientUnits="userSpaceOnUse">
<stop stop-color="#763AF1"/>
<stop offset="1" stop-color="#6066F4"/>
</linearGradient>
<linearGradient id="paint4_linear_5_49" x1="23.5261" y1="2.22222" x2="31.3436" y2="10.9577" gradientUnits="userSpaceOnUse">
<stop stop-color="#763AF1"/>
<stop offset="1" stop-color="#6066F4"/>
</linearGradient>
<linearGradient id="paint5_linear_5_49" x1="22.519" y1="37.4103" x2="23.2536" y2="35.7431" gradientUnits="userSpaceOnUse">
<stop stop-color="#763AF1"/>
<stop offset="1" stop-color="#6066F4"/>
</linearGradient>
<linearGradient id="paint6_linear_5_49" x1="33.8273" y1="17.0069" x2="36.3657" y2="13.763" gradientUnits="userSpaceOnUse">
<stop stop-color="#763AF1"/>
<stop offset="1" stop-color="#6066F4"/>
</linearGradient>
</defs>
</svg>
