<svg width="260" height="81" viewBox="0 0 260 81" fill="none" xmlns="http://www.w3.org/2000/svg">
<rect y="0.5" width="260" height="80" rx="15" fill="#333333"/>
<path d="M86.3984 29.5H84.0234L84.0391 28.2734H86.3984C87.2109 28.2734 87.888 28.1042 88.4297 27.7656C88.9714 27.4219 89.3776 26.9427 89.6484 26.3281C89.9245 25.7083 90.0625 24.9844 90.0625 24.1562V23.4609C90.0625 22.8099 89.9844 22.2318 89.8281 21.7266C89.6719 21.2161 89.4427 20.7865 89.1406 20.4375C88.8385 20.0833 88.4688 19.8151 88.0312 19.6328C87.599 19.4505 87.1016 19.3594 86.5391 19.3594H83.9766V18.125H86.5391C87.2839 18.125 87.9635 18.25 88.5781 18.5C89.1927 18.7448 89.7214 19.1016 90.1641 19.5703C90.612 20.0339 90.9557 20.5964 91.1953 21.2578C91.4349 21.9141 91.5547 22.6536 91.5547 23.4766V24.1562C91.5547 24.9792 91.4349 25.7214 91.1953 26.3828C90.9557 27.0391 90.6094 27.599 90.1562 28.0625C89.7083 28.526 89.1667 28.8828 88.5312 29.1328C87.901 29.3776 87.1901 29.5 86.3984 29.5ZM84.8281 18.125V29.5H83.3203V18.125H84.8281ZM102.898 23.4531V24.1719C102.898 25.026 102.791 25.7917 102.578 26.4688C102.364 27.1458 102.057 27.7214 101.656 28.1953C101.255 28.6693 100.773 29.0312 100.211 29.2812C99.6533 29.5312 99.0283 29.6562 98.3356 29.6562C97.6637 29.6562 97.0466 29.5312 96.4841 29.2812C95.9268 29.0312 95.4424 28.6693 95.0309 28.1953C94.6247 27.7214 94.3096 27.1458 94.0856 26.4688C93.8617 25.7917 93.7497 25.026 93.7497 24.1719V23.4531C93.7497 22.599 93.8591 21.8359 94.0778 21.1641C94.3018 20.487 94.6169 19.9115 95.0231 19.4375C95.4294 18.9583 95.9111 18.5938 96.4684 18.3438C97.0309 18.0938 97.6481 17.9688 98.32 17.9688C99.0127 17.9688 99.6377 18.0938 100.195 18.3438C100.757 18.5938 101.239 18.9583 101.64 19.4375C102.047 19.9115 102.356 20.487 102.57 21.1641C102.789 21.8359 102.898 22.599 102.898 23.4531ZM101.406 24.1719V23.4375C101.406 22.7604 101.336 22.1615 101.195 21.6406C101.06 21.1198 100.859 20.6823 100.593 20.3281C100.328 19.974 100.002 19.7057 99.6169 19.5234C99.2367 19.3411 98.8044 19.25 98.32 19.25C97.8512 19.25 97.4268 19.3411 97.0466 19.5234C96.6716 19.7057 96.3486 19.974 96.0778 20.3281C95.8122 20.6823 95.6065 21.1198 95.4606 21.6406C95.3148 22.1615 95.2419 22.7604 95.2419 23.4375V24.1719C95.2419 24.8542 95.3148 25.4583 95.4606 25.9844C95.6065 26.5052 95.8148 26.9453 96.0856 27.3047C96.3617 27.6589 96.6872 27.9271 97.0622 28.1094C97.4424 28.2917 97.8669 28.3828 98.3356 28.3828C98.8252 28.3828 99.2601 28.2917 99.6403 28.1094C100.021 27.9271 100.341 27.6589 100.601 27.3047C100.867 26.9453 101.067 26.5052 101.203 25.9844C101.338 25.4583 101.406 24.8542 101.406 24.1719ZM108.468 26.0625L110.726 18.125H111.82L111.187 21.2109L108.757 29.5H107.671L108.468 26.0625ZM106.132 18.125L107.929 25.9062L108.468 29.5H107.39L104.632 18.125H106.132ZM114.742 25.8984L116.499 18.125H118.007L115.257 29.5H114.179L114.742 25.8984ZM111.984 18.125L114.179 26.0625L114.976 29.5H113.89L111.546 21.2109L110.906 18.125H111.984ZM128.749 18.125V29.5H127.233L121.507 20.7266V29.5H119.999V18.125H121.507L127.257 26.9219V18.125H128.749ZM138.639 28.2734V29.5H132.952V28.2734H138.639ZM133.249 18.125V29.5H131.741V18.125H133.249ZM148.928 23.4531V24.1719C148.928 25.026 148.821 25.7917 148.608 26.4688C148.394 27.1458 148.087 27.7214 147.686 28.1953C147.285 28.6693 146.803 29.0312 146.241 29.2812C145.683 29.5312 145.058 29.6562 144.366 29.6562C143.694 29.6562 143.077 29.5312 142.514 29.2812C141.957 29.0312 141.472 28.6693 141.061 28.1953C140.655 27.7214 140.34 27.1458 140.116 26.4688C139.892 25.7917 139.78 25.026 139.78 24.1719V23.4531C139.78 22.599 139.889 21.8359 140.108 21.1641C140.332 20.487 140.647 19.9115 141.053 19.4375C141.459 18.9583 141.941 18.5938 142.498 18.3438C143.061 18.0938 143.678 17.9688 144.35 17.9688C145.043 17.9688 145.668 18.0938 146.225 18.3438C146.787 18.5938 147.269 18.9583 147.67 19.4375C148.077 19.9115 148.386 20.487 148.6 21.1641C148.819 21.8359 148.928 22.599 148.928 23.4531ZM147.436 24.1719V23.4375C147.436 22.7604 147.366 22.1615 147.225 21.6406C147.09 21.1198 146.889 20.6823 146.623 20.3281C146.358 19.974 146.032 19.7057 145.647 19.5234C145.267 19.3411 144.834 19.25 144.35 19.25C143.881 19.25 143.457 19.3411 143.077 19.5234C142.702 19.7057 142.379 19.974 142.108 20.3281C141.842 20.6823 141.636 21.1198 141.491 21.6406C141.345 22.1615 141.272 22.7604 141.272 23.4375V24.1719C141.272 24.8542 141.345 25.4583 141.491 25.9844C141.636 26.5052 141.845 26.9453 142.116 27.3047C142.392 27.6589 142.717 27.9271 143.092 28.1094C143.472 28.2917 143.897 28.3828 144.366 28.3828C144.855 28.3828 145.29 28.2917 145.67 28.1094C146.051 27.9271 146.371 27.6589 146.631 27.3047C146.897 26.9453 147.097 26.5052 147.233 25.9844C147.368 25.4583 147.436 24.8542 147.436 24.1719ZM155.545 19.1328L151.779 29.5H150.24L154.576 18.125H155.568L155.545 19.1328ZM158.701 29.5L154.928 19.1328L154.904 18.125H155.897L160.248 29.5H158.701ZM158.506 25.2891V26.5234H152.115V25.2891H158.506ZM165.17 29.5H162.795L162.81 28.2734H165.17C165.982 28.2734 166.659 28.1042 167.201 27.7656C167.743 27.4219 168.149 26.9427 168.42 26.3281C168.696 25.7083 168.834 24.9844 168.834 24.1562V23.4609C168.834 22.8099 168.756 22.2318 168.599 21.7266C168.443 21.2161 168.214 20.7865 167.912 20.4375C167.61 20.0833 167.24 19.8151 166.802 19.6328C166.37 19.4505 165.873 19.3594 165.31 19.3594H162.748V18.125H165.31C166.055 18.125 166.735 18.25 167.349 18.5C167.964 18.7448 168.493 19.1016 168.935 19.5703C169.383 20.0339 169.727 20.5964 169.967 21.2578C170.206 21.9141 170.326 22.6536 170.326 23.4766V24.1562C170.326 24.9792 170.206 25.7214 169.967 26.3828C169.727 27.0391 169.381 27.599 168.927 28.0625C168.48 28.526 167.938 28.8828 167.302 29.1328C166.672 29.3776 165.961 29.5 165.17 29.5ZM163.599 18.125V29.5H162.092V18.125H163.599ZM185.958 23.4531V24.1719C185.958 25.026 185.851 25.7917 185.638 26.4688C185.424 27.1458 185.117 27.7214 184.716 28.1953C184.315 28.6693 183.833 29.0312 183.271 29.2812C182.713 29.5312 182.088 29.6562 181.396 29.6562C180.724 29.6562 180.107 29.5312 179.544 29.2812C178.987 29.0312 178.502 28.6693 178.091 28.1953C177.685 27.7214 177.37 27.1458 177.146 26.4688C176.922 25.7917 176.81 25.026 176.81 24.1719V23.4531C176.81 22.599 176.919 21.8359 177.138 21.1641C177.362 20.487 177.677 19.9115 178.083 19.4375C178.489 18.9583 178.971 18.5938 179.528 18.3438C180.091 18.0938 180.708 17.9688 181.38 17.9688C182.073 17.9688 182.698 18.0938 183.255 18.3438C183.817 18.5938 184.299 18.9583 184.7 19.4375C185.107 19.9115 185.416 20.487 185.63 21.1641C185.849 21.8359 185.958 22.599 185.958 23.4531ZM184.466 24.1719V23.4375C184.466 22.7604 184.396 22.1615 184.255 21.6406C184.12 21.1198 183.919 20.6823 183.653 20.3281C183.388 19.974 183.062 19.7057 182.677 19.5234C182.297 19.3411 181.864 19.25 181.38 19.25C180.911 19.25 180.487 19.3411 180.107 19.5234C179.732 19.7057 179.409 19.974 179.138 20.3281C178.872 20.6823 178.666 21.1198 178.521 21.6406C178.375 22.1615 178.302 22.7604 178.302 23.4375V24.1719C178.302 24.8542 178.375 25.4583 178.521 25.9844C178.666 26.5052 178.875 26.9453 179.146 27.3047C179.422 27.6589 179.747 27.9271 180.122 28.1094C180.502 28.2917 180.927 28.3828 181.396 28.3828C181.885 28.3828 182.32 28.2917 182.7 28.1094C183.081 27.9271 183.401 27.6589 183.661 27.3047C183.927 26.9453 184.127 26.5052 184.263 25.9844C184.398 25.4583 184.466 24.8542 184.466 24.1719ZM197.286 18.125V29.5H195.77L190.044 20.7266V29.5H188.536V18.125H190.044L195.794 26.9219V18.125H197.286ZM208.457 18.125V29.5H206.973V18.125H208.457ZM212.113 18.125V19.3594H203.324V18.125H212.113ZM221.551 23.0156V24.2422H215.394V23.0156H221.551ZM215.629 18.125V29.5H214.121V18.125H215.629ZM222.863 18.125V29.5H221.363V18.125H222.863ZM233.089 28.2734V29.5H227.066V28.2734H233.089ZM227.371 18.125V29.5H225.863V18.125H227.371ZM232.292 23.0156V24.2422H227.066V23.0156H232.292ZM233.011 18.125V19.3594H227.066V18.125H233.011Z" fill="white"/>
<path d="M90.4141 45.0273L85.5508 59.5H82.1406L88.5156 42.4375H90.6953L90.4141 45.0273ZM94.4805 59.5L89.5938 45.0273L89.3008 42.4375H91.4922L97.9023 59.5H94.4805ZM94.2578 53.1602V55.7031H85.1055V53.1602H94.2578ZM102.695 49.2578V64.375H99.5894V46.8203H102.46L102.695 49.2578ZM110.839 53.0312V53.2773C110.839 54.1992 110.73 55.0547 110.511 55.8438C110.3 56.625 109.988 57.3086 109.574 57.8945C109.16 58.4727 108.644 58.9258 108.027 59.2539C107.417 59.5742 106.714 59.7344 105.917 59.7344C105.136 59.7344 104.457 59.5859 103.878 59.2891C103.3 58.9844 102.812 58.5547 102.414 58C102.015 57.4453 101.695 56.8008 101.453 56.0664C101.218 55.3242 101.042 54.5156 100.925 53.6406V52.8555C101.042 51.9258 101.218 51.082 101.453 50.3242C101.695 49.5586 102.015 48.8984 102.414 48.3438C102.812 47.7812 103.296 47.3477 103.867 47.043C104.445 46.7383 105.121 46.5859 105.894 46.5859C106.699 46.5859 107.406 46.7383 108.015 47.043C108.632 47.3477 109.152 47.7852 109.574 48.3555C109.996 48.9258 110.312 49.6055 110.523 50.3945C110.734 51.1836 110.839 52.0625 110.839 53.0312ZM107.734 53.2773V53.0312C107.734 52.4688 107.683 51.9492 107.582 51.4727C107.48 50.9883 107.324 50.5664 107.113 50.207C106.902 49.8398 106.628 49.5547 106.292 49.3516C105.957 49.1484 105.55 49.0469 105.074 49.0469C104.597 49.0469 104.187 49.125 103.843 49.2812C103.5 49.4375 103.218 49.6602 103 49.9492C102.781 50.2383 102.609 50.582 102.484 50.9805C102.367 51.3711 102.289 51.8047 102.25 52.2812V54.2266C102.32 54.8047 102.457 55.3242 102.66 55.7852C102.863 56.2461 103.16 56.6133 103.55 56.8867C103.949 57.1602 104.464 57.2969 105.097 57.2969C105.574 57.2969 105.98 57.1914 106.316 56.9805C106.652 56.7695 106.925 56.4805 107.136 56.1133C107.347 55.7383 107.5 55.3086 107.593 54.8242C107.687 54.3398 107.734 53.8242 107.734 53.2773ZM116.675 49.2578V64.375H113.569V46.8203H116.44L116.675 49.2578ZM124.819 53.0312V53.2773C124.819 54.1992 124.71 55.0547 124.491 55.8438C124.28 56.625 123.968 57.3086 123.554 57.8945C123.14 58.4727 122.624 58.9258 122.007 59.2539C121.397 59.5742 120.694 59.7344 119.897 59.7344C119.116 59.7344 118.437 59.5859 117.858 59.2891C117.28 58.9844 116.792 58.5547 116.394 58C115.995 57.4453 115.675 56.8008 115.433 56.0664C115.198 55.3242 115.022 54.5156 114.905 53.6406V52.8555C115.022 51.9258 115.198 51.082 115.433 50.3242C115.675 49.5586 115.995 48.8984 116.394 48.3438C116.792 47.7812 117.276 47.3477 117.847 47.043C118.425 46.7383 119.101 46.5859 119.874 46.5859C120.679 46.5859 121.386 46.7383 121.995 47.043C122.612 47.3477 123.132 47.7852 123.554 48.3555C123.976 48.9258 124.292 49.6055 124.503 50.3945C124.714 51.1836 124.819 52.0625 124.819 53.0312ZM121.714 53.2773V53.0312C121.714 52.4688 121.663 51.9492 121.562 51.4727C121.46 50.9883 121.304 50.5664 121.093 50.207C120.882 49.8398 120.608 49.5547 120.272 49.3516C119.937 49.1484 119.53 49.0469 119.054 49.0469C118.577 49.0469 118.167 49.125 117.823 49.2812C117.48 49.4375 117.198 49.6602 116.98 49.9492C116.761 50.2383 116.589 50.582 116.464 50.9805C116.347 51.3711 116.269 51.8047 116.23 52.2812V54.2266C116.3 54.8047 116.437 55.3242 116.64 55.7852C116.843 56.2461 117.14 56.6133 117.53 56.8867C117.929 57.1602 118.444 57.2969 119.077 57.2969C119.554 57.2969 119.96 57.1914 120.296 56.9805C120.632 56.7695 120.905 56.4805 121.116 56.1133C121.327 55.7383 121.48 55.3086 121.573 54.8242C121.667 54.3398 121.714 53.8242 121.714 53.2773ZM143.182 55.0703C143.182 54.7422 143.131 54.4492 143.029 54.1914C142.936 53.9258 142.76 53.6875 142.502 53.4766C142.252 53.2578 141.897 53.0469 141.436 52.8438C140.982 52.6328 140.397 52.4141 139.678 52.1875C138.881 51.9375 138.139 51.6562 137.451 51.3438C136.764 51.0312 136.158 50.668 135.635 50.2539C135.119 49.8398 134.717 49.3633 134.428 48.8242C134.139 48.2773 133.994 47.6445 133.994 46.9258C133.994 46.2227 134.143 45.582 134.44 45.0039C134.744 44.4258 135.174 43.9297 135.729 43.5156C136.283 43.0938 136.936 42.7695 137.686 42.543C138.443 42.3164 139.279 42.2031 140.193 42.2031C141.459 42.2031 142.553 42.4336 143.475 42.8945C144.404 43.3555 145.123 43.9805 145.631 44.7695C146.139 45.5586 146.393 46.4453 146.393 47.4297H143.182C143.182 46.8984 143.068 46.4297 142.842 46.0234C142.623 45.6172 142.287 45.2969 141.834 45.0625C141.389 44.8281 140.826 44.7109 140.147 44.7109C139.49 44.7109 138.943 44.8086 138.506 45.0039C138.076 45.1992 137.752 45.4648 137.533 45.8008C137.322 46.1367 137.217 46.5117 137.217 46.9258C137.217 47.2383 137.291 47.5195 137.44 47.7695C137.588 48.0117 137.811 48.2422 138.107 48.4609C138.404 48.6719 138.772 48.8711 139.209 49.0586C139.654 49.2383 140.17 49.418 140.756 49.5977C141.693 49.8789 142.514 50.1914 143.217 50.5352C143.928 50.8789 144.518 51.2695 144.986 51.707C145.463 52.1445 145.818 52.6367 146.053 53.1836C146.295 53.7305 146.416 54.3516 146.416 55.0469C146.416 55.7812 146.272 56.4375 145.982 57.0156C145.693 57.5938 145.279 58.0859 144.74 58.4922C144.201 58.8984 143.553 59.207 142.795 59.418C142.045 59.6289 141.205 59.7344 140.275 59.7344C139.447 59.7344 138.627 59.625 137.815 59.4062C137.01 59.1797 136.279 58.8438 135.623 58.3984C134.967 57.9453 134.443 57.375 134.053 56.6875C133.662 55.9922 133.467 55.1797 133.467 54.25H136.701C136.701 54.7891 136.787 55.25 136.959 55.6328C137.139 56.0078 137.389 56.3164 137.709 56.5586C138.037 56.793 138.42 56.9648 138.857 57.0742C139.295 57.1836 139.768 57.2383 140.275 57.2383C140.932 57.2383 141.471 57.1484 141.893 56.9688C142.322 56.7812 142.643 56.5234 142.854 56.1953C143.072 55.8672 143.182 55.4922 143.182 55.0703ZM155.146 46.8203V49.0469H147.88V46.8203H155.146ZM149.826 43.7031H152.931V55.8438C152.931 56.2188 152.982 56.5078 153.084 56.7109C153.185 56.9141 153.338 57.0508 153.541 57.1211C153.744 57.1914 153.986 57.2266 154.267 57.2266C154.47 57.2266 154.658 57.2148 154.83 57.1914C155.002 57.168 155.146 57.1445 155.263 57.1211L155.275 59.4414C155.017 59.5273 154.724 59.5977 154.396 59.6523C154.076 59.707 153.713 59.7344 153.306 59.7344C152.611 59.7344 152.002 59.6172 151.478 59.3828C150.955 59.1406 150.548 58.7539 150.259 58.2227C149.97 57.6836 149.826 56.9727 149.826 56.0898V43.7031ZM156.833 53.2891V53.043C156.833 52.1133 156.966 51.2578 157.232 50.4766C157.497 49.6875 157.884 49.0039 158.392 48.4258C158.9 47.8477 159.521 47.3984 160.255 47.0781C160.989 46.75 161.825 46.5859 162.763 46.5859C163.716 46.5859 164.56 46.75 165.294 47.0781C166.036 47.3984 166.661 47.8477 167.169 48.4258C167.677 49.0039 168.064 49.6875 168.329 50.4766C168.595 51.2578 168.728 52.1133 168.728 53.043V53.2891C168.728 54.2109 168.595 55.0664 168.329 55.8555C168.064 56.6367 167.677 57.3203 167.169 57.9062C166.661 58.4844 166.04 58.9336 165.306 59.2539C164.571 59.5742 163.732 59.7344 162.786 59.7344C161.849 59.7344 161.009 59.5742 160.267 59.2539C159.525 58.9336 158.9 58.4844 158.392 57.9062C157.884 57.3203 157.497 56.6367 157.232 55.8555C156.966 55.0664 156.833 54.2109 156.833 53.2891ZM159.927 53.043V53.2891C159.927 53.8438 159.982 54.3633 160.091 54.8477C160.2 55.332 160.368 55.7578 160.595 56.125C160.821 56.4922 161.114 56.7812 161.474 56.9922C161.841 57.1953 162.278 57.2969 162.786 57.2969C163.286 57.2969 163.716 57.1953 164.075 56.9922C164.435 56.7812 164.728 56.4922 164.954 56.125C165.189 55.7578 165.36 55.332 165.47 54.8477C165.579 54.3633 165.634 53.8438 165.634 53.2891V53.043C165.634 52.4961 165.579 51.9844 165.47 51.5078C165.36 51.0234 165.189 50.5977 164.954 50.2305C164.728 49.8555 164.431 49.5625 164.064 49.3516C163.704 49.1328 163.271 49.0234 162.763 49.0234C162.263 49.0234 161.833 49.1328 161.474 49.3516C161.114 49.5625 160.821 49.8555 160.595 50.2305C160.368 50.5977 160.2 51.0234 160.091 51.5078C159.982 51.9844 159.927 52.4961 159.927 53.043ZM174.551 49.4102V59.5H171.458V46.8203H174.387L174.551 49.4102ZM178.407 46.7383L178.36 49.6211C178.188 49.5898 177.993 49.5664 177.774 49.5508C177.563 49.5352 177.364 49.5273 177.176 49.5273C176.7 49.5273 176.282 49.5938 175.923 49.7266C175.563 49.8516 175.262 50.0352 175.02 50.2773C174.786 50.5195 174.606 50.8164 174.481 51.168C174.356 51.5117 174.286 51.9023 174.27 52.3398L173.602 52.2578C173.602 51.4531 173.684 50.707 173.848 50.0195C174.012 49.332 174.251 48.7305 174.563 48.2148C174.876 47.6992 175.266 47.3008 175.735 47.0195C176.212 46.7305 176.758 46.5859 177.376 46.5859C177.548 46.5859 177.731 46.6016 177.926 46.6328C178.13 46.6562 178.29 46.6914 178.407 46.7383ZM186.047 59.7344C185.086 59.7344 184.223 59.5781 183.457 59.2656C182.692 58.9531 182.039 58.5195 181.5 57.9648C180.969 57.4023 180.559 56.75 180.27 56.0078C179.988 55.2578 179.848 54.4531 179.848 53.5938V53.125C179.848 52.1484 179.988 51.2617 180.27 50.4648C180.551 49.6602 180.949 48.9688 181.465 48.3906C181.981 47.8125 182.598 47.3672 183.317 47.0547C184.035 46.7422 184.828 46.5859 185.695 46.5859C186.594 46.5859 187.387 46.7383 188.074 47.043C188.762 47.3398 189.336 47.7617 189.797 48.3086C190.258 48.8555 190.606 49.5117 190.84 50.2773C191.074 51.0352 191.192 51.875 191.192 52.7969V54.0977H181.254V51.9648H188.145V51.7305C188.129 51.2383 188.035 50.7891 187.863 50.3828C187.692 49.9688 187.426 49.6406 187.067 49.3984C186.707 49.1484 186.242 49.0234 185.672 49.0234C185.211 49.0234 184.809 49.125 184.465 49.3281C184.129 49.5234 183.848 49.8047 183.621 50.1719C183.402 50.5312 183.238 50.9609 183.129 51.4609C183.02 51.9609 182.965 52.5156 182.965 53.125V53.5938C182.965 54.125 183.035 54.6172 183.176 55.0703C183.324 55.5234 183.539 55.918 183.82 56.2539C184.11 56.582 184.453 56.8398 184.852 57.0273C185.258 57.207 185.719 57.2969 186.235 57.2969C186.883 57.2969 187.469 57.1719 187.992 56.9219C188.524 56.6641 188.985 56.2852 189.375 55.7852L190.934 57.4023C190.668 57.793 190.309 58.168 189.856 58.5273C189.41 58.8867 188.871 59.1797 188.238 59.4062C187.606 59.625 186.875 59.7344 186.047 59.7344Z" fill="white"/>
<path d="M54.7779 28.1325C50.7616 28.1325 49.0643 30.049 46.2673 30.049C43.3995 30.049 41.2121 28.1465 37.7317 28.1465C34.3251 28.1465 30.6923 30.2263 28.3854 33.7694C25.1461 38.7658 25.6959 48.1759 30.9424 56.1925C32.819 59.0622 35.3252 62.2806 38.6123 62.3155H38.6721C41.5289 62.3155 42.3775 60.4448 46.3091 60.4229H46.3689C50.2417 60.4229 51.0186 62.3045 53.8635 62.3045H53.9232C57.2104 62.2697 59.851 58.7037 61.7276 55.8449C63.0783 53.7889 63.5804 52.757 64.6163 50.4311C57.0271 47.5504 55.8079 36.7916 63.3134 32.6668C61.0224 29.798 57.803 28.1365 54.7679 28.1365L54.7779 28.1325Z" fill="white"/>
<path d="M53.8934 17.6875C51.5027 17.8499 48.7137 19.3719 47.0801 21.3591C45.5979 23.16 44.3787 25.8316 44.8568 28.4224H45.048C47.5941 28.4224 50.1998 26.8894 51.7219 24.9251C53.1881 23.0554 54.2998 20.4058 53.8934 17.6875Z" fill="white"/>
</svg>
