<svg width="260" height="81" viewBox="0 0 260 81" fill="none" xmlns="http://www.w3.org/2000/svg">
<rect y="0.5" width="260" height="80" rx="15" fill="#333333"/>
<path d="M91.7266 23.8359V28C91.5859 28.2083 91.362 28.4427 91.0547 28.7031C90.7474 28.9583 90.3229 29.1823 89.7812 29.375C89.2448 29.5625 88.5521 29.6562 87.7031 29.6562C87.0104 29.6562 86.3724 29.5365 85.7891 29.2969C85.2109 29.0521 84.7083 28.6979 84.2812 28.2344C83.8594 27.7656 83.5312 27.1979 83.2969 26.5312C83.0677 25.8594 82.9531 25.099 82.9531 24.25V23.3672C82.9531 22.5182 83.0521 21.7604 83.25 21.0938C83.4531 20.4271 83.75 19.862 84.1406 19.3984C84.5312 18.9297 85.0104 18.5755 85.5781 18.3359C86.1458 18.0911 86.7969 17.9688 87.5312 17.9688C88.401 17.9688 89.1276 18.1198 89.7109 18.4219C90.2995 18.7188 90.7578 19.1302 91.0859 19.6562C91.4193 20.1823 91.6328 20.7812 91.7266 21.4531H90.2188C90.151 21.0417 90.0156 20.6667 89.8125 20.3281C89.6146 19.9896 89.3307 19.7188 88.9609 19.5156C88.5911 19.3073 88.1146 19.2031 87.5312 19.2031C87.0052 19.2031 86.5495 19.2995 86.1641 19.4922C85.7786 19.6849 85.4609 19.9609 85.2109 20.3203C84.9609 20.6797 84.7734 21.1146 84.6484 21.625C84.5286 22.1354 84.4688 22.7109 84.4688 23.3516V24.25C84.4688 24.9062 84.5443 25.4922 84.6953 26.0078C84.8516 26.5234 85.0729 26.9635 85.3594 27.3281C85.6458 27.6875 85.987 27.9609 86.3828 28.1484C86.7839 28.3359 87.2266 28.4297 87.7109 28.4297C88.2474 28.4297 88.6823 28.3854 89.0156 28.2969C89.349 28.2031 89.6094 28.0938 89.7969 27.9688C89.9844 27.8385 90.1276 27.7161 90.2266 27.6016V25.0547H87.5938V23.8359H91.7266ZM101.933 28.2734V29.5H95.9097V28.2734H101.933ZM96.2144 18.125V29.5H94.7066V18.125H96.2144ZM101.136 23.0156V24.2422H95.9097V23.0156H101.136ZM101.855 18.125V19.3594H95.9097V18.125H101.855ZM108.64 18.125V29.5H107.155V18.125H108.64ZM112.296 18.125V19.3594H103.507V18.125H112.296ZM120.217 18.125V29.5H118.709V18.125H120.217ZM127.408 18.125V29.5H125.923V18.125H127.408ZM131.064 18.125V19.3594H122.275V18.125H131.064ZM146.126 23.4531V24.1719C146.126 25.026 146.019 25.7917 145.805 26.4688C145.592 27.1458 145.284 27.7214 144.883 28.1953C144.482 28.6693 144.001 29.0312 143.438 29.2812C142.881 29.5312 142.256 29.6562 141.563 29.6562C140.891 29.6562 140.274 29.5312 139.712 29.2812C139.154 29.0312 138.67 28.6693 138.258 28.1953C137.852 27.7214 137.537 27.1458 137.313 26.4688C137.089 25.7917 136.977 25.026 136.977 24.1719V23.4531C136.977 22.599 137.087 21.8359 137.305 21.1641C137.529 20.487 137.844 19.9115 138.251 19.4375C138.657 18.9583 139.139 18.5938 139.696 18.3438C140.258 18.0938 140.876 17.9688 141.548 17.9688C142.24 17.9688 142.865 18.0938 143.423 18.3438C143.985 18.5938 144.467 18.9583 144.868 19.4375C145.274 19.9115 145.584 20.487 145.798 21.1641C146.016 21.8359 146.126 22.599 146.126 23.4531ZM144.633 24.1719V23.4375C144.633 22.7604 144.563 22.1615 144.423 21.6406C144.287 21.1198 144.087 20.6823 143.821 20.3281C143.555 19.974 143.23 19.7057 142.844 19.5234C142.464 19.3411 142.032 19.25 141.548 19.25C141.079 19.25 140.654 19.3411 140.274 19.5234C139.899 19.7057 139.576 19.974 139.305 20.3281C139.04 20.6823 138.834 21.1198 138.688 21.6406C138.542 22.1615 138.469 22.7604 138.469 23.4375V24.1719C138.469 24.8542 138.542 25.4583 138.688 25.9844C138.834 26.5052 139.042 26.9453 139.313 27.3047C139.589 27.6589 139.915 27.9271 140.29 28.1094C140.67 28.2917 141.094 28.3828 141.563 28.3828C142.053 28.3828 142.488 28.2917 142.868 28.1094C143.248 27.9271 143.568 27.6589 143.829 27.3047C144.094 26.9453 144.295 26.5052 144.43 25.9844C144.566 25.4583 144.633 24.8542 144.633 24.1719ZM157.613 18.125V29.5H156.098L150.371 20.7266V29.5H148.863V18.125H150.371L156.121 26.9219V18.125H157.613Z" fill="white"/>
<path d="M96.9414 50.6758V57.3203C96.6914 57.6406 96.2969 57.9883 95.7578 58.3633C95.2266 58.7383 94.5312 59.0625 93.6719 59.3359C92.8125 59.6016 91.7578 59.7344 90.5078 59.7344C89.4219 59.7344 88.4297 59.5547 87.5312 59.1953C86.6328 58.8281 85.8594 58.293 85.2109 57.5898C84.5625 56.8867 84.0625 56.0273 83.7109 55.0117C83.3594 53.9961 83.1836 52.8359 83.1836 51.5312V50.4062C83.1836 49.1016 83.3477 47.9414 83.6758 46.9258C84.0117 45.9102 84.4883 45.0508 85.1055 44.3477C85.7305 43.6445 86.4766 43.1094 87.3438 42.7422C88.2188 42.375 89.1953 42.1914 90.2734 42.1914C91.7188 42.1914 92.9062 42.4297 93.8359 42.9062C94.7734 43.3828 95.4922 44.0391 95.9922 44.875C96.4922 45.7031 96.8047 46.6562 96.9297 47.7344H93.7891C93.7031 47.1406 93.5312 46.6211 93.2734 46.1758C93.0156 45.7227 92.6484 45.3711 92.1719 45.1211C91.7031 44.8633 91.0938 44.7344 90.3438 44.7344C89.7109 44.7344 89.1523 44.8594 88.668 45.1094C88.1836 45.3594 87.7773 45.7227 87.4492 46.1992C87.1211 46.6758 86.8711 47.2656 86.6992 47.9688C86.5352 48.6719 86.4531 49.4766 86.4531 50.3828V51.5312C86.4531 52.4453 86.5469 53.2578 86.7344 53.9688C86.9219 54.6719 87.1914 55.2656 87.543 55.75C87.9023 56.2266 88.3438 56.5898 88.8672 56.8398C89.3984 57.082 90 57.2031 90.6719 57.2031C91.2812 57.2031 91.7852 57.1523 92.1836 57.0508C92.5898 56.9414 92.9141 56.8125 93.1562 56.6641C93.3984 56.5156 93.5859 56.3711 93.7188 56.2305V53.0312H90.332V50.6758H96.9414ZM99.9231 53.2891V53.043C99.9231 52.1133 100.056 51.2578 100.322 50.4766C100.587 49.6875 100.974 49.0039 101.482 48.4258C101.99 47.8477 102.611 47.3984 103.345 47.0781C104.079 46.75 104.915 46.5859 105.853 46.5859C106.806 46.5859 107.65 46.75 108.384 47.0781C109.126 47.3984 109.751 47.8477 110.259 48.4258C110.767 49.0039 111.154 49.6875 111.419 50.4766C111.685 51.2578 111.818 52.1133 111.818 53.043V53.2891C111.818 54.2109 111.685 55.0664 111.419 55.8555C111.154 56.6367 110.767 57.3203 110.259 57.9062C109.751 58.4844 109.13 58.9336 108.396 59.2539C107.661 59.5742 106.822 59.7344 105.876 59.7344C104.939 59.7344 104.099 59.5742 103.357 59.2539C102.615 58.9336 101.99 58.4844 101.482 57.9062C100.974 57.3203 100.587 56.6367 100.322 55.8555C100.056 55.0664 99.9231 54.2109 99.9231 53.2891ZM103.017 53.043V53.2891C103.017 53.8438 103.072 54.3633 103.181 54.8477C103.29 55.332 103.458 55.7578 103.685 56.125C103.911 56.4922 104.204 56.7812 104.564 56.9922C104.931 57.1953 105.368 57.2969 105.876 57.2969C106.376 57.2969 106.806 57.1953 107.165 56.9922C107.525 56.7812 107.818 56.4922 108.044 56.125C108.279 55.7578 108.45 55.332 108.56 54.8477C108.669 54.3633 108.724 53.8438 108.724 53.2891V53.043C108.724 52.4961 108.669 51.9844 108.56 51.5078C108.45 51.0234 108.279 50.5977 108.044 50.2305C107.818 49.8555 107.521 49.5625 107.154 49.3516C106.794 49.1328 106.361 49.0234 105.853 49.0234C105.353 49.0234 104.923 49.1328 104.564 49.3516C104.204 49.5625 103.911 49.8555 103.685 50.2305C103.458 50.5977 103.29 51.0234 103.181 51.5078C103.072 51.9844 103.017 52.4961 103.017 53.043ZM114.237 53.2891V53.043C114.237 52.1133 114.37 51.2578 114.635 50.4766C114.901 49.6875 115.288 49.0039 115.795 48.4258C116.303 47.8477 116.924 47.3984 117.659 47.0781C118.393 46.75 119.229 46.5859 120.167 46.5859C121.12 46.5859 121.963 46.75 122.698 47.0781C123.44 47.3984 124.065 47.8477 124.573 48.4258C125.081 49.0039 125.467 49.6875 125.733 50.4766C125.999 51.2578 126.131 52.1133 126.131 53.043V53.2891C126.131 54.2109 125.999 55.0664 125.733 55.8555C125.467 56.6367 125.081 57.3203 124.573 57.9062C124.065 58.4844 123.444 58.9336 122.71 59.2539C121.975 59.5742 121.135 59.7344 120.19 59.7344C119.253 59.7344 118.413 59.5742 117.67 59.2539C116.928 58.9336 116.303 58.4844 115.795 57.9062C115.288 57.3203 114.901 56.6367 114.635 55.8555C114.37 55.0664 114.237 54.2109 114.237 53.2891ZM117.331 53.043V53.2891C117.331 53.8438 117.385 54.3633 117.495 54.8477C117.604 55.332 117.772 55.7578 117.999 56.125C118.225 56.4922 118.518 56.7812 118.878 56.9922C119.245 57.1953 119.682 57.2969 120.19 57.2969C120.69 57.2969 121.12 57.1953 121.479 56.9922C121.838 56.7812 122.131 56.4922 122.358 56.125C122.592 55.7578 122.764 55.332 122.874 54.8477C122.983 54.3633 123.038 53.8438 123.038 53.2891V53.043C123.038 52.4961 122.983 51.9844 122.874 51.5078C122.764 51.0234 122.592 50.5977 122.358 50.2305C122.131 49.8555 121.835 49.5625 121.467 49.3516C121.108 49.1328 120.674 49.0234 120.167 49.0234C119.667 49.0234 119.237 49.1328 118.878 49.3516C118.518 49.5625 118.225 49.8555 117.999 50.2305C117.772 50.5977 117.604 51.0234 117.495 51.5078C117.385 51.9844 117.331 52.4961 117.331 53.043ZM137.164 46.8203H139.976V59.1133C139.976 60.2617 139.726 61.2344 139.226 62.0312C138.734 62.8359 138.043 63.4453 137.152 63.8594C136.262 64.2812 135.226 64.4922 134.047 64.4922C133.539 64.4922 132.988 64.4219 132.394 64.2812C131.808 64.1406 131.242 63.918 130.695 63.6133C130.156 63.3164 129.707 62.9297 129.347 62.4531L130.742 60.625C131.164 61.1172 131.64 61.4883 132.172 61.7383C132.703 61.9961 133.277 62.125 133.894 62.125C134.519 62.125 135.051 62.0078 135.488 61.7734C135.933 61.5469 136.273 61.2109 136.508 60.7656C136.75 60.3281 136.871 59.7891 136.871 59.1484V49.7148L137.164 46.8203ZM128.597 53.3125V53.0664C128.597 52.0977 128.715 51.2188 128.949 50.4297C129.183 49.6328 129.519 48.9492 129.957 48.3789C130.402 47.8086 130.937 47.3672 131.562 47.0547C132.195 46.7422 132.906 46.5859 133.695 46.5859C134.531 46.5859 135.234 46.7383 135.805 47.043C136.383 47.3477 136.859 47.7812 137.234 48.3438C137.617 48.9062 137.914 49.5742 138.125 50.3477C138.344 51.1133 138.512 51.957 138.629 52.8789V53.5469C138.519 54.4453 138.344 55.2695 138.101 56.0195C137.867 56.7695 137.555 57.4258 137.164 57.9883C136.773 58.543 136.289 58.9727 135.711 59.2773C135.133 59.582 134.453 59.7344 133.672 59.7344C132.89 59.7344 132.187 59.5742 131.562 59.2539C130.937 58.9336 130.402 58.4844 129.957 57.9062C129.519 57.3281 129.183 56.6484 128.949 55.8672C128.715 55.0859 128.597 54.2344 128.597 53.3125ZM131.691 53.0664V53.3125C131.691 53.8594 131.746 54.3711 131.855 54.8477C131.965 55.3242 132.133 55.7461 132.359 56.1133C132.586 56.4727 132.871 56.7539 133.215 56.957C133.558 57.1602 133.969 57.2617 134.445 57.2617C135.086 57.2617 135.609 57.1289 136.015 56.8633C136.43 56.5898 136.742 56.2188 136.953 55.75C137.172 55.2734 137.312 54.7383 137.375 54.1445V52.3047C137.336 51.8359 137.25 51.4023 137.117 51.0039C136.992 50.6055 136.816 50.2617 136.59 49.9727C136.363 49.6836 136.074 49.457 135.722 49.293C135.371 49.1289 134.953 49.0469 134.469 49.0469C134 49.0469 133.59 49.1523 133.238 49.3633C132.887 49.5664 132.597 49.8516 132.371 50.2188C132.144 50.5859 131.972 51.0117 131.855 51.4961C131.746 51.9805 131.691 52.5039 131.691 53.0664ZM146.767 41.5V59.5H143.661V41.5H146.767ZM156.135 59.7344C155.174 59.7344 154.311 59.5781 153.545 59.2656C152.78 58.9531 152.127 58.5195 151.588 57.9648C151.057 57.4023 150.647 56.75 150.358 56.0078C150.077 55.2578 149.936 54.4531 149.936 53.5938V53.125C149.936 52.1484 150.077 51.2617 150.358 50.4648C150.639 49.6602 151.037 48.9688 151.553 48.3906C152.069 47.8125 152.686 47.3672 153.405 47.0547C154.123 46.7422 154.916 46.5859 155.784 46.5859C156.682 46.5859 157.475 46.7383 158.162 47.043C158.85 47.3398 159.424 47.7617 159.885 48.3086C160.346 48.8555 160.694 49.5117 160.928 50.2773C161.162 51.0352 161.28 51.875 161.28 52.7969V54.0977H151.342V51.9648H158.233V51.7305C158.217 51.2383 158.123 50.7891 157.952 50.3828C157.78 49.9688 157.514 49.6406 157.155 49.3984C156.795 49.1484 156.33 49.0234 155.76 49.0234C155.299 49.0234 154.897 49.125 154.553 49.3281C154.217 49.5234 153.936 49.8047 153.709 50.1719C153.491 50.5312 153.327 50.9609 153.217 51.4609C153.108 51.9609 153.053 52.5156 153.053 53.125V53.5938C153.053 54.125 153.123 54.6172 153.264 55.0703C153.412 55.5234 153.627 55.918 153.909 56.2539C154.198 56.582 154.541 56.8398 154.94 57.0273C155.346 57.207 155.807 57.2969 156.323 57.2969C156.971 57.2969 157.557 57.1719 158.08 56.9219C158.612 56.6641 159.073 56.2852 159.463 55.7852L161.022 57.4023C160.756 57.793 160.397 58.168 159.944 58.5273C159.498 58.8867 158.959 59.1797 158.327 59.4062C157.694 59.625 156.963 59.7344 156.135 59.7344ZM177.567 53.2773H173.173V50.7461H177.567C178.286 50.7461 178.868 50.6289 179.313 50.3945C179.767 50.1523 180.099 49.8242 180.31 49.4102C180.52 48.9883 180.626 48.5078 180.626 47.9688C180.626 47.4453 180.52 46.957 180.31 46.5039C180.099 46.0508 179.767 45.6836 179.313 45.4023C178.868 45.1211 178.286 44.9805 177.567 44.9805H174.228V59.5H171.005V42.4375H177.567C178.895 42.4375 180.028 42.6758 180.966 43.1523C181.911 43.6211 182.63 44.2734 183.122 45.1094C183.622 45.9375 183.872 46.8828 183.872 47.9453C183.872 49.0469 183.622 49.9961 183.122 50.793C182.63 51.5898 181.911 52.2031 180.966 52.6328C180.028 53.0625 178.895 53.2773 177.567 53.2773ZM190.17 41.5V59.5H187.065V41.5H190.17ZM200.828 56.8047V50.957C200.828 50.5273 200.753 50.1562 200.605 49.8438C200.457 49.5312 200.23 49.2891 199.925 49.1172C199.621 48.9453 199.234 48.8594 198.765 48.8594C198.351 48.8594 197.988 48.9297 197.675 49.0703C197.371 49.2109 197.136 49.4102 196.972 49.668C196.808 49.918 196.726 50.207 196.726 50.5352H193.621C193.621 50.0117 193.746 49.5156 193.996 49.0469C194.246 48.5703 194.601 48.1484 195.062 47.7812C195.531 47.4062 196.089 47.1133 196.738 46.9023C197.394 46.6914 198.128 46.5859 198.941 46.5859C199.902 46.5859 200.757 46.75 201.507 47.0781C202.265 47.3984 202.859 47.8828 203.289 48.5312C203.726 49.1797 203.945 49.9961 203.945 50.9805V56.5117C203.945 57.1445 203.984 57.6875 204.062 58.1406C204.148 58.5859 204.273 58.9727 204.437 59.3008V59.5H201.285C201.136 59.1797 201.023 58.7734 200.945 58.2812C200.867 57.7812 200.828 57.2891 200.828 56.8047ZM201.261 51.7773L201.285 53.6172H199.328C198.843 53.6172 198.418 53.668 198.05 53.7695C197.683 53.8633 197.382 54.0039 197.148 54.1914C196.914 54.3711 196.738 54.5898 196.621 54.8477C196.503 55.0977 196.445 55.3828 196.445 55.7031C196.445 56.0156 196.515 56.2969 196.656 56.5469C196.804 56.7969 197.015 56.9961 197.289 57.1445C197.57 57.2852 197.898 57.3555 198.273 57.3555C198.82 57.3555 199.296 57.2461 199.703 57.0273C200.109 56.8008 200.425 56.5273 200.652 56.207C200.878 55.8867 201 55.582 201.015 55.293L201.906 56.6289C201.796 56.9492 201.632 57.2891 201.414 57.6484C201.195 58.0078 200.914 58.3438 200.57 58.6562C200.226 58.9688 199.812 59.2266 199.328 59.4297C198.843 59.6328 198.281 59.7344 197.64 59.7344C196.82 59.7344 196.085 59.5703 195.437 59.2422C194.789 58.9141 194.277 58.4648 193.902 57.8945C193.527 57.3242 193.339 56.6758 193.339 55.9492C193.339 55.2773 193.464 54.6836 193.714 54.168C193.964 53.6523 194.335 53.2188 194.828 52.8672C195.32 52.5078 195.929 52.2383 196.656 52.0586C197.39 51.8711 198.23 51.7773 199.175 51.7773H201.261ZM210.981 58.0938L214.38 46.8203H217.696L212.61 61.4219C212.493 61.7344 212.341 62.0742 212.153 62.4414C211.973 62.8086 211.731 63.1562 211.427 63.4844C211.122 63.8203 210.739 64.0938 210.278 64.3047C209.825 64.5156 209.274 64.6211 208.626 64.6211C208.345 64.6211 208.095 64.6016 207.876 64.5625C207.657 64.5234 207.427 64.4727 207.184 64.4102V62.0898C207.262 62.0977 207.352 62.1016 207.454 62.1016C207.563 62.1094 207.657 62.1133 207.735 62.1133C208.188 62.1133 208.563 62.0586 208.86 61.9492C209.157 61.8477 209.395 61.6797 209.575 61.4453C209.762 61.2188 209.919 60.9219 210.044 60.5547L210.981 58.0938ZM209.305 46.8203L212.177 56.1602L212.68 59.4297L210.548 59.8164L205.966 46.8203H209.305Z" fill="white"/>
<path d="M24.7812 20.4257V59.5722C24.7815 59.6571 24.8068 59.7401 24.8541 59.8107C24.9013 59.8813 24.9683 59.9363 25.0467 59.969C25.1251 60.0017 25.2114 60.0104 25.2948 59.9942C25.3782 59.9781 25.4549 59.9376 25.5154 59.878L45.8984 39.9999L25.5154 20.1199C25.4549 20.0603 25.3782 20.0198 25.2948 20.0036C25.2114 19.9874 25.1251 19.9962 25.0467 20.0289C24.9683 20.0615 24.9013 20.1166 24.8541 20.1872C24.8068 20.2578 24.7815 20.3408 24.7812 20.4257Z" fill="white"/>
<path d="M54.4449 31.832L28.8871 17.7512L28.8712 17.7422C28.4309 17.5032 28.0126 18.0988 28.3732 18.4455L48.4076 37.6023L54.4449 31.832Z" fill="white"/>
<path d="M28.3752 61.5544C28.0126 61.901 28.4309 62.4967 28.8732 62.2576L28.8891 62.2487L54.4449 48.1679L48.4076 42.3955L28.3752 61.5544Z" fill="white"/>
<path d="M64.7625 37.5097L57.6254 33.5791L50.9148 39.9999L57.6254 46.4178L64.7625 42.4902C66.7038 41.4174 66.7038 38.5825 64.7625 37.5097Z" fill="white"/>
</svg>
