<svg width="409" height="510" viewBox="0 0 409 510" fill="none" xmlns="http://www.w3.org/2000/svg">
<g style="mix-blend-mode:color-burn" opacity="0.1">
<path d="M254.872 501.025L101.702 459.868C92.8625 457.497 85.3256 451.709 80.7488 443.779C76.172 435.848 74.9303 426.424 77.2969 417.58L180.181 33.3639C181.354 28.9792 183.38 24.8695 186.143 21.2699C188.906 17.6704 192.351 14.6516 196.282 12.3866C200.212 10.1215 204.551 8.65451 209.05 8.06962C213.548 7.48473 218.118 7.7934 222.498 8.97798L375.649 50.165C384.488 52.5366 392.025 58.3243 396.602 66.2548C401.178 74.1854 402.42 83.6092 400.054 92.4531L297.194 476.581C296.027 480.971 294.005 485.087 291.245 488.694C288.484 492.3 285.039 495.325 281.108 497.596C277.176 499.867 272.835 501.339 268.333 501.927C263.831 502.516 259.256 502.209 254.872 501.025Z" fill="#3F3F3F"/>
<path d="M371.877 63.5915L342.171 55.621C340.209 55.1446 338.138 55.4638 336.411 56.509C334.684 57.5542 333.44 59.2407 332.95 61.2005L331.508 66.5915C331.271 67.5662 330.844 68.4844 330.252 69.2937C329.659 70.1029 328.913 70.7873 328.056 71.3076C327.199 71.8279 326.248 72.174 325.257 72.3259C324.266 72.4779 323.255 72.4328 322.281 72.1932L264.391 56.6607C263.428 56.3791 262.529 55.9104 261.747 55.2814C260.965 54.6525 260.315 53.8755 259.833 52.995C259.351 52.1145 259.047 51.1476 258.938 50.1497C258.83 49.1517 258.919 48.1422 259.2 47.1788L260.652 41.7546C261.214 39.809 260.984 37.7196 260.011 35.9429C259.038 34.1663 257.403 32.8467 255.461 32.2727L244.996 29.4649L219.012 22.493C215.945 21.6624 212.746 21.4452 209.596 21.8539C206.446 22.2625 203.408 23.2889 200.655 24.8743C197.903 26.4597 195.49 28.573 193.555 31.0932C191.621 33.6133 190.202 36.4908 189.38 39.5608L88.9447 414.583C87.2881 420.774 88.1573 427.37 91.3611 432.922C94.5648 438.473 99.8407 442.524 106.028 444.184L258.891 485.294C261.954 486.116 265.15 486.326 268.294 485.913C271.438 485.499 274.47 484.47 277.217 482.884C279.963 481.297 282.37 479.185 284.3 476.668C286.231 474.15 287.646 471.277 288.466 468.211L388.905 93.1783C390.559 86.9972 389.695 80.411 386.503 74.8644C383.311 69.3178 378.051 65.2638 371.877 63.5915Z" fill="#4E4E4E"/>
<path d="M365.961 94.6269C365.935 94.7268 362.04 93.8013 357.278 92.5597C352.515 91.3181 348.648 90.2452 348.675 90.1452C348.702 90.0452 352.588 90.9567 357.362 92.2013C362.135 93.4458 365.988 94.5269 365.961 94.6269Z" fill="#3F3F3F"/>
<path d="M364.812 99.049C364.785 99.149 360.901 98.2264 356.125 96.9929C351.348 95.7594 347.495 94.6784 347.525 94.5673C347.555 94.4562 351.447 95.3929 356.223 96.6264C360.999 97.8598 364.838 98.949 364.812 99.049Z" fill="#3F3F3F"/>
<path d="M363.674 103.474C363.648 103.574 359.75 102.66 354.977 101.415C350.203 100.17 346.358 99.1035 346.377 98.9894C346.395 98.8754 350.298 99.815 355.075 101.048C359.851 102.282 363.701 103.374 363.674 103.474Z" fill="#3F3F3F"/>
<path d="M200.028 64.204L200.483 64.3262L201.738 64.663L206.411 65.7977L206.245 65.8842C206.519 64.8616 206.819 63.7391 207.082 62.5349C207.248 61.9125 207.406 61.3234 207.599 60.601C207.772 60.2472 208.054 59.958 208.402 59.7752C208.751 59.5924 209.149 59.5256 209.538 59.5845C210.293 59.7872 210.949 59.963 211.76 60.1806C212.166 60.3632 212.494 60.6848 212.685 61.0875C212.877 61.4902 212.918 61.9478 212.803 62.3783C212.38 63.9566 211.943 65.5904 211.544 67.3059L211.389 67.0381L217.243 68.6088L216.961 68.7715C217.592 66.4152 218.246 63.97 218.849 61.4513C219.015 60.8289 219.179 60.2176 219.345 59.5952C219.394 59.3118 219.379 59.0211 219.3 58.7444C219.222 58.4677 219.082 58.2121 218.892 57.9965L217.015 54.7768L215.19 51.6781L214.316 50.1811C214.012 49.6706 213.8 49.173 213.349 48.9448C213.137 48.8231 212.899 48.7505 212.655 48.7323C212.411 48.7141 212.165 48.7509 211.937 48.8398C211.501 49.0445 211.011 49.3655 210.529 49.6532L207.85 51.2098C206.163 52.2222 204.449 53.1085 203.131 54.0295C202.647 54.6507 202.341 55.3925 202.248 56.1749C202.054 56.8974 201.87 57.5865 201.697 58.2311C201.358 59.4982 201.061 60.6096 200.805 61.5655C200.549 62.5213 200.392 63.1104 200.237 63.6884C200.185 63.948 200.116 64.2041 200.032 64.4553C200.081 64.2186 200.144 63.9848 200.219 63.755C200.371 63.1882 200.558 62.488 200.781 61.6544C201.004 60.8208 201.337 59.576 201.596 58.2992C201.774 57.6323 201.962 56.9321 202.161 56.1874C202.262 55.8095 202.363 55.4316 202.458 55.076C202.57 54.6464 202.794 54.2543 203.108 53.9398C204.572 52.9152 206.154 52.0769 207.864 51.023L210.527 49.4382C211.003 49.1728 211.401 48.8865 211.935 48.6248C212.223 48.5068 212.533 48.4555 212.844 48.4748C213.154 48.4941 213.456 48.5835 213.727 48.7363C214.225 49.0878 214.619 49.5682 214.867 50.1262L215.751 51.6263L217.577 54.725L219.471 57.9254C219.653 58.2058 219.809 58.5028 219.936 58.8125C220.049 59.1591 220.065 59.5302 219.982 59.8852C219.816 60.5076 219.649 61.13 219.483 61.7524C218.813 64.2532 218.159 66.6984 217.584 69.0696L217.525 69.2919L217.303 69.2323L211.449 67.6615L211.038 67.5513L211.094 67.3401C211.549 65.6396 211.986 64.0057 212.409 62.4275C212.507 62.0903 212.48 61.729 212.334 61.4098C212.187 61.0905 211.931 60.8346 211.612 60.6889C210.934 60.5071 210.134 60.2925 209.479 60.1166C209.172 60.0663 208.856 60.114 208.578 60.253C208.299 60.3921 208.071 60.6154 207.926 60.8913C207.769 61.4803 207.587 62.1583 207.427 62.7585C207.103 63.97 206.799 65.1037 206.535 66.0929L206.499 66.2262L206.366 66.1905L201.645 64.9238L200.412 64.5929C200.271 64.4769 200.142 64.3466 200.028 64.204Z" fill="#3F3F3F"/>
<path d="M222.63 384.406C222.076 384.347 221.527 384.24 220.99 384.085L216.591 383C212.889 382.067 207.771 380.73 202.129 379.217C196.487 377.704 191.378 376.333 187.715 375.256L183.363 373.993C182.821 373.858 182.292 373.676 181.782 373.45C182.338 373.503 182.887 373.61 183.422 373.771L187.825 374.845C191.512 375.834 196.642 377.126 202.284 378.639C207.926 380.152 213.023 381.52 216.701 382.589L221.05 383.863C221.594 383.991 222.123 384.172 222.63 384.406Z" fill="#B2ABFF" fill-opacity="0.4"/>
<path d="M284.101 411.663C284.056 411.829 260.512 405.646 231.513 397.868C202.515 390.091 179.036 383.663 179.081 383.496C179.125 383.33 202.67 389.513 231.668 397.291C260.666 405.068 284.142 411.507 284.101 411.663Z" fill="#B2ABFF" fill-opacity="0.4"/>
<path d="M248.737 412.365C248.692 412.532 232.5 408.32 212.565 402.973C192.629 397.627 176.491 393.168 176.536 393.001C176.581 392.834 192.773 397.046 212.719 402.396C232.666 407.745 248.791 412.165 248.737 412.365Z" fill="#B2ABFF" fill-opacity="0.4"/>
<path d="M278.715 440.099L276.327 435.944L272.386 438.21L274.896 428.829L281.262 430.537L278.715 440.099ZM276.437 435.533L276.51 435.66L278.614 439.321L280.904 430.763L275.116 429.21L272.871 437.602L276.437 435.533Z" fill="#3F3F3F"/>
<path d="M192.159 415.575L191.185 414.765C190.438 414.9 189.668 414.75 189.025 414.346C188.383 413.942 187.913 413.313 187.71 412.582C187.506 411.85 187.582 411.069 187.923 410.391C188.265 409.713 188.847 409.187 189.555 408.916C190.264 408.644 191.048 408.648 191.755 408.924C192.462 409.201 193.04 409.732 193.376 410.413C193.713 411.093 193.783 411.875 193.574 412.605C193.365 413.335 192.892 413.96 192.246 414.359L192.159 415.575ZM191.153 408.61C190.38 408.459 189.578 408.609 188.911 409.03C188.245 409.451 187.764 410.111 187.568 410.874C187.371 411.638 187.473 412.448 187.853 413.139C188.233 413.83 188.862 414.35 189.612 414.593C190.128 414.694 190.662 414.67 191.167 414.522L191.921 415.129L191.944 414.242C192.45 413.919 192.851 413.456 193.097 412.908C193.344 412.36 193.425 411.752 193.331 411.159C193.237 410.566 192.971 410.013 192.568 409.568C192.164 409.123 191.639 408.806 191.058 408.656L191.153 408.61Z" fill="#3F3F3F"/>
<path d="M199.684 417.08L199.236 413.505L197.354 410.618L203.352 412.227L199.684 417.08ZM197.858 410.956L199.451 413.456L199.828 416.499L202.98 412.282L197.858 410.956Z" fill="#3F3F3F"/>
<path d="M203.245 412.12L199.396 413.375L199.468 413.594L203.316 412.339L203.245 412.12Z" fill="#3F3F3F"/>
<path d="M184.127 407.738C184.153 407.286 184.019 406.838 183.748 406.475C183.476 406.112 183.086 405.857 182.644 405.754C182.203 405.651 181.74 405.708 181.337 405.914C180.933 406.12 180.616 406.462 180.44 406.88C180.498 406.425 180.391 405.964 180.138 405.581C179.886 405.198 179.506 404.918 179.065 404.791C178.625 404.664 178.153 404.699 177.737 404.89C177.32 405.08 176.985 405.414 176.792 405.83C176.536 406.447 176.525 407.139 176.763 407.764C177.001 408.379 177.317 408.96 177.705 409.493C178.225 410.264 178.696 410.951 179.196 411.752C180.023 411.33 180.73 410.913 181.557 410.491C182.155 410.214 182.714 409.859 183.22 409.437C183.732 409.011 184.058 408.401 184.127 407.738Z" fill="#B2ABFF"/>
<path d="M283.188 450.196C283.188 450.196 283.286 449.83 283.468 449.152C283.649 448.474 283.926 447.44 284.283 446.107C284.999 443.429 286.067 439.439 287.367 434.357C290.1 424.145 294.02 409.273 298.963 390.625L299.101 390.865L121.465 343.313L121.831 343.101C116.294 363.793 110.926 383.851 105.901 402.63L105.697 402.278L232.76 436.5L269.836 446.531L279.833 449.213L282.409 449.904L283.298 450.142L282.443 449.913L279.899 449.23L270.003 446.575L232.941 436.715L105.621 402.698L105.332 402.621L105.368 402.487C110.393 383.707 115.761 363.65 121.298 342.958L121.375 342.669L121.686 342.753L299.269 390.505L299.458 390.556L299.407 390.744C294.408 409.424 290.343 424.305 287.579 434.545C286.217 439.635 285.167 443.557 284.451 446.235C284.1 447.547 283.832 448.547 283.648 449.236C283.463 449.925 283.188 450.196 283.188 450.196Z" fill="#3F3F3F"/>
<path d="M126.237 354.953L115.477 394.258L164.607 407.744L175.367 368.439L126.237 354.953Z" fill="#3F3F3F"/>
<path d="M175.361 368.412L174.417 368.158L171.729 367.437L161.632 364.728L126.108 355.113L126.443 354.929C123.25 366.639 119.591 380.047 115.724 394.233C115.759 394.326 115.325 393.543 115.512 393.867L118.9 394.776L122.233 395.67L128.897 397.458L141.65 400.964L164.643 407.312L164.344 407.493C167.62 395.698 170.343 385.922 172.264 379.052C173.18 375.629 173.978 372.96 174.502 371.088C174.743 370.188 174.931 369.487 175.067 368.976C175.204 368.465 175.267 368.232 175.267 368.232C175.267 368.232 175.207 368.454 175.082 368.921C174.957 369.387 174.764 370.11 174.526 370.999C174.03 372.855 173.313 375.534 172.403 378.934C170.55 385.859 167.912 395.717 164.733 407.598L164.671 407.831L164.426 407.766L141.413 401.495L128.657 398.001L121.992 396.213L118.66 395.319L115.272 394.41L115.052 394.029C118.956 379.841 122.626 366.436 125.838 354.743L125.91 354.476L126.176 354.548L161.746 364.437L171.707 367.253L174.34 367.959L175.006 368.138L175.361 368.412Z" fill="#3F3F3F"/>
<path d="M127.255 357.894L117.85 392.249L163.53 404.789L172.936 370.433L127.255 357.894Z" fill="#3F3F3F"/>
<path d="M117.835 392.216L139.639 375.244L145.862 391.314L154.518 386.014L163.514 404.758L117.835 392.216Z" fill="#3F3F3F"/>
<path d="M154.436 376.494C154.243 377.208 153.842 377.849 153.284 378.335C152.726 378.821 152.037 379.13 151.303 379.224C150.57 379.318 149.825 379.191 149.163 378.861C148.501 378.531 147.951 378.011 147.584 377.369C147.217 376.726 147.049 375.989 147.101 375.25C147.153 374.512 147.423 373.806 147.876 373.221C148.329 372.636 148.946 372.2 149.648 371.966C150.349 371.732 151.105 371.712 151.818 371.908C152.291 372.037 152.734 372.257 153.122 372.558C153.51 372.858 153.835 373.232 154.078 373.658C154.321 374.084 154.478 374.554 154.54 375.04C154.601 375.527 154.566 376.021 154.436 376.494Z" fill="#3F3F3F"/>
<path d="M277.494 122.061C277.31 122.044 277.13 121.995 276.961 121.918L275.447 121.572L269.867 120.182C265.191 118.928 258.74 117.281 251.566 115.357C244.391 113.433 237.961 111.708 233.306 110.376L227.779 108.787L226.284 108.326C226.103 108.311 225.926 108.263 225.762 108.186C225.944 108.19 226.124 108.218 226.299 108.271L227.809 108.676L233.386 110.076C238.076 111.275 244.516 112.966 251.69 114.891C258.865 116.815 265.295 118.539 269.947 119.882L275.477 121.461L276.976 121.863C277.157 121.906 277.331 121.973 277.494 122.061Z" fill="#3F3F3F"/>
<path d="M291.912 359.189L288.371 353.021L282.505 356.391L286.234 342.452L295.699 344.992L291.912 359.189ZM288.532 352.421L288.638 352.604L291.766 358.042L295.169 345.326L286.549 343.013L283.212 355.484L288.532 352.421Z" fill="#3F3F3F"/>
<path d="M169.183 324.7L167.232 323.093C165.777 323.348 164.279 323.05 163.032 322.259C161.784 321.468 160.876 320.239 160.485 318.814C160.093 317.389 160.248 315.869 160.917 314.551C161.586 313.234 162.722 312.214 164.104 311.691C165.485 311.168 167.011 311.179 168.385 311.722C169.759 312.265 170.881 313.302 171.532 314.629C172.183 315.955 172.317 317.477 171.906 318.897C171.495 320.317 170.57 321.532 169.312 322.305L169.183 324.7ZM167.171 310.997C166.399 310.797 165.595 310.751 164.805 310.862C164.016 310.972 163.256 311.238 162.569 311.642C161.882 312.047 161.281 312.583 160.801 313.22C160.321 313.857 159.972 314.583 159.772 315.355C159.572 316.128 159.527 316.932 159.638 317.722C159.749 318.512 160.014 319.273 160.419 319.961C160.823 320.648 161.359 321.25 161.996 321.73C162.633 322.21 163.358 322.561 164.13 322.761C165.145 322.969 166.196 322.923 167.189 322.629L167.304 322.6L168.771 323.792L168.834 322.045L168.932 321.988C169.929 321.353 170.719 320.439 171.203 319.36C171.688 318.281 171.846 317.084 171.659 315.915C171.472 314.747 170.947 313.659 170.149 312.785C169.352 311.911 168.316 311.29 167.171 310.997Z" fill="#3F3F3F"/>
<path d="M184.012 327.641L183.111 320.597L179.435 314.846L191.278 317.928L184.012 327.641ZM180.422 315.563L183.556 320.49L184.332 326.488L190.529 318.192L180.422 315.563Z" fill="#3F3F3F"/>
<path d="M191.047 317.844L183.482 320.311L183.621 320.738L191.186 318.271L191.047 317.844Z" fill="#3F3F3F"/>
<path d="M153.365 309.345C153.425 308.449 153.165 307.561 152.631 306.839C152.097 306.117 151.324 305.608 150.45 305.404C149.576 305.2 148.659 305.313 147.861 305.723C147.063 306.133 146.436 306.814 146.094 307.644C146.196 306.753 145.978 305.855 145.48 305.11C144.983 304.364 144.237 303.82 143.375 303.573C142.514 303.326 141.593 303.393 140.777 303.762C139.961 304.131 139.302 304.778 138.918 305.587C138.414 306.799 138.396 308.159 138.866 309.385C139.34 310.598 139.965 311.746 140.725 312.803C141.75 314.269 142.663 315.705 143.667 317.249C145.27 316.416 146.678 315.603 148.296 314.763C149.473 314.212 150.575 313.515 151.578 312.689C152.578 311.844 153.218 310.647 153.365 309.345Z" fill="#B2ABFF"/>
<path d="M205.233 111.282C209.663 112.47 214.215 109.841 215.4 105.409C216.586 100.977 213.957 96.4208 209.528 95.2323C205.098 94.0439 200.546 96.6732 199.361 101.105C198.175 105.537 200.804 110.093 205.233 111.282Z" fill="#3F3F3F"/>
<path d="M301.21 312.357C301.166 312.524 267.523 303.644 226.075 292.527C184.627 281.411 151.044 272.261 151.089 272.095C151.133 271.928 184.773 280.819 226.232 291.939C267.692 303.058 301.252 312.202 301.21 312.357Z" fill="#B2ABFF" fill-opacity="0.4"/>
<path d="M304.558 299.851C304.516 300.007 270.873 291.127 229.425 280.01C187.977 268.894 154.395 259.744 154.436 259.589C154.478 259.433 188.121 268.313 229.58 279.433C271.039 290.552 304.6 299.696 304.558 299.851Z" fill="#B2ABFF" fill-opacity="0.4"/>
<path d="M229.4 306.693C229.358 306.848 211.031 302.076 188.474 296.026C165.918 289.976 147.651 284.934 147.692 284.779C147.734 284.623 166.061 289.396 188.629 295.448C211.197 301.501 229.442 306.537 229.4 306.693Z" fill="#B2ABFF" fill-opacity="0.4"/>
<path d="M182.835 440.311C182.655 440.94 182.293 441.501 181.795 441.924C181.297 442.347 180.685 442.613 180.036 442.689C179.387 442.765 178.73 442.646 178.147 442.349C177.565 442.052 177.084 441.589 176.764 441.019C176.444 440.448 176.299 439.796 176.349 439.144C176.399 438.492 176.64 437.869 177.043 437.354C177.445 436.839 177.991 436.455 178.612 436.25C179.232 436.045 179.899 436.028 180.529 436.202C180.951 436.32 181.345 436.52 181.689 436.79C182.033 437.06 182.32 437.396 182.535 437.778C182.749 438.16 182.886 438.58 182.937 439.015C182.989 439.449 182.954 439.89 182.835 440.311Z" fill="#3F3F3F"/>
<path d="M192.662 442.995C192.481 443.619 192.119 444.177 191.622 444.596C191.126 445.016 190.516 445.28 189.87 445.354C189.224 445.428 188.571 445.309 187.991 445.013C187.412 444.717 186.934 444.256 186.615 443.689C186.297 443.121 186.153 442.472 186.202 441.823C186.25 441.175 186.49 440.555 186.889 440.042C187.289 439.529 187.831 439.145 188.448 438.939C189.065 438.734 189.729 438.715 190.357 438.886C190.779 439.002 191.174 439.201 191.519 439.471C191.864 439.741 192.152 440.077 192.366 440.459C192.58 440.841 192.717 441.262 192.768 441.697C192.819 442.132 192.783 442.573 192.662 442.995Z" fill="#3F3F3F"/>
<path d="M202.568 445.699C202.387 446.324 202.025 446.881 201.529 447.301C201.032 447.72 200.422 447.984 199.776 448.058C199.13 448.132 198.477 448.014 197.898 447.717C197.319 447.421 196.84 446.96 196.521 446.393C196.203 445.825 196.059 445.177 196.108 444.528C196.157 443.879 196.396 443.259 196.796 442.746C197.195 442.233 197.738 441.849 198.355 441.644C198.971 441.438 199.635 441.419 200.263 441.59C200.684 441.708 201.078 441.907 201.422 442.178C201.766 442.448 202.054 442.784 202.268 443.166C202.482 443.547 202.619 443.968 202.671 444.402C202.722 444.837 202.687 445.278 202.568 445.699Z" fill="#3F3F3F"/>
<path d="M361.572 161.65L183.932 113.987L154.847 222.678L332.488 270.342L361.572 161.65Z" fill="#3F3F3F"/>
<path d="M171.241 227.118L240.375 172.605L260.534 223.704L288.018 206.637L317.045 266.19L171.241 227.118Z" fill="#3F3F3F"/>
<path d="M287.561 176.281C286.955 178.555 285.689 180.598 283.922 182.151C282.155 183.704 279.967 184.697 277.636 185.006C275.304 185.314 272.933 184.924 270.822 183.884C268.712 182.843 266.957 181.2 265.78 179.162C264.602 177.124 264.055 174.783 264.207 172.434C264.36 170.085 265.205 167.835 266.636 165.967C268.067 164.1 270.02 162.699 272.247 161.943C274.474 161.186 276.876 161.108 279.148 161.718C282.192 162.535 284.788 164.527 286.366 167.258C287.943 169.989 288.373 173.234 287.561 176.281Z" fill="#3F3F3F"/>
<path d="M304.978 371.261C305.599 368.938 331.765 270.708 370.511 125.284L370.706 125.622L193.07 77.9591L193.436 77.7476C168.828 169.712 146.055 254.819 127.636 323.654L127.454 323.355L305.05 371.257L127.327 323.833L127.093 323.77L127.159 323.526C145.578 254.691 168.351 169.584 192.903 77.6045L192.98 77.3156L193.292 77.399L370.928 125.062L371.194 125.133L371.126 125.389C351.599 198.143 335.098 259.63 323.472 302.947C317.684 324.577 313.057 341.646 309.917 353.335C308.359 359.16 307.16 363.639 306.348 366.673C305.947 368.174 305.641 369.319 305.432 370.097C305.224 370.875 304.978 371.261 304.978 371.261Z" fill="#3F3F3F"/>
<path d="M213.265 379.385L220.734 367.225C222.19 364.542 224.005 361.407 226.259 357.878C228.298 354.709 232.095 351.82 235.374 349.888C240.476 346.885 242.393 347.375 245.661 345.929C245.947 345.839 246.287 345.68 246.553 345.621C247.135 345.48 247.683 345.222 248.161 344.861C251.155 342.972 249.966 338.471 245.144 337.583C241.526 336.91 235.456 336.365 223.434 343.563C223.27 343.686 223.115 343.776 222.965 343.89C216.3 348.999 216.57 329.392 217.555 322.329C217.674 321.226 217.545 320.11 217.175 319.063C216.805 318.017 216.205 317.067 215.418 316.284C214.632 315.501 213.68 314.905 212.632 314.54C211.584 314.175 210.468 314.05 209.366 314.176L183.543 318.755C181.524 317.532 179.168 316.984 176.818 317.189C175.061 317.322 173.417 318.105 172.207 319.387C170.996 320.668 170.307 322.354 170.273 324.117L169.656 363.753L117.959 447.45L176.891 463.262L213.265 379.385Z" fill="#FFBF9D"/>
<path d="M280.962 307.929L253.187 338.762L244.757 333.784L189.022 358.771C186.745 359.799 184.156 359.897 181.808 359.044C179.459 358.192 177.535 356.455 176.445 354.205L164.427 329.265C164.427 329.265 203.637 323.549 213.489 312.756C223.342 301.963 216.598 297.092 216.598 297.092L238.169 282.724L280.962 307.929Z" fill="#B2ABFF"/>
<path d="M276.892 228.623C276.892 228.623 251.813 215.568 223.939 169.398C196.065 123.228 191.287 70.5211 186.672 69.5688C182.058 68.6165 164.454 53.8749 104.097 126.653C43.7403 199.43 53.6212 222.702 61.2154 224.62C68.8095 226.539 124.218 225.956 155.43 238.25C186.642 250.543 223.525 278.439 223.525 278.439L276.892 228.623Z" fill="#B2ABFF"/>
<path d="M321.395 289.061L307.667 303.925L301.509 310.611C297.448 315.01 291.854 317.682 285.881 318.074C279.908 318.466 274.011 316.549 269.407 312.719L217.59 277.456L271.255 210.375L320.204 256.137C324.704 260.359 327.355 266.189 327.578 272.356C327.801 278.523 325.579 284.528 321.395 289.061Z" fill="#B2ABFF"/>
<g opacity="0.4">
<path d="M321.401 289.064L307.674 303.925L301.515 310.611C297.455 315.009 291.861 317.68 285.887 318.072C279.914 318.463 274.017 316.546 269.412 312.715L217.588 277.449L271.25 210.378L320.207 256.142C324.707 260.364 327.358 266.194 327.582 272.361C327.806 278.528 325.584 284.532 321.401 289.064Z" fill="black"/>
</g>
<path d="M106.745 128.988C74.4147 168.514 55.2352 206.328 63.9075 213.432C72.5797 220.536 105.839 194.268 138.173 154.73C170.507 115.192 189.68 77.401 181.011 70.2858C172.342 63.1706 139.076 89.4609 106.745 128.988Z" fill="#B2ABFF"/>
<g opacity="0.5">
<path d="M106.741 128.986C74.411 168.509 55.2329 206.32 63.9067 213.425C72.5806 220.53 105.841 194.265 138.175 154.731C170.508 115.197 189.68 77.4084 181.009 70.2926C172.339 63.1767 139.072 89.4634 106.741 128.986Z" fill="black"/>
</g>
<path d="M319.601 315.382L305.408 306.356L319.871 290.7L329.557 301.042L319.601 315.382Z" fill="#B2ABFF"/>
<g opacity="0.6">
<path d="M319.873 290.701L305.409 306.356L308.33 308.212L321.033 291.93L319.873 290.701Z" fill="black"/>
</g>
<path d="M308.069 292.035C307.713 292.476 300.786 287.401 292.593 280.736C284.401 274.071 278.083 268.231 278.427 267.788C278.772 267.344 285.708 272.433 293.9 279.145C302.092 285.857 308.436 291.598 308.069 292.035Z" fill="#B2ABFF"/>
<path d="M315.752 282.455C315.376 282.879 309.167 278.056 301.887 271.672C294.608 265.288 289.012 259.772 289.39 259.338C289.768 258.903 295.964 263.734 303.243 270.118C310.523 276.502 316.13 282.021 315.752 282.455Z" fill="#B2ABFF"/>
<path d="M299.021 301.821C298.872 302.067 297.141 301.15 294.464 299.407C293.12 298.558 291.531 297.513 289.785 296.341C288.039 295.17 286.352 293.598 284.49 292.062C277.068 285.854 271.621 280.272 271.957 279.861C272.293 279.451 278.451 284.331 285.782 290.479C287.637 292.001 289.312 293.57 290.951 294.832C292.589 296.093 294.063 297.215 295.285 298.21C297.719 300.233 299.17 301.575 299.021 301.821Z" fill="#B2ABFF"/>
<path d="M150.797 130.099C150.797 130.099 131.473 109.498 110.414 137.431C89.355 165.363 112.35 177.048 112.35 177.048C127.312 163.289 140.256 147.483 150.797 130.099Z" fill="#B2ABFF"/>
<g opacity="0.5">
<path d="M185.441 99.369C185.585 99.4077 184.675 101.475 182.938 105.118C181.201 108.762 178.651 114.022 175.336 120.447L169.179 130.553C168.068 132.359 166.92 134.231 165.735 136.169L163.937 139.105C163.296 140.124 162.569 141.014 161.881 141.984L153.032 154.096C152.261 155.152 151.479 156.205 150.706 157.272C149.932 158.339 148.973 159.297 148.136 160.335L142.788 166.524L137.433 172.699C136.546 173.652 135.691 174.757 134.766 175.676C133.842 176.596 132.872 177.55 131.956 178.436L121.228 188.936C120.366 189.753 119.585 190.627 118.668 191.382L116.017 193.589L110.937 197.801L101.782 205.315C95.901 209.491 91.0571 212.73 87.7136 214.989C86.0318 216.247 84.2476 217.362 82.3799 218.323C83.8886 216.868 85.5177 215.544 87.2497 214.364C90.5578 211.881 95.213 208.413 100.928 204.145L109.823 196.489L114.795 192.237C115.655 191.514 116.522 190.77 117.402 190.017C118.282 189.265 119.03 188.381 119.906 187.556L130.542 177.044L133.316 174.286C134.269 173.351 135.022 172.362 135.954 171.325L141.265 165.186C143.015 163.094 144.831 161.068 146.586 159.049C147.417 158.081 148.376 157.075 149.136 156.017L151.465 152.877L160.344 140.964C161.052 139.963 161.784 139.099 162.425 138.128C163.066 137.156 163.645 136.192 164.247 135.233L167.75 129.705L174.061 119.783L182.198 104.813C183.122 102.909 184.207 101.088 185.441 99.369Z" fill="black"/>
</g>
<g opacity="0.4">
<path d="M170.624 328.262C171.717 332.676 172.82 337.189 175.13 341.061C177.44 344.932 181.128 348.233 185.691 348.981C190.253 349.729 195.277 347.194 196.493 342.828C198.162 344.955 201.599 344.972 203.858 343.47C206.117 341.968 207.412 339.397 208.311 336.84C210.706 339.281 215.014 339.02 217.636 336.829C218.885 335.656 219.859 334.223 220.491 332.63C221.123 331.037 221.396 329.325 221.292 327.614C221.045 324.199 220.295 320.839 219.066 317.643C221.24 318.417 223.487 319.186 225.707 318.722C227.926 318.258 229.999 316.027 229.31 313.841C228.808 312.589 227.869 311.562 226.666 310.951C223.531 308.919 221.351 307.452 217.664 306.904C216.842 306.683 216.576 316.712 190.727 323.568C175.394 327.612 170.624 328.262 170.624 328.262Z" fill="black"/>
</g>
<path d="M217.442 355.364C217.416 355.464 215.993 354.773 213.554 354.19C210.388 353.421 207.094 353.334 203.892 353.934C200.689 354.535 197.651 355.81 194.979 357.675C192.919 359.099 191.904 360.268 191.775 360.174C191.96 359.852 192.194 359.561 192.469 359.312C193.172 358.593 193.927 357.928 194.728 357.322C197.403 355.322 200.501 353.963 203.784 353.349C207.067 352.734 210.447 352.882 213.664 353.779C214.631 354.045 215.573 354.393 216.481 354.82C216.831 354.943 217.156 355.127 217.442 355.364Z" fill="#EB996E" fill-opacity="0.8"/>
<path d="M173.691 322.643C176.373 327.079 177.813 331.575 180.667 336.081C181.963 338.133 183.882 341.864 185.996 342.86C188.111 343.856 189.746 343.973 191.234 342.061C192.445 340.516 191.752 337.769 191.221 336.102C189.825 331.665 188.306 328.089 187.294 324.661C186.808 323.053 187.985 323.059 188.212 323.811C189.463 326.077 191.652 328.308 192.675 330.714C194.091 333.965 193.514 337.634 199.393 337.997C200.171 338.076 200.957 337.973 201.688 337.695C204.219 336.647 205.099 333.846 204.783 331.379C204.456 329.452 203.83 327.588 202.928 325.854C204.589 329.17 206.406 332.743 210.118 334.001C211.15 334.417 212.285 334.501 213.367 334.243C214.449 333.985 215.425 333.397 216.158 332.56C217.947 330.324 217.016 327.442 215.934 325.031C214.025 320.749 211.721 316.653 209.053 312.798C208.054 311.368 206.589 310.331 204.909 309.863C202.954 309.339 200.371 309.027 198.808 310.418C197.956 311.063 197.243 311.874 196.714 312.803C196.185 313.732 195.851 314.76 195.731 315.822C195.731 315.822 191.507 312.033 186.882 313.567C184.006 314.619 181.596 316.657 180.081 319.318L173.691 322.643Z" fill="#FFBF9D"/>
<path d="M205.308 308.819C204.77 307.701 204.586 306.445 204.782 305.22C204.978 303.995 205.544 302.859 206.404 301.966C207.674 300.556 209.143 299.247 210.305 299.177C215.378 298.859 234.784 307.842 233.388 312.303C231.991 316.765 229.926 318.521 219.322 313.973C217.452 313.173 214.51 311.979 214.51 311.979L210.774 315.264L205.308 308.819Z" fill="#FFBF9D"/>
<path d="M203.887 328.719C202.396 323.596 199.447 319.017 195.4 315.542C196.125 315.867 196.786 316.319 197.353 316.876C200.264 319.39 202.39 322.69 203.477 326.381C203.757 327.128 203.896 327.921 203.887 328.719Z" fill="#EB996E" fill-opacity="0.8"/>
<path d="M211.025 315.752C210.901 315.814 209.849 314.364 208.316 312.75C207.68 312.058 207.004 311.404 206.293 310.789C205.737 310.331 205.336 310.14 205.371 310.054C205.406 309.968 205.884 310.048 206.528 310.447C207.351 310.979 208.101 311.617 208.758 312.344C210.329 313.993 211.202 315.668 211.025 315.752Z" fill="#EB996E" fill-opacity="0.8"/>
<path d="M215.57 312.467C214.205 312.266 212.905 311.754 211.769 310.971C210.925 310.443 210.195 309.754 209.621 308.941C209.194 308.315 209.065 307.863 209.135 307.822C210.018 308.801 211.011 309.674 212.093 310.426C213.296 311.029 214.458 311.71 215.57 312.467Z" fill="#EB996E" fill-opacity="0.8"/>
<path d="M189.464 330.843C188.96 329.919 188.554 328.943 188.254 327.934C187.536 325.54 186.421 323.285 184.957 321.26C183.397 319.32 181.163 318.04 178.702 317.676C177.675 317.588 176.642 317.635 175.628 317.816C175.628 317.816 175.891 317.636 176.42 317.48C177.174 317.261 177.962 317.181 178.745 317.247C180.042 317.379 181.3 317.769 182.445 318.393C183.59 319.018 184.6 319.864 185.415 320.882C186.932 322.955 188.034 325.302 188.661 327.793C189.014 328.785 189.283 329.806 189.464 330.843Z" fill="#EB996E" fill-opacity="0.8"/>
<path d="M192.968 380.038C190.073 379.886 187.191 379.539 184.343 378.999C181.458 378.656 178.6 378.112 175.791 377.371C178.69 377.525 181.575 377.873 184.428 378.414C187.308 378.762 190.161 379.305 192.968 380.038Z" fill="#EB996E" fill-opacity="0.8"/>
</g>
</svg>
