<svg width="715" height="654" viewBox="0 0 715 654" fill="none" xmlns="http://www.w3.org/2000/svg">
<g style="mix-blend-mode:color-burn" opacity="0.05">
<path d="M608.4 227.497L606.104 222.098L605.396 222.506C600.636 224.278 595.187 223.86 590.243 221.345C585.299 218.831 581.265 214.424 579.02 209.092C578.792 208.604 578.6 208.102 578.441 207.592L575.847 208.572L530.416 225.912L227.772 341.429L179.716 359.768C180.026 360.198 180.293 360.66 180.511 361.143C181.637 363.784 182.289 366.576 182.428 369.36C182.568 372.144 182.192 374.866 181.323 377.368C180.454 379.871 179.109 382.106 177.364 383.945C175.62 385.784 173.51 387.191 171.156 388.085L170.448 388.494L172.745 393.894C173.526 393.628 174.409 393.712 175.209 394.128C176.008 394.544 176.661 395.26 177.028 396.124C177.219 396.558 177.33 397.019 177.355 397.479C177.38 397.938 177.318 398.388 177.173 398.8C177.029 399.213 176.804 399.58 176.513 399.88C176.222 400.18 175.87 400.407 175.478 400.547L177.368 404.958C178.151 404.691 179.037 404.772 179.84 405.184C180.644 405.596 181.304 406.308 181.682 407.171C181.868 407.605 181.975 408.065 181.997 408.523C182.019 408.98 181.957 409.428 181.813 409.839C181.669 410.25 181.446 410.617 181.157 410.918C180.869 411.219 180.52 411.448 180.132 411.593L181.991 416.022C182.377 415.874 182.796 415.812 183.223 415.84C183.651 415.869 184.078 415.987 184.482 416.189C184.886 416.39 185.258 416.67 185.577 417.014C185.897 417.357 186.156 417.757 186.342 418.191C186.527 418.624 186.635 419.082 186.659 419.539C186.683 419.996 186.622 420.444 186.48 420.855C186.339 421.267 186.119 421.634 185.833 421.938C185.548 422.241 185.203 422.473 184.817 422.622L186.676 427.051C187.456 426.751 188.351 426.811 189.167 427.217C189.983 427.624 190.652 428.344 191.027 429.219C191.401 430.095 191.451 431.053 191.165 431.884C190.879 432.715 190.281 433.35 189.502 433.651L191.392 438.062C191.779 437.916 192.199 437.856 192.627 437.887C193.054 437.919 193.482 438.04 193.886 438.244C194.289 438.447 194.66 438.73 194.978 439.075C195.296 439.421 195.554 439.822 195.737 440.257C195.921 440.691 196.026 441.151 196.047 441.608C196.069 442.065 196.006 442.512 195.862 442.923C195.718 443.333 195.496 443.7 195.208 444.001C194.921 444.302 194.574 444.533 194.187 444.679L196.077 449.091C196.859 448.796 197.756 448.861 198.571 449.272C199.386 449.684 200.051 450.408 200.422 451.286C200.793 452.163 200.838 453.122 200.547 453.951C200.256 454.781 199.654 455.413 198.872 455.708L200.762 460.12C201.544 459.824 202.441 459.889 203.256 460.301C204.07 460.713 204.736 461.437 205.107 462.314C205.478 463.192 205.523 464.151 205.232 464.98C204.941 465.81 204.339 466.442 203.557 466.737L205.447 471.148C205.833 471 206.251 470.938 206.678 470.966C207.106 470.995 207.534 471.113 207.938 471.315C208.342 471.516 208.714 471.796 209.033 472.14C209.352 472.483 209.612 472.883 209.797 473.317C209.983 473.75 210.09 474.208 210.114 474.665C210.138 475.123 210.077 475.57 209.936 475.981C209.794 476.393 209.574 476.761 209.289 477.064C209.003 477.367 208.658 477.6 208.272 477.748L210.111 482.142C210.885 481.907 211.749 482.008 212.527 482.426C213.305 482.843 213.94 483.546 214.302 484.39C214.665 485.235 214.727 486.158 214.477 486.973C214.227 487.788 213.684 488.432 212.957 488.777L214.796 493.171C215.57 492.935 216.434 493.037 217.212 493.455C217.99 493.872 218.625 494.575 218.987 495.419C219.35 496.263 219.412 497.187 219.162 498.002C218.912 498.816 218.369 499.461 217.642 499.805L219.512 504.182C220.29 503.937 221.162 504.036 221.948 504.456C222.734 504.877 223.374 505.587 223.735 506.441C224.096 507.295 224.151 508.227 223.889 509.045C223.627 509.862 223.068 510.503 222.327 510.834L224.197 515.21C224.975 514.966 225.847 515.064 226.633 515.485C227.419 515.906 228.059 516.616 228.42 517.47C228.781 518.324 228.836 519.256 228.574 520.073C228.312 520.891 227.753 521.531 227.012 521.863L228.882 526.239C229.663 525.973 230.547 526.057 231.346 526.474C232.145 526.89 232.798 527.606 233.165 528.469C233.356 528.904 233.467 529.364 233.492 529.824C233.517 530.284 233.455 530.733 233.311 531.146C233.166 531.558 232.941 531.925 232.65 532.225C232.359 532.526 232.007 532.752 231.615 532.892L233.505 537.304C234.289 537.037 235.174 537.118 235.978 537.53C236.781 537.942 237.441 538.653 237.819 539.516C238.005 539.95 238.112 540.41 238.134 540.868C238.157 541.326 238.094 541.774 237.95 542.185C237.806 542.596 237.583 542.963 237.294 543.263C237.006 543.564 236.658 543.794 236.269 543.939L238.129 548.368C238.479 548.239 238.859 548.195 239.245 548.241C239.897 548.272 240.548 548.514 241.113 548.935C241.678 549.356 242.131 549.935 242.412 550.598C242.776 551.476 242.818 552.432 242.528 553.26C242.238 554.087 241.639 554.72 240.862 555.021L242.721 559.45C243.5 559.15 244.396 559.21 245.212 559.616C246.028 560.023 246.697 560.743 247.071 561.618C247.446 562.493 247.496 563.452 247.21 564.283C246.924 565.114 246.326 565.749 245.547 566.049L248.026 571.908L248.734 571.499C251.085 570.598 253.635 570.227 256.238 570.406C258.841 570.584 261.447 571.314 263.905 572.547C266.363 573.781 268.625 575.494 270.562 577.593C272.497 579.688 274.071 582.128 275.193 584.773C275.435 585.254 275.629 585.758 275.772 586.273L323.796 567.953L626.441 452.435L674.496 434.097C674.2 433.656 673.936 433.198 673.702 432.721C672.578 430.078 671.928 427.283 671.793 424.497C671.658 421.71 672.034 418.986 672.907 416.483C673.778 413.982 675.126 411.746 676.873 409.904C678.618 408.064 680.731 406.656 683.087 405.761L683.764 405.37L681.285 399.512C680.898 399.66 680.479 399.723 680.051 399.693C679.625 399.666 679.196 399.547 678.793 399.347C677.978 398.938 677.309 398.219 676.935 397.344C676.561 396.469 676.508 395.511 676.795 394.678C677.083 393.848 677.68 393.212 678.459 392.912L676.6 388.483C675.821 388.783 674.924 388.722 674.108 388.318C673.293 387.909 672.624 387.19 672.25 386.315C671.876 385.44 671.823 384.482 672.11 383.649C672.398 382.819 672.995 382.183 673.774 381.884L671.915 377.454C671.133 377.741 670.243 377.672 669.432 377.256C668.624 376.843 667.963 376.119 667.601 375.242C667.225 374.363 667.174 373.4 667.461 372.562C667.747 371.729 668.35 371.089 669.131 370.784L667.24 366.373C666.46 366.649 665.573 366.569 664.77 366.153C663.971 365.735 663.316 365.012 662.957 364.142C662.581 363.264 662.53 362.301 662.817 361.462C663.104 360.629 663.707 359.989 664.487 359.684L662.597 355.273C661.815 355.569 660.917 355.505 660.103 355.09C659.288 354.681 658.623 353.955 658.252 353.078C657.881 352.201 657.835 351.24 658.128 350.412C658.417 349.583 659.021 348.952 659.802 348.656L657.932 344.279C657.153 344.522 656.28 344.424 655.495 344.003C654.712 343.585 654.071 342.873 653.709 342.019C653.348 341.166 653.291 340.235 653.553 339.417C653.816 338.599 654.377 337.958 655.117 337.627L653.247 333.25C652.472 333.486 651.609 333.385 650.83 332.967C650.052 332.55 649.417 331.847 649.056 331.002C648.692 330.159 648.63 329.235 648.882 328.419C649.13 327.605 649.673 326.961 650.401 326.616L648.562 322.222C647.787 322.458 646.924 322.356 646.145 321.938C645.367 321.521 644.732 320.819 644.371 319.973C644.007 319.13 643.945 318.206 644.197 317.39C644.445 316.577 644.988 315.932 645.716 315.587L643.877 311.193C643.102 311.429 642.239 311.327 641.461 310.909C640.682 310.492 640.047 309.79 639.686 308.945C639.322 308.101 639.261 307.177 639.512 306.361C639.76 305.548 640.303 304.903 641.031 304.558L639.161 300.182C638.38 300.448 637.497 300.363 636.696 299.948C635.897 299.532 635.245 298.816 634.878 297.952C634.693 297.517 634.584 297.058 634.562 296.6C634.539 296.142 634.604 295.694 634.749 295.282C634.89 294.873 635.113 294.506 635.403 294.204C635.692 293.903 636.04 293.673 636.428 293.529L634.538 289.118C633.756 289.384 632.874 289.299 632.072 288.884C631.274 288.468 630.622 287.751 630.255 286.887C630.062 286.454 629.952 285.993 629.928 285.533C629.901 285.074 629.965 284.623 630.109 284.211C630.253 283.799 630.479 283.431 630.77 283.131C631.061 282.832 631.414 282.604 631.805 282.465L629.915 278.053C629.133 278.32 628.251 278.235 627.449 277.82C626.65 277.403 625.999 276.687 625.631 275.823C625.446 275.388 625.337 274.93 625.315 274.472C625.293 274.014 625.358 273.565 625.502 273.154C625.643 272.744 625.866 272.378 626.156 272.076C626.445 271.774 626.793 271.545 627.182 271.4L625.291 266.989C624.905 267.138 624.486 267.2 624.059 267.171C623.632 267.142 623.203 267.025 622.799 266.823C621.985 266.416 621.315 265.696 620.941 264.821C620.567 263.945 620.515 262.988 620.802 262.156C621.089 261.324 621.687 260.689 622.466 260.389L620.606 255.96C620.22 256.109 619.801 256.171 619.374 256.143C618.947 256.114 618.518 255.996 618.114 255.795C617.711 255.593 617.339 255.312 617.021 254.968C616.701 254.626 616.441 254.226 616.256 253.792C616.071 253.358 615.963 252.9 615.938 252.444C615.915 251.986 615.977 251.538 616.117 251.127C616.258 250.717 616.48 250.348 616.764 250.045C617.049 249.742 617.395 249.509 617.781 249.361L615.921 244.931C615.14 245.22 614.249 245.148 613.439 244.733C612.63 244.319 611.969 243.595 611.607 242.719C611.231 241.839 611.18 240.877 611.468 240.04C611.754 239.206 612.356 238.565 613.137 238.261L611.247 233.85C610.467 234.126 609.58 234.047 608.777 233.63C607.977 233.211 607.323 232.49 606.964 231.619C606.677 230.802 606.665 229.936 606.929 229.179C607.191 228.423 607.715 227.825 608.4 227.497ZM288.731 322.696C289.049 322.564 289.397 322.505 289.753 322.523C290.109 322.54 290.467 322.633 290.806 322.796C291.145 322.96 291.457 323.19 291.726 323.474C291.995 323.758 292.214 324.09 292.37 324.452C292.611 325.168 292.602 325.924 292.346 326.572C292.088 327.22 291.602 327.712 290.981 327.953C290.361 328.194 289.65 328.165 288.989 327.873C288.329 327.582 287.765 327.048 287.408 326.376C287.153 325.644 287.148 324.868 287.396 324.196C287.644 323.524 288.126 323.003 288.751 322.732L288.731 322.696ZM292.326 338.022C292.01 337.276 291.97 336.46 292.217 335.753C292.463 335.046 292.974 334.507 293.639 334.254C294.304 334.002 295.067 334.056 295.762 334.405C296.456 334.754 297.023 335.369 297.34 336.115L297.544 336.468C297.861 337.215 297.9 338.031 297.654 338.737C297.408 339.444 296.896 339.984 296.231 340.236C295.566 340.489 294.803 340.435 294.109 340.086C293.415 339.737 292.847 339.122 292.53 338.375L292.326 338.022ZM297.377 349.827C297.063 349.088 297.021 348.279 297.261 347.577C297.501 346.874 298.004 346.335 298.659 346.077C298.989 345.951 299.345 345.899 299.71 345.924C300.074 345.949 300.439 346.051 300.783 346.224C301.127 346.397 301.444 346.638 301.714 346.931C301.985 347.226 302.204 347.568 302.36 347.938L302.564 348.291C302.721 348.661 302.811 349.051 302.83 349.441C302.849 349.83 302.796 350.211 302.674 350.56C302.552 350.911 302.364 351.223 302.12 351.48C301.876 351.737 301.581 351.934 301.251 352.059C300.922 352.184 300.565 352.236 300.201 352.21C299.837 352.184 299.473 352.082 299.129 351.909C298.785 351.736 298.469 351.496 298.198 351.202C297.927 350.909 297.707 350.568 297.55 350.198L297.377 349.827ZM302.418 361.686C302.257 361.32 302.163 360.931 302.14 360.544C302.118 360.156 302.168 359.777 302.287 359.427C302.406 359.078 302.593 358.766 302.835 358.51C303.078 358.254 303.372 358.059 303.7 357.935C304.029 357.809 304.386 357.757 304.751 357.782C305.115 357.807 305.48 357.909 305.824 358.082C306.168 358.255 306.484 358.496 306.755 358.79C307.025 359.084 307.245 359.426 307.401 359.796L307.605 360.149C307.921 360.896 307.961 361.712 307.715 362.418C307.469 363.125 306.957 363.665 306.292 363.917C305.627 364.17 304.864 364.116 304.17 363.767C303.476 363.418 302.908 362.803 302.591 362.056L302.418 361.686ZM307.438 373.508C307.13 372.762 307.094 371.949 307.339 371.244C307.585 370.54 308.092 370 308.751 369.74C309.415 369.496 310.174 369.557 310.861 369.91C311.549 370.262 312.11 370.876 312.421 371.619L312.625 371.972C312.782 372.342 312.872 372.732 312.891 373.122C312.91 373.511 312.857 373.892 312.735 374.241C312.613 374.591 312.425 374.904 312.181 375.161C311.937 375.418 311.642 375.615 311.312 375.74C310.983 375.865 310.626 375.917 310.262 375.891C309.898 375.865 309.534 375.763 309.19 375.59C308.846 375.417 308.53 375.177 308.259 374.883C307.988 374.59 307.768 374.249 307.611 373.879L307.438 373.508ZM312.479 385.367C312.158 384.622 312.114 383.807 312.355 383.098C312.596 382.39 313.104 381.847 313.766 381.59C314.428 381.332 315.191 381.381 315.886 381.725C316.581 382.069 317.151 382.68 317.472 383.424L317.696 383.812C318.004 384.556 318.037 385.367 317.787 386.066C317.537 386.766 317.026 387.298 316.363 387.545C316.039 387.675 315.686 387.73 315.325 387.707C314.964 387.684 314.603 387.584 314.262 387.412C313.921 387.24 313.609 387 313.343 386.706C313.077 386.412 312.863 386.071 312.713 385.702L312.479 385.367ZM317.499 397.189C317.343 396.82 317.252 396.429 317.233 396.04C317.214 395.65 317.267 395.27 317.389 394.92C317.511 394.57 317.7 394.257 317.944 394C318.188 393.743 318.483 393.547 318.812 393.421C319.141 393.296 319.498 393.245 319.862 393.271C320.226 393.297 320.591 393.399 320.935 393.572C321.278 393.744 321.594 393.984 321.865 394.278C322.136 394.572 322.356 394.913 322.513 395.283L322.717 395.635C322.877 396.001 322.972 396.389 322.995 396.777C323.017 397.165 322.967 397.544 322.848 397.893C322.728 398.242 322.542 398.554 322.299 398.811C322.057 399.067 321.763 399.262 321.435 399.385C321.106 399.512 320.749 399.564 320.384 399.539C320.02 399.514 319.655 399.412 319.311 399.239C318.967 399.066 318.651 398.826 318.38 398.531C318.109 398.237 317.89 397.895 317.734 397.524L317.499 397.189ZM322.54 409.048C322.382 408.678 322.29 408.287 322.271 407.897C322.252 407.508 322.305 407.127 322.427 406.776C322.549 406.426 322.737 406.113 322.982 405.856C323.227 405.6 323.523 405.404 323.853 405.28C324.178 405.15 324.532 405.094 324.894 405.115C325.256 405.137 325.619 405.235 325.962 405.406C326.304 405.576 326.62 405.813 326.89 406.105C327.16 406.397 327.378 406.737 327.533 407.105L327.737 407.458C327.978 408.175 327.969 408.931 327.712 409.579C327.455 410.226 326.969 410.718 326.348 410.959C325.727 411.2 325.017 411.172 324.356 410.88C323.695 410.588 323.131 410.054 322.774 409.383L322.54 409.048ZM327.56 420.87C327.244 420.124 327.204 419.308 327.45 418.601C327.572 418.251 327.76 417.938 328.004 417.681C328.249 417.424 328.544 417.228 328.873 417.102C329.202 416.977 329.559 416.926 329.923 416.952C330.287 416.978 330.652 417.08 330.995 417.253C331.339 417.425 331.655 417.666 331.926 417.959C332.197 418.253 332.417 418.594 332.574 418.964L332.777 419.316C333.094 420.063 333.134 420.879 332.888 421.586C332.642 422.292 332.13 422.832 331.465 423.084C330.8 423.337 330.037 423.283 329.343 422.934C328.648 422.585 328.081 421.97 327.764 421.223L327.56 420.87ZM332.611 432.675C332.366 431.954 332.374 431.192 332.634 430.54C332.894 429.889 333.386 429.395 334.013 429.157C334.64 428.919 335.357 428.955 336.02 429.257C336.683 429.558 337.245 430.105 337.594 430.786L337.798 431.139C337.956 431.509 338.047 431.9 338.067 432.289C338.086 432.679 338.033 433.06 337.911 433.41C337.789 433.76 337.601 434.073 337.356 434.33C337.111 434.587 336.815 434.783 336.485 434.907C336.16 435.037 335.806 435.093 335.444 435.071C335.081 435.05 334.719 434.951 334.376 434.781C334.033 434.611 333.718 434.373 333.448 434.081C333.178 433.789 332.96 433.449 332.805 433.081L332.611 432.675ZM337.652 444.534C337.491 444.168 337.397 443.779 337.374 443.392C337.351 443.004 337.401 442.625 337.521 442.275C337.64 441.926 337.826 441.615 338.069 441.358C338.312 441.102 338.606 440.907 338.934 440.783C339.263 440.657 339.62 440.605 339.984 440.63C340.349 440.655 340.714 440.757 341.057 440.93C341.401 441.103 341.718 441.344 341.989 441.638C342.259 441.932 342.479 442.274 342.635 442.644L342.838 442.997C343.155 443.744 343.195 444.56 342.949 445.266C342.703 445.973 342.19 446.512 341.526 446.765C340.861 447.018 340.098 446.964 339.403 446.615C338.709 446.266 338.142 445.651 337.825 444.904L337.652 444.534ZM342.672 456.356C342.363 455.61 342.327 454.797 342.573 454.093C342.819 453.388 343.325 452.848 343.985 452.588C344.649 452.344 345.407 452.405 346.095 452.758C346.783 453.11 347.344 453.724 347.655 454.467L347.859 454.82C348.051 455.196 348.173 455.602 348.216 456.011C348.259 456.421 348.223 456.826 348.11 457.201C347.997 457.575 347.809 457.911 347.558 458.187C347.308 458.463 347 458.673 346.654 458.804C346.308 458.935 345.932 458.984 345.549 458.949C345.167 458.913 344.786 458.793 344.431 458.595C344.076 458.399 343.754 458.129 343.487 457.805C343.219 457.48 343.011 457.107 342.876 456.709L342.672 456.356ZM382.919 537.581C383.235 538.325 383.275 539.143 383.029 539.85C382.783 540.556 382.271 541.096 381.606 541.349C380.941 541.601 380.178 541.548 379.483 541.196C378.79 540.849 378.221 540.232 377.905 539.488C377.585 538.737 377.537 537.913 377.775 537.197C378.011 536.477 378.515 535.923 379.177 535.649C379.822 535.38 380.573 535.417 381.26 535.74C381.949 536.066 382.52 536.659 382.848 537.386L382.919 537.581ZM377.97 525.952C378.285 526.696 378.326 527.515 378.08 528.221C377.834 528.928 377.322 529.468 376.657 529.72C375.992 529.972 375.229 529.919 374.534 529.568C373.84 529.22 373.272 528.603 372.956 527.859L372.752 527.506C372.591 527.139 372.496 526.751 372.474 526.364C372.452 525.977 372.501 525.596 372.622 525.249C372.74 524.898 372.928 524.588 373.169 524.33C373.412 524.073 373.706 523.879 374.034 523.756C374.362 523.628 374.72 523.576 375.084 523.601C375.448 523.626 375.814 523.73 376.158 523.903C376.502 524.076 376.819 524.317 377.09 524.611C377.359 524.903 377.579 525.246 377.735 525.617L377.97 525.952ZM372.929 514.094C373.087 514.463 373.178 514.853 373.197 515.242C373.218 515.634 373.164 516.014 373.043 516.366C372.92 516.714 372.731 517.026 372.487 517.284C372.243 517.542 371.946 517.737 371.616 517.862C370.958 518.115 370.201 518.063 369.513 517.722C368.822 517.377 368.256 516.773 367.936 516.036L367.732 515.683C367.491 514.966 367.5 514.209 367.757 513.562C368.014 512.915 368.5 512.422 369.121 512.182C369.742 511.941 370.452 511.968 371.112 512.26C371.773 512.551 372.337 513.086 372.695 513.759L372.929 514.094ZM367.909 502.271C368.225 503.017 368.265 503.833 368.019 504.54C367.773 505.247 367.261 505.786 366.596 506.039C365.931 506.291 365.167 506.237 364.474 505.888C363.78 505.539 363.212 504.924 362.895 504.178L362.691 503.825C362.377 503.085 362.335 502.276 362.575 501.574C362.815 500.872 363.317 500.333 363.973 500.075C364.302 499.948 364.659 499.896 365.024 499.921C365.388 499.946 365.753 500.048 366.097 500.221C366.441 500.394 366.757 500.634 367.028 500.929C367.298 501.223 367.518 501.565 367.674 501.936L367.909 502.271ZM362.888 490.448C363.196 491.192 363.229 492.003 362.979 492.702C362.729 493.402 362.217 493.933 361.555 494.18C361.23 494.31 360.876 494.366 360.514 494.345C360.152 494.323 359.789 494.224 359.446 494.054C359.103 493.884 358.788 493.647 358.518 493.355C358.248 493.063 358.03 492.723 357.875 492.355L357.671 492.002C357.513 491.632 357.422 491.241 357.402 490.852C357.383 490.462 357.436 490.081 357.558 489.731C357.68 489.381 357.868 489.068 358.113 488.811C358.358 488.554 358.654 488.358 358.984 488.234C359.309 488.104 359.663 488.048 360.025 488.07C360.387 488.091 360.751 488.19 361.093 488.36C361.436 488.53 361.751 488.768 362.021 489.06C362.291 489.352 362.509 489.691 362.664 490.06L362.888 490.448ZM357.817 478.607C357.978 478.974 358.072 479.362 358.095 479.749C358.117 480.137 358.067 480.516 357.948 480.865C357.829 481.215 357.642 481.526 357.4 481.783C357.157 482.039 356.863 482.234 356.535 482.358C356.206 482.484 355.849 482.536 355.485 482.511C355.12 482.486 354.755 482.384 354.411 482.211C354.067 482.038 353.751 481.797 353.48 481.503C353.21 481.209 352.99 480.867 352.834 480.497L352.63 480.144C352.314 479.397 352.274 478.581 352.52 477.874C352.766 477.168 353.278 476.629 353.943 476.376C354.608 476.123 355.371 476.177 356.066 476.526C356.76 476.875 357.327 477.49 357.644 478.237L357.817 478.607ZM352.797 466.785C352.989 467.161 353.111 467.566 353.154 467.976C353.197 468.386 353.161 468.791 353.048 469.165C352.935 469.539 352.747 469.875 352.496 470.152C352.245 470.427 351.938 470.638 351.592 470.769C351.246 470.9 350.87 470.949 350.487 470.913C350.104 470.877 349.724 470.757 349.368 470.56C349.014 470.363 348.692 470.094 348.424 469.769C348.157 469.444 347.949 469.071 347.814 468.674L347.59 468.286C347.312 467.669 347.242 466.992 347.391 466.378C347.478 465.947 347.659 465.555 347.922 465.232C348.184 464.909 348.519 464.665 348.902 464.518C349.255 464.399 349.634 464.356 350.019 464.39C350.554 464.444 351.082 464.66 351.54 465.012C351.998 465.364 352.367 465.838 352.603 466.379L352.797 466.785Z" fill="#3F3F3F"/>
<path d="M280.899 338.554L196.845 370.668C197.187 378.885 194.996 386.676 190.609 392.847C191.081 394.197 191.413 395.583 191.599 396.978C192.834 398.588 193.857 400.36 194.634 402.234C195.426 404.103 195.971 406.053 196.253 408.025C197.488 409.635 198.511 411.406 199.288 413.281C200.096 415.144 200.643 417.098 200.907 419.071C202.159 420.669 203.183 422.444 203.942 424.327C204.751 426.191 205.297 428.144 205.561 430.118C206.796 431.728 207.819 433.499 208.596 435.374C209.367 437.24 209.895 439.184 210.164 441.147C211.409 442.766 212.439 444.55 213.219 446.438C214.007 448.3 214.535 450.247 214.788 452.211C216.023 453.821 217.045 455.593 217.822 457.467C218.621 459.339 219.157 461.298 219.411 463.276C220.646 464.885 221.669 466.657 222.446 468.531C223.238 470.4 223.783 472.351 224.065 474.322C225.288 475.941 226.309 477.71 227.1 479.578C227.908 481.442 228.455 483.395 228.72 485.369C229.971 486.967 230.996 488.741 231.754 490.625C232.562 492.488 233.109 494.442 233.374 496.415C234.608 498.025 235.631 499.797 236.408 501.671C237.191 503.547 237.726 505.504 237.997 507.479C239.232 509.089 240.255 510.861 241.032 512.735C241.831 514.607 242.366 516.566 242.62 518.544C243.855 520.153 244.878 521.925 245.655 523.8C246.454 525.671 246.99 527.631 247.244 529.608C248.479 531.218 249.501 532.99 250.278 534.864C251.07 536.733 251.616 538.683 251.898 540.655C253.133 542.265 254.156 544.036 254.932 545.911C255.741 547.774 256.287 549.728 256.552 551.701C257.47 552.968 258.256 554.329 258.894 555.758C266.554 557.298 273.816 561.478 279.541 567.636L363.594 535.522L280.899 338.554Z" stroke="#B2ABFF" stroke-miterlimit="10"/>
<path d="M612.374 281.079C611.583 279.21 611.036 277.26 610.755 275.288C609.518 273.679 608.495 271.908 607.72 270.032C606.911 268.169 606.366 266.215 606.101 264.242C604.849 262.643 603.825 260.869 603.066 258.986C602.257 257.122 601.712 255.168 601.446 253.195C600.21 251.586 599.187 249.815 598.412 247.939C597.628 246.063 597.094 244.106 596.823 242.131C595.973 241.07 595.228 239.922 594.602 238.71C586.922 237.179 579.638 232.993 573.904 226.814L307.073 328.663L390.569 525.028L657.4 423.179C657.015 414.964 659.2 407.169 663.606 401.018C663.206 397.496 661.723 394.082 659.398 391.313C658.615 389.437 658.079 387.479 657.809 385.505C656.572 383.895 655.55 382.125 654.775 380.249C653.977 378.377 653.442 376.419 653.186 374.44C651.949 372.831 650.927 371.06 650.151 369.185C649.354 367.312 648.818 365.354 648.562 363.376C647.326 361.767 646.303 359.996 645.528 358.12C644.735 356.25 644.19 354.302 643.908 352.33C642.687 350.711 641.664 348.941 640.874 347.073C640.082 345.205 639.535 343.255 639.254 341.283C638.017 339.674 636.995 337.902 636.219 336.027C635.41 334.163 634.865 332.209 634.6 330.236C633.349 328.638 632.324 326.863 631.565 324.98C630.756 323.117 630.211 321.163 629.946 319.19C628.709 317.581 627.686 315.809 626.911 313.934C626.117 312.075 625.59 310.125 625.343 308.161C624.096 306.542 623.066 304.758 622.288 302.869C621.5 301.008 620.971 299.061 620.719 297.096C619.483 295.488 618.46 293.716 617.685 291.84C616.887 289.968 616.351 288.009 616.096 286.032C614.646 284.566 613.391 282.896 612.374 281.079Z" stroke="#B2ABFF" stroke-miterlimit="10"/>
<path d="M442.183 356.763C445.232 363.892 443.022 369.589 436.091 372.227L431.282 374.062L434.87 382.48L427.795 385.153L414.848 354.767L426.762 350.24C433.662 347.62 439.307 350.005 442.183 356.763ZM435.599 359.577C434.309 356.559 431.987 355.595 429.127 356.682L424.646 358.375L428.599 367.71L433.08 366.017C433.701 365.884 434.269 365.6 434.745 365.186C435.221 364.772 435.591 364.238 435.83 363.623C436.068 363.008 436.168 362.328 436.123 361.631C436.078 360.934 435.888 360.238 435.569 359.594L435.599 359.577Z" fill="white"/>
<path d="M466.126 352.817L472.549 367.922L465.823 370.488L464.705 367.841C464.369 369.163 463.733 370.344 462.851 371.286C461.969 372.229 460.865 372.907 459.629 373.264C458.767 373.725 457.799 373.971 456.793 373.984C455.786 373.998 454.763 373.779 453.791 373.341C452.82 372.904 451.924 372.26 451.161 371.451C450.399 370.642 449.79 369.687 449.373 368.651C447.493 364.186 449.215 360.558 454.342 358.492L459.796 356.424L459.817 356.46C458.861 354.236 456.949 353.412 454.345 354.445C452.216 355.4 450.357 356.858 448.893 358.721L444.781 354.228C447.121 351.406 450.088 349.26 453.465 347.945C459.135 345.612 463.799 347.435 466.126 352.817ZM462.52 362.706L461.666 360.659L457.565 362.228C455.648 362.958 454.989 364.091 455.547 365.839C456.104 367.586 457.7 368.076 459.494 367.416C460.463 367.174 461.289 366.578 461.838 365.723C462.386 364.869 462.627 363.806 462.52 362.706Z" fill="white"/>
<path d="M480.708 337.343L483.737 344.437C479.719 345.439 477.979 348.325 479.094 351.82L484.165 363.802L477.419 366.333L467.378 342.687L474.125 340.156L475.73 343.932C475.885 342.387 476.425 340.963 477.3 339.806C478.174 338.648 479.35 337.798 480.708 337.343Z" fill="white"/>
<path d="M506.942 353.567C505.656 355.272 503.951 356.548 501.984 357.276C501.112 357.729 500.138 357.961 499.123 357.958C498.111 357.954 497.086 357.713 496.118 357.253C495.15 356.792 494.263 356.123 493.516 355.291C492.773 354.458 492.186 353.484 491.8 352.432L487.522 342.392L484.61 343.461L482.445 338.362L485.337 337.257L482.572 330.763L489.298 328.197L492.032 334.708L497.455 332.659L499.62 337.758L494.247 339.825L497.997 348.666C498.719 350.413 499.762 350.94 500.951 350.441C501.801 349.994 502.563 349.396 503.21 348.667L506.942 353.567Z" fill="white"/>
<path d="M517.577 361.114C515.326 361.992 512.766 361.956 510.338 361.014L510.942 354.597C512.034 355.132 513.232 355.215 514.28 354.834C514.818 354.65 515.271 354.29 515.579 353.801C515.891 353.311 516.044 352.715 516.019 352.089L516.074 350.835L497.685 331.209L504.76 328.536L516.216 341.911L514.233 325.042L520.959 322.476L522.953 351.661C523.217 353.773 522.834 355.839 521.862 357.547C520.893 359.252 519.388 360.504 517.577 361.114Z" fill="white"/>
<path opacity="0.7" d="M560.02 421.974L470.164 456.263C468.382 456.944 466.45 457.226 464.478 457.09C462.504 456.951 460.531 456.401 458.669 455.468C456.806 454.532 455.092 453.233 453.625 451.643C452.157 450.054 450.965 448.205 450.115 446.202C449.262 444.201 448.769 442.085 448.664 439.976C448.559 437.866 448.844 435.805 449.502 433.908C450.161 432.012 451.18 430.319 452.502 428.925C453.824 427.532 455.423 426.466 457.206 425.788L547.063 391.499C548.844 390.817 550.775 390.537 552.749 390.673C554.721 390.81 556.696 391.36 558.557 392.295C560.419 393.23 562.133 394.529 563.6 396.118C565.068 397.707 566.263 399.557 567.111 401.56C568.824 405.599 569.037 410.02 567.709 413.848C566.38 417.672 563.615 420.595 560.02 421.974Z" fill="white"/>
<path d="M460.387 408.195L532.423 380.715" stroke="#B2ABFF" stroke-linecap="round" stroke-linejoin="round"/>
<path d="M487.012 470.804L559.049 443.323" stroke="#B2ABFF" stroke-linecap="round" stroke-linejoin="round"/>
<path d="M581.237 434.84L595.068 429.583" stroke="#B2ABFF" stroke-linecap="round" stroke-linejoin="round"/>
<path d="M466.599 478.591L443.971 487.235" stroke="#B2ABFF" stroke-linecap="round" stroke-linejoin="round"/>
<path d="M230.331 439.756L254.111 495.729" stroke="#B2ABFF" stroke-linecap="round" stroke-linejoin="round"/>
<path d="M261.45 512.987L266.013 523.663" stroke="#B2ABFF" stroke-linecap="round" stroke-linejoin="round"/>
<path d="M223.563 423.91L216.094 406.352" stroke="#B2ABFF" stroke-linecap="round" stroke-linejoin="round"/>
<path d="M275.62 384.2L222.238 404.471L227.264 416.33L280.645 396.058L275.62 384.2Z" fill="white"/>
<path d="M320.732 490.677L267.351 510.948L272.376 522.807L325.757 502.536L320.732 490.677Z" fill="white"/>
<path d="M284.494 401.191L231.144 421.558L232.385 424.475L285.735 404.108L284.494 401.191Z" fill="white"/>
<path d="M287.497 412.258L234.116 432.53L235.352 435.448L288.734 415.176L287.497 412.258Z" fill="white"/>
<path d="M306.238 452.348L252.888 472.715L254.129 475.632L307.479 455.265L306.238 452.348Z" fill="white"/>
<path d="M290.286 418.776L236.905 439.047L239.917 446.155L293.298 425.884L290.286 418.776Z" fill="white"/>
<path d="M313.633 469.696L260.284 490.063L263.306 497.168L316.656 476.801L313.633 469.696Z" fill="white"/>
<path d="M308.88 462.632L255.499 482.903L258.511 490.011L311.892 469.74L308.88 462.632Z" fill="white"/>
<path d="M295.933 428.1L242.584 448.467L243.331 450.225L296.681 429.857L295.933 428.1Z" fill="white"/>
<path d="M281.747 398.601L228.366 418.873L229.111 420.631L282.492 400.36L281.747 398.601Z" fill="white"/>
<path d="M303.561 446.003L250.211 466.37L250.959 468.128L304.309 447.761L303.561 446.003Z" fill="white"/>
<path d="M298.195 433.379L244.845 453.747L245.593 455.504L298.943 435.137L298.195 433.379Z" fill="white"/>
<path d="M317.854 483.87L264.472 504.141L265.218 505.899L318.599 485.628L317.854 483.87Z" fill="white"/>
<path opacity="0.3" d="M575.724 208.644L588.062 284.957L350.164 464.355L347.536 466.342L239.166 548.1C238.78 548.054 238.399 548.098 238.049 548.227L236.189 543.798C236.578 543.653 236.927 543.424 237.215 543.123C237.503 542.822 237.726 542.455 237.87 542.044C238.014 541.633 238.077 541.185 238.055 540.727C238.032 540.269 237.925 539.809 237.74 539.375C237.361 538.512 236.702 537.801 235.898 537.389C235.094 536.977 234.209 536.896 233.426 537.163L231.535 532.751C231.927 532.612 232.279 532.385 232.57 532.084C232.862 531.785 233.086 531.417 233.231 531.005C233.376 530.592 233.437 530.143 233.412 529.683C233.387 529.223 233.276 528.763 233.086 528.329C232.718 527.465 232.065 526.749 231.266 526.333C230.467 525.917 229.583 525.832 228.802 526.098L226.932 521.722C227.673 521.391 228.233 520.75 228.495 519.933C228.756 519.115 228.701 518.183 228.34 517.329C227.979 516.475 227.339 515.765 226.553 515.344C225.768 514.924 224.895 514.825 224.117 515.07L222.247 510.693C222.988 510.362 223.548 509.721 223.81 508.904C224.072 508.086 224.017 507.154 223.655 506.301C223.294 505.447 222.654 504.736 221.868 504.315C221.083 503.895 220.21 503.797 219.432 504.041L217.562 499.665C218.289 499.32 218.833 498.675 219.083 497.861C219.332 497.046 219.27 496.123 218.908 495.278C218.546 494.434 217.911 493.731 217.132 493.314C216.354 492.896 215.49 492.795 214.717 493.03L212.878 488.636C213.604 488.292 214.148 487.647 214.398 486.832C214.647 486.017 214.585 485.094 214.223 484.249C213.861 483.405 213.226 482.702 212.448 482.285C211.669 481.868 210.806 481.766 210.032 482.001L208.193 477.607C208.578 477.459 208.924 477.226 209.209 476.923C209.495 476.62 209.714 476.252 209.856 475.841C209.997 475.429 210.058 474.982 210.034 474.525C210.011 474.067 209.903 473.609 209.717 473.176C209.532 472.742 209.272 472.343 208.953 471.999C208.634 471.655 208.262 471.375 207.858 471.174C207.454 470.973 207.026 470.854 206.599 470.826C206.172 470.797 205.753 470.859 205.367 471.007L203.477 466.596C204.259 466.301 204.861 465.669 205.152 464.839C205.443 464.01 205.398 463.051 205.027 462.173C204.657 461.296 203.991 460.572 203.176 460.16C202.361 459.749 201.464 459.683 200.682 459.979L198.792 455.567C199.574 455.272 200.176 454.64 200.467 453.811C200.758 452.981 200.713 452.022 200.342 451.145C199.972 450.267 199.306 449.543 198.491 449.131C197.676 448.72 196.779 448.655 195.997 448.95L194.107 444.538C194.889 444.243 195.492 443.611 195.782 442.782C196.073 441.953 196.028 440.994 195.657 440.116C195.287 439.239 194.621 438.514 193.806 438.103C192.991 437.691 192.094 437.626 191.313 437.921L189.422 433.51C189.808 433.361 190.153 433.128 190.439 432.825C190.724 432.522 190.944 432.155 191.085 431.743C191.227 431.332 191.288 430.885 191.264 430.427C191.24 429.97 191.132 429.512 190.947 429.078C190.761 428.645 190.502 428.245 190.183 427.902C189.864 427.558 189.492 427.278 189.088 427.076C188.684 426.875 188.256 426.757 187.828 426.728C187.401 426.7 186.983 426.762 186.597 426.91L184.737 422.481C185.516 422.181 186.115 421.546 186.4 420.715C186.686 419.883 186.637 418.925 186.262 418.05C185.887 417.175 185.218 416.454 184.403 416.048C183.587 415.641 182.691 415.581 181.912 415.881L180.052 411.452C180.441 411.308 180.789 411.078 181.078 410.777C181.366 410.476 181.589 410.11 181.733 409.698C181.877 409.287 181.94 408.84 181.917 408.382C181.895 407.924 181.788 407.464 181.603 407.03C181.224 406.167 180.564 405.456 179.761 405.043C178.957 404.631 178.072 404.55 177.289 404.817L175.398 400.406C175.79 400.266 176.142 400.039 176.433 399.739C176.725 399.439 176.949 399.072 177.094 398.659C177.239 398.247 177.3 397.797 177.275 397.338C177.25 396.878 177.139 396.417 176.949 395.983C176.581 395.119 175.928 394.403 175.129 393.987C174.329 393.571 173.446 393.487 172.665 393.753L170.368 388.353L171.076 387.944C173.43 387.05 175.54 385.643 177.284 383.804C179.029 381.965 180.374 379.73 181.243 377.227C182.112 374.725 182.488 372.003 182.348 369.219C182.209 366.435 181.558 363.643 180.431 361.002C180.213 360.519 179.947 360.057 179.637 359.627L227.692 341.289L530.336 225.772L575.724 208.644Z" fill="black"/>
<path d="M399.352 43.3251L395.279 39.1857L394.745 39.8236C393.064 41.7314 391.005 43.2194 388.688 44.202C386.37 45.1845 383.839 45.642 381.241 45.5479C378.639 45.4557 376.023 44.8124 373.535 43.6588C371.05 42.5035 368.746 40.8582 366.751 38.8185C366.507 38.3952 366.027 38.0611 365.7 37.638L331.372 76.5529L115.061 321.844L80.7637 360.741C81.1626 361.074 81.5383 361.439 81.8866 361.833C83.8829 363.864 85.529 366.253 86.7297 368.862C87.9307 371.472 88.6627 374.249 88.884 377.037C89.105 379.824 88.8111 382.566 88.0188 385.104C87.2266 387.643 85.9518 389.929 84.2674 391.83L83.6816 392.45L87.754 396.589C88.3375 396.055 89.1134 395.797 89.93 395.867C90.7469 395.937 91.5457 396.33 92.1705 396.968C92.7956 397.606 93.2019 398.445 93.3099 399.319C93.4182 400.194 93.2203 401.042 92.7551 401.698L96.0721 405.097C96.6555 404.562 97.4315 404.305 98.2481 404.375C99.065 404.445 99.8638 404.837 100.489 405.476C101.114 406.114 101.52 406.952 101.628 407.827C101.736 408.702 101.538 409.55 101.073 410.205L104.39 413.605C104.974 413.07 105.75 412.813 106.566 412.883C107.383 412.953 108.182 413.345 108.807 413.984C109.432 414.622 109.838 415.46 109.946 416.335C110.054 417.21 109.857 418.058 109.391 418.713L112.708 422.113C113.273 421.508 114.062 421.191 114.91 421.228C115.758 421.265 116.598 421.652 117.254 422.31C117.903 422.983 118.313 423.869 118.398 424.784C118.482 425.698 118.236 426.572 117.709 427.221L121.027 430.621C121.586 430.007 122.376 429.683 123.227 429.72C124.078 429.757 124.92 430.151 125.573 430.818C126.222 431.491 126.631 432.377 126.716 433.292C126.8 434.207 126.554 435.079 126.028 435.729L129.324 439.093C129.908 438.558 130.684 438.301 131.5 438.371C132.317 438.441 133.116 438.833 133.741 439.472C134.366 440.11 134.772 440.949 134.88 441.823C134.988 442.698 134.79 443.546 134.325 444.202L137.642 447.601C138.226 447.066 139.002 446.809 139.818 446.879C140.635 446.949 141.434 447.341 142.059 447.98C142.684 448.618 143.09 449.456 143.198 450.331C143.306 451.206 143.109 452.054 142.644 452.709L145.961 456.109C146.544 455.574 147.32 455.317 148.137 455.387C148.953 455.457 149.752 455.849 150.377 456.488C151.002 457.126 151.408 457.964 151.517 458.839C151.625 459.714 151.427 460.562 150.962 461.217L154.279 464.617C154.862 464.082 155.638 463.825 156.455 463.894C157.271 463.965 158.07 464.357 158.695 464.995C159.32 465.634 159.726 466.472 159.835 467.347C159.943 468.221 159.745 469.069 159.28 469.725L162.597 473.125C163.162 472.52 163.951 472.203 164.799 472.24C165.646 472.276 166.487 472.664 167.143 473.322C167.792 473.995 168.201 474.881 168.286 475.796C168.371 476.71 168.124 477.583 167.598 478.233L170.915 481.633C171.479 481.028 172.269 480.711 173.117 480.747C173.965 480.784 174.805 481.172 175.461 481.83C176.11 482.503 176.519 483.389 176.604 484.304C176.689 485.218 176.442 486.091 175.916 486.741L179.151 490.282C179.425 489.969 179.762 489.725 180.141 489.563C180.52 489.401 180.933 489.326 181.359 489.34C181.785 489.354 182.213 489.458 182.62 489.646C183.028 489.834 183.406 490.102 183.733 490.435C184.06 490.768 184.329 491.16 184.526 491.587C184.723 492.015 184.844 492.47 184.881 492.927C184.918 493.384 184.871 493.833 184.742 494.25C184.614 494.666 184.406 495.042 184.131 495.355L187.448 498.755C188.032 498.22 188.808 497.962 189.624 498.032C190.441 498.102 191.24 498.495 191.865 499.133C192.49 499.771 192.896 500.61 193.004 501.485C193.112 502.359 192.915 503.207 192.449 503.863L195.767 507.262C196.35 506.728 197.126 506.47 197.943 506.54C198.759 506.61 199.558 507.003 200.183 507.641C200.808 508.279 201.214 509.118 201.322 509.992C201.431 510.867 201.233 511.715 200.768 512.371L204.085 515.77C204.668 515.235 205.444 514.978 206.261 515.048C207.078 515.118 207.876 515.51 208.501 516.149C209.126 516.787 209.532 517.626 209.641 518.5C209.749 519.375 209.551 520.223 209.086 520.878L212.403 524.278C212.967 523.673 213.757 523.356 214.605 523.393C215.452 523.43 216.293 523.818 216.949 524.475C217.598 525.149 218.007 526.034 218.092 526.949C218.177 527.864 217.93 528.737 217.404 529.386L221.813 533.896L222.296 533.24C225.698 529.396 230.556 527.343 235.803 527.531C241.051 527.72 246.26 530.134 250.29 534.245C250.667 534.61 251.018 535.005 251.341 535.426L285.669 496.511L502 251.255L536.329 212.34C535.924 212.009 535.537 211.651 535.175 211.266C531.154 207.145 528.648 201.666 528.203 196.034C527.758 190.401 529.413 185.072 532.805 181.216L533.359 180.614L528.971 176.14C528.389 176.674 527.61 176.933 526.794 176.862C525.978 176.792 525.178 176.4 524.554 175.761C523.931 175.122 523.521 174.285 523.414 173.41C523.307 172.535 523.503 171.688 523.97 171.032L520.653 167.632C520.07 168.166 519.292 168.425 518.476 168.355C517.66 168.284 516.859 167.893 516.236 167.254C515.612 166.614 515.203 165.778 515.096 164.903C514.989 164.027 515.185 163.18 515.651 162.524L512.334 159.124C511.752 159.658 510.974 159.917 510.158 159.847C509.342 159.776 508.541 159.385 507.918 158.746C507.294 158.106 506.885 157.27 506.778 156.395C506.671 155.519 506.867 154.672 507.333 154.016L504.016 150.616C503.434 151.15 502.656 151.409 501.84 151.339C501.024 151.268 500.223 150.877 499.6 150.238C498.976 149.598 498.567 148.762 498.46 147.886C498.353 147.011 498.549 146.164 499.015 145.508L495.698 142.108C495.132 142.714 494.343 143.031 493.497 142.993C492.647 142.958 491.807 142.569 491.152 141.911C490.505 141.237 490.092 140.353 490.008 139.438C489.923 138.523 490.17 137.65 490.697 137L487.38 133.601C486.826 134.232 486.032 134.571 485.171 134.544C484.313 134.514 483.458 134.121 482.798 133.448C482.139 132.774 481.724 131.879 481.651 130.955C481.574 130.034 481.845 129.16 482.399 128.528L479.082 125.128C478.5 125.662 477.722 125.921 476.906 125.851C476.09 125.78 475.289 125.389 474.666 124.75C474.042 124.11 473.633 123.274 473.526 122.399C473.419 121.523 473.615 120.676 474.081 120.02L470.764 116.62C470.182 117.154 469.404 117.413 468.588 117.343C467.772 117.272 466.971 116.881 466.348 116.242C465.724 115.602 465.315 114.766 465.208 113.891C465.1 113.015 465.297 112.168 465.763 111.512L462.446 108.112C461.886 108.741 461.086 109.075 460.221 109.041C459.358 109.005 458.503 108.604 457.844 107.924C457.185 107.244 456.775 106.343 456.707 105.416C456.637 104.49 456.916 103.615 457.476 102.986L454.241 99.5864C453.962 99.899 453.624 100.14 453.241 100.3C452.861 100.459 452.443 100.532 452.015 100.515C451.59 100.497 451.159 100.389 450.749 100.199C450.342 100.007 449.964 99.7349 449.638 99.3981C449.313 99.0613 449.044 98.6667 448.849 98.2365C448.653 97.806 448.537 97.348 448.502 96.8898C448.467 96.4315 448.519 95.9804 448.648 95.5651C448.781 95.1476 448.991 94.7731 449.27 94.4605L445.923 91.0786C445.362 91.7077 444.562 92.0414 443.697 92.0075C442.835 91.9714 441.979 91.5698 441.32 90.8903C440.661 90.2107 440.251 89.3087 440.184 88.3819C440.113 87.4566 440.392 86.5817 440.952 85.9526L437.604 82.5707C437.044 83.1854 436.254 83.5088 435.404 83.4716C434.553 83.4344 433.71 83.0403 433.058 82.3734C432.408 81.6949 432 80.8031 431.921 79.8842C431.842 78.9652 432.1 78.0897 432.634 77.4448L429.307 74.0982C428.732 74.6945 427.937 75.0031 427.087 74.9595C426.238 74.9163 425.396 74.5254 424.74 73.8656C424.093 73.1919 423.69 72.303 423.615 71.3897C423.539 70.4764 423.797 69.6097 424.336 68.9722L420.988 65.5903C420.709 65.9029 420.369 66.1454 419.989 66.3039C419.609 66.4628 419.191 66.5362 418.763 66.5192C417.901 66.4831 417.045 66.0816 416.386 65.402C415.727 64.7224 415.317 63.8204 415.25 62.8937C415.179 61.9683 415.458 61.0935 416.018 60.4643L412.67 57.0825C412.391 57.395 412.054 57.6359 411.671 57.7962C411.29 57.9547 410.873 58.0282 410.445 58.0113C410.02 57.9926 409.588 57.8856 409.179 57.695C408.772 57.5026 408.394 57.231 408.068 56.8942C407.742 56.5573 407.473 56.1628 407.278 55.7325C407.083 55.3022 406.966 54.844 406.932 54.3858C406.897 53.9276 406.948 53.4765 407.078 53.061C407.21 52.6438 407.421 52.269 407.7 51.9565L404.352 48.5746C403.792 49.2036 402.992 49.5376 402.127 49.5034C401.265 49.4675 400.409 49.066 399.75 48.3863C399.091 47.7066 398.681 46.8049 398.614 45.878C398.543 44.9528 398.822 44.0777 399.382 43.4487L399.352 43.3251ZM325.079 441.023C325.631 441.602 325.974 442.364 326.035 443.146C326.095 443.928 325.869 444.668 325.404 445.209C325.169 445.475 324.882 445.681 324.559 445.818C324.235 445.954 323.882 446.017 323.52 446.003C323.158 445.99 322.793 445.9 322.447 445.738C322.101 445.577 321.78 445.347 321.503 445.063C321.192 444.78 320.932 444.438 320.738 444.059C320.544 443.68 320.419 443.271 320.373 442.858C320.326 442.445 320.358 442.035 320.467 441.655C320.576 441.275 320.759 440.932 321.005 440.647C321.23 440.38 321.509 440.169 321.825 440.029C322.14 439.889 322.486 439.821 322.843 439.829C323.199 439.839 323.559 439.923 323.901 440.08C324.243 440.236 324.56 440.461 324.834 440.741L325.079 441.023ZM316.261 432.004C316.539 432.289 316.767 432.622 316.933 432.987C317.1 433.351 317.201 433.739 317.231 434.128C317.261 434.517 317.22 434.899 317.109 435.252C316.998 435.607 316.82 435.925 316.585 436.191C316.351 436.456 316.063 436.663 315.74 436.799C315.417 436.935 315.064 436.998 314.702 436.985C314.34 436.971 313.975 436.881 313.629 436.719C313.283 436.558 312.962 436.329 312.684 436.044L312.481 435.692C311.929 435.112 311.586 434.35 311.525 433.568C311.465 432.786 311.691 432.046 312.156 431.505C312.63 430.969 313.308 430.683 314.04 430.711C314.771 430.738 315.497 431.076 316.057 431.651L316.261 432.004ZM307.412 423.003C307.69 423.288 307.918 423.622 308.084 423.986C308.251 424.35 308.352 424.738 308.382 425.127C308.412 425.515 308.371 425.898 308.26 426.252C308.149 426.606 307.971 426.925 307.736 427.19C307.501 427.455 307.214 427.662 306.891 427.798C306.568 427.934 306.215 427.997 305.853 427.984C305.491 427.97 305.126 427.88 304.78 427.719C304.434 427.557 304.113 427.328 303.835 427.043L303.652 426.726C303.092 426.151 302.743 425.388 302.682 424.602C302.621 423.817 302.854 423.075 303.328 422.539C303.802 422.003 304.479 421.718 305.211 421.745C305.942 421.773 306.668 422.111 307.229 422.686L307.412 423.003ZM298.563 414.002C299.123 414.577 299.472 415.341 299.533 416.126C299.594 416.911 299.362 417.653 298.887 418.189C298.413 418.725 297.736 419.01 297.004 418.983C296.273 418.955 295.547 418.617 294.986 418.042L294.783 417.69C294.505 417.405 294.277 417.071 294.11 416.707C293.944 416.343 293.843 415.955 293.813 415.566C293.783 415.177 293.824 414.795 293.935 414.441C294.045 414.087 294.223 413.768 294.458 413.503C294.693 413.238 294.98 413.031 295.303 412.895C295.626 412.758 295.979 412.695 296.342 412.709C296.704 412.722 297.069 412.813 297.415 412.974C297.761 413.136 298.082 413.365 298.359 413.649L298.563 414.002ZM289.714 405.001C290.274 405.576 290.623 406.34 290.684 407.125C290.745 407.91 290.512 408.652 290.038 409.188C289.807 409.458 289.52 409.669 289.197 409.808C288.874 409.948 288.52 410.012 288.156 409.999C287.793 409.985 287.427 409.893 287.08 409.729C286.733 409.565 286.413 409.331 286.137 409.042L285.934 408.689C285.656 408.404 285.428 408.07 285.261 407.706C285.095 407.342 284.994 406.954 284.964 406.565C284.933 406.176 284.975 405.794 285.086 405.44C285.197 405.086 285.375 404.767 285.609 404.502C285.844 404.237 286.131 404.03 286.454 403.894C286.777 403.758 287.13 403.694 287.493 403.708C287.855 403.722 288.22 403.812 288.566 403.973C288.912 404.135 289.233 404.364 289.51 404.648L289.714 405.001ZM280.865 396C281.143 396.285 281.371 396.619 281.537 396.983C281.704 397.347 281.805 397.735 281.835 398.124C281.865 398.513 281.824 398.895 281.713 399.249C281.602 399.603 281.424 399.922 281.189 400.187C280.958 400.457 280.671 400.668 280.348 400.807C280.025 400.947 279.671 401.012 279.307 400.998C278.944 400.984 278.578 400.892 278.231 400.728C277.884 400.564 277.564 400.33 277.288 400.041L277.105 399.723C276.823 399.441 276.591 399.108 276.422 398.743C276.252 398.378 276.149 397.989 276.119 397.599C276.089 397.209 276.132 396.825 276.246 396.471C276.359 396.117 276.541 395.799 276.781 395.536C277.25 395.002 277.921 394.713 278.648 394.734C279.375 394.755 280.098 395.083 280.661 395.648L280.865 396ZM272.016 386.999C272.56 387.583 272.897 388.343 272.957 389.122C273.017 389.901 272.797 390.64 272.34 391.186C271.861 391.712 271.184 391.991 270.456 391.964C269.727 391.937 269.004 391.605 268.439 391.04L268.236 390.687C267.958 390.402 267.73 390.068 267.563 389.704C267.397 389.34 267.295 388.952 267.266 388.563C267.235 388.175 267.277 387.792 267.388 387.438C267.499 387.084 267.677 386.766 267.911 386.5C268.146 386.235 268.433 386.028 268.756 385.892C269.079 385.756 269.432 385.693 269.795 385.706C270.157 385.72 270.522 385.81 270.868 385.972C271.214 386.133 271.535 386.362 271.812 386.647L272.016 386.999ZM263.136 378.016C263.461 378.287 263.736 378.622 263.944 378.998C264.152 379.375 264.287 379.785 264.343 380.202C264.397 380.619 264.37 381.034 264.263 381.419C264.155 381.803 263.97 382.15 263.718 382.435C263.467 382.72 263.156 382.937 262.804 383.073C262.453 383.209 262.07 383.26 261.68 383.222C261.291 383.185 260.903 383.06 260.543 382.856C260.182 382.652 259.858 382.374 259.59 382.039L259.387 381.686C259.109 381.402 258.881 381.068 258.714 380.703C258.548 380.339 258.446 379.951 258.417 379.563C258.387 379.174 258.428 378.791 258.539 378.438C258.649 378.083 258.827 377.765 259.062 377.499C259.542 376.973 260.218 376.694 260.947 376.721C261.676 376.749 262.399 377.08 262.963 377.646L263.136 378.016ZM254.287 369.015C254.569 369.297 254.801 369.631 254.97 369.996C255.14 370.36 255.243 370.749 255.273 371.14C255.303 371.53 255.26 371.914 255.146 372.268C255.033 372.622 254.851 372.94 254.612 373.202C254.377 373.468 254.09 373.674 253.766 373.81C253.443 373.946 253.09 374.01 252.728 373.996C252.366 373.982 252.001 373.892 251.655 373.731C251.309 373.57 250.988 373.34 250.71 373.056L250.527 372.738C250.209 372.467 249.939 372.134 249.736 371.76C249.533 371.386 249.4 370.98 249.347 370.567C249.294 370.155 249.321 369.745 249.426 369.364C249.532 368.983 249.714 368.64 249.961 368.356C250.207 368.072 250.514 367.854 250.859 367.715C251.204 367.577 251.582 367.521 251.967 367.551C252.352 367.582 252.737 367.698 253.096 367.893C253.455 368.087 253.781 368.355 254.053 368.68L254.287 369.015ZM245.438 360.015C246.002 360.593 246.355 361.362 246.419 362.152C246.484 362.943 246.255 363.692 245.783 364.237C245.298 364.753 244.623 365.026 243.897 364.999C243.171 364.972 242.45 364.647 241.882 364.09L241.678 363.737C241.126 363.158 240.784 362.396 240.723 361.614C240.662 360.832 240.889 360.092 241.354 359.551C241.586 359.28 241.872 359.07 242.195 358.93C242.518 358.791 242.872 358.726 243.236 358.74C243.599 358.754 243.965 358.845 244.312 359.01C244.659 359.174 244.98 359.408 245.255 359.697L245.438 360.015ZM236.589 351.014C237.15 351.588 237.499 352.352 237.559 353.137C237.62 353.922 237.388 354.665 236.913 355.2C236.434 355.727 235.757 356.006 235.029 355.979C234.3 355.951 233.577 355.619 233.012 355.054L232.809 354.701C232.531 354.417 232.303 354.083 232.137 353.718C231.97 353.354 231.869 352.966 231.839 352.578C231.809 352.189 231.85 351.806 231.961 351.452C232.072 351.098 232.25 350.78 232.484 350.514C232.716 350.244 233.002 350.033 233.326 349.894C233.649 349.755 234.003 349.69 234.367 349.704C234.73 349.717 235.096 349.809 235.443 349.974C235.79 350.138 236.11 350.372 236.385 350.661L236.589 351.014ZM227.74 342.013C228.018 342.297 228.246 342.631 228.413 342.995C228.579 343.36 228.68 343.748 228.71 344.136C228.74 344.525 228.699 344.908 228.588 345.261C228.477 345.615 228.299 345.934 228.064 346.2C227.83 346.465 227.543 346.672 227.219 346.807C226.896 346.944 226.543 347.007 226.181 346.993C225.819 346.98 225.454 346.89 225.108 346.728C224.762 346.567 224.441 346.337 224.163 346.053L223.96 345.7C223.399 345.126 223.05 344.362 222.99 343.577C222.929 342.792 223.161 342.049 223.635 341.514C224.11 340.978 224.787 340.692 225.519 340.72C226.25 340.747 226.976 341.085 227.536 341.66L227.74 342.013ZM218.891 333.012C219.456 333.584 219.81 334.347 219.875 335.134C219.941 335.921 219.712 336.667 219.241 337.207C218.769 337.748 218.093 338.039 217.36 338.016C216.628 337.994 215.899 337.66 215.335 337.087L215.131 336.735C214.571 336.16 214.222 335.396 214.161 334.611C214.1 333.826 214.332 333.084 214.807 332.548C215.281 332.012 215.958 331.726 216.69 331.754C217.422 331.781 218.147 332.12 218.708 332.694L218.891 333.012ZM210.042 324.011C210.32 324.296 210.548 324.629 210.715 324.994C210.881 325.358 210.982 325.746 211.012 326.135C211.042 326.524 211.001 326.906 210.89 327.26C210.779 327.614 210.601 327.932 210.366 328.198C210.132 328.463 209.845 328.67 209.521 328.806C209.198 328.942 208.845 329.005 208.483 328.992C208.121 328.978 207.756 328.888 207.41 328.726C207.064 328.565 206.743 328.336 206.465 328.051L206.262 327.699C205.701 327.124 205.352 326.36 205.292 325.575C205.231 324.79 205.463 324.048 205.937 323.512C206.412 322.976 207.089 322.69 207.821 322.718C208.552 322.745 209.278 323.083 209.838 323.658L210.042 324.011ZM201.193 315.01C201.471 315.295 201.699 315.629 201.865 315.993C202.032 316.357 202.133 316.745 202.163 317.134C202.193 317.523 202.152 317.905 202.041 318.259C201.93 318.613 201.752 318.932 201.517 319.197C201.286 319.467 200.999 319.678 200.676 319.817C200.353 319.957 199.999 320.021 199.635 320.007C199.272 319.994 198.906 319.902 198.559 319.738C198.212 319.573 197.892 319.34 197.616 319.05L197.413 318.698C196.852 318.123 196.504 317.359 196.443 316.574C196.382 315.789 196.614 315.047 197.088 314.511C197.568 313.985 198.244 313.706 198.973 313.733C199.702 313.76 200.425 314.092 200.989 314.657L201.193 315.01ZM192.344 306.009C192.896 306.588 193.239 307.35 193.299 308.132C193.36 308.914 193.134 309.655 192.668 310.196C192.439 310.465 192.156 310.677 191.835 310.818C191.515 310.958 191.164 311.025 190.803 311.015C190.441 311.004 190.077 310.917 189.731 310.757C189.385 310.597 189.065 310.369 188.788 310.085L188.584 309.732C188.302 309.45 188.07 309.117 187.901 308.752C187.731 308.387 187.628 307.998 187.598 307.608C187.568 307.217 187.611 306.834 187.725 306.48C187.838 306.125 188.02 305.808 188.26 305.545C188.734 305.01 189.411 304.724 190.143 304.751C190.875 304.779 191.6 305.117 192.161 305.692L192.344 306.009ZM183.464 297.026C183.789 297.296 184.064 297.631 184.272 298.008C184.48 298.385 184.616 298.795 184.671 299.212C184.726 299.629 184.698 300.044 184.591 300.428C184.483 300.813 184.298 301.159 184.046 301.445C183.795 301.729 183.484 301.947 183.132 302.083C182.781 302.219 182.398 302.27 182.008 302.232C181.619 302.195 181.231 302.07 180.871 301.866C180.511 301.662 180.186 301.384 179.918 301.049L179.715 300.696C179.154 300.121 178.805 299.357 178.745 298.572C178.684 297.787 178.916 297.045 179.39 296.509C179.865 295.973 180.542 295.688 181.274 295.715C182.005 295.743 182.731 296.081 183.291 296.655L183.464 297.026ZM174.615 288.025C175.174 288.594 175.525 289.352 175.591 290.132C175.658 290.913 175.435 291.654 174.97 292.194C174.493 292.733 173.811 293.022 173.075 292.998C172.339 292.974 171.607 292.639 171.039 292.066L170.835 291.713C170.51 291.442 170.235 291.108 170.027 290.731C169.82 290.354 169.684 289.944 169.629 289.527C169.574 289.11 169.601 288.695 169.708 288.31C169.816 287.926 170.001 287.58 170.253 287.294C170.504 287.009 170.815 286.792 171.167 286.656C171.518 286.52 171.901 286.469 172.291 286.507C172.68 286.544 173.068 286.669 173.428 286.873C173.788 287.077 174.113 287.355 174.381 287.69L174.615 288.025ZM165.766 279.024C166.048 279.306 166.28 279.639 166.45 280.004C166.619 280.369 166.722 280.758 166.752 281.149C166.782 281.539 166.739 281.922 166.626 282.277C166.512 282.631 166.33 282.949 166.091 283.211C165.856 283.476 165.569 283.683 165.245 283.819C164.922 283.955 164.569 284.019 164.207 284.005C163.845 283.991 163.48 283.901 163.134 283.74C162.788 283.578 162.467 283.349 162.19 283.065C161.884 282.778 161.627 282.436 161.436 282.057C161.245 281.678 161.123 281.271 161.076 280.859C161.03 280.448 161.06 280.04 161.166 279.66C161.272 279.281 161.451 278.937 161.692 278.649C161.917 278.38 162.194 278.168 162.509 278.024C162.824 277.881 163.169 277.809 163.526 277.813C163.882 277.816 164.243 277.896 164.587 278.046C164.932 278.197 165.252 278.415 165.532 278.689L165.766 279.024Z" fill="#3F3F3F"/>
<path d="M159.957 295.406L99.9545 363.489C103.434 371.224 104.565 379.675 103.174 387.546C104.026 388.606 104.8 389.733 105.487 390.913C108.903 392.885 111.802 395.85 113.805 399.421C117.221 401.393 120.12 404.357 122.124 407.929C123.823 408.902 125.404 410.13 126.812 411.571C128.213 413.008 129.43 414.635 130.421 416.401C132.125 417.394 133.711 418.633 135.13 420.079C136.531 421.515 137.748 423.143 138.74 424.909C140.432 425.896 142.01 427.123 143.428 428.552C144.836 430 146.059 431.64 147.058 433.417C148.75 434.404 150.329 435.631 151.746 437.06C153.154 438.508 154.377 440.147 155.376 441.925C158.791 443.896 161.69 446.861 163.694 450.433C167.109 452.405 170.008 455.369 172.012 458.94C173.712 459.913 175.293 461.142 176.7 462.583C178.102 464.02 179.318 465.647 180.31 467.413C182.013 468.406 183.6 469.645 185.018 471.091C186.42 472.527 187.636 474.155 188.628 475.921C190.32 476.908 191.899 478.135 193.316 479.564C194.724 481.012 195.947 482.651 196.946 484.429C198.638 485.416 200.217 486.642 201.634 488.072C203.043 489.52 204.266 491.159 205.264 492.937C208.68 494.908 211.578 497.873 213.582 501.445C216.998 503.416 219.897 506.381 221.9 509.952C223.186 510.678 224.407 511.552 225.538 512.556C232.752 510.665 240.632 511.453 247.966 514.798L307.99 446.75L159.957 295.406Z" stroke="#B2ABFF" stroke-miterlimit="10"/>
<path d="M423.582 93.1123C422.171 91.6845 420.944 90.0632 419.942 88.3001C418.252 87.3206 416.682 86.0863 415.285 84.6397C413.869 83.1978 412.635 81.5649 411.624 79.7923C409.934 78.8128 408.364 77.5781 406.966 76.1319C405.551 74.69 404.317 73.057 403.306 71.2844C401.612 70.312 400.041 69.0766 398.648 67.6241C397.228 66.1868 395.993 64.5532 394.988 62.7768C393.831 62.0944 392.724 61.3 391.688 60.4019C384.472 62.3397 376.572 61.5562 369.228 58.1774L178.51 274.301L326.614 425.839L517.291 209.645C513.791 201.935 512.657 193.494 514.061 185.642C513.041 184.472 512.136 183.195 511.37 181.834C509.68 180.846 508.098 179.621 506.682 178.191C505.288 176.73 504.065 175.094 503.052 173.326C501.357 172.345 499.775 171.119 498.364 169.683C496.967 168.224 495.747 166.586 494.734 164.818C493.039 163.837 491.457 162.611 490.045 161.175C488.649 159.716 487.425 158.08 486.416 156.31C484.717 155.337 483.135 154.11 481.727 152.668C480.341 151.218 479.124 149.594 478.118 147.838C476.417 146.853 474.839 145.605 473.44 144.142C472.029 142.714 470.801 141.093 469.8 139.33C468.11 138.35 466.54 137.116 465.142 135.669C463.727 134.227 462.493 132.594 461.482 130.822C459.792 129.842 458.221 128.608 456.824 127.161C455.409 125.72 454.175 124.087 453.164 122.314C451.47 121.342 449.899 120.106 448.506 118.654C447.085 117.216 445.851 115.583 444.845 113.806C443.152 112.834 441.581 111.598 440.188 110.146C438.767 108.708 437.532 107.075 436.527 105.298C434.829 104.333 433.258 103.097 431.87 101.638C430.459 100.21 429.231 98.5888 428.23 96.8257C426.536 95.8335 424.968 94.5808 423.582 93.1123Z" stroke="#B2ABFF" stroke-miterlimit="10"/>
<path d="M306.22 241.25C311.579 246.763 311.895 253.212 306.952 258.794L303.509 262.71L309.847 269.21L304.913 274.881L281.98 251.436L290.469 241.831C295.177 236.338 300.984 236.089 306.22 241.25ZM301.594 246.884C301.123 246.351 300.557 245.925 299.94 245.636C299.323 245.347 298.669 245.202 298.026 245.212C297.383 245.223 296.768 245.389 296.225 245.697C295.682 246.005 295.224 246.448 294.886 246.994L291.69 250.627L298.732 257.849L301.929 254.216C302.381 253.792 302.729 253.255 302.948 252.643C303.167 252.031 303.252 251.359 303.197 250.674C303.142 249.989 302.947 249.307 302.628 248.677C302.308 248.047 301.872 247.484 301.348 247.026L301.594 246.884Z" fill="white"/>
<path d="M325.221 226.894L336.713 238.696L331.903 244.154L329.902 242.111C330.12 243.518 330.03 244.922 329.64 246.208C329.25 247.496 328.57 248.631 327.656 249.522C327.091 250.349 326.352 251.014 325.488 251.475C324.624 251.935 323.656 252.179 322.649 252.191C321.641 252.202 320.616 251.981 319.645 251.542C318.673 251.103 317.777 250.456 317.016 249.645C313.648 246.227 313.805 242.092 317.372 237.681L321.268 233.268L321.125 233.021C319.461 231.348 317.505 231.443 315.645 233.551C314.173 235.409 313.117 237.62 312.542 240.046L307.276 237.537C308.203 233.807 309.917 230.441 312.295 227.678C316.212 223.018 321.117 222.773 325.221 226.894ZM325.901 238.024L324.381 236.456L321.441 239.753C320.064 241.347 319.957 242.726 321.212 243.977C322.468 245.227 323.922 245.187 325.186 243.752C325.89 243.089 326.342 242.169 326.471 241.134C326.6 240.098 326.4 239.006 325.901 238.024Z" fill="white"/>
<path d="M331.833 205.58L337.151 211.023C334.101 213.772 333.73 217.325 335.913 220.11L344.935 229.34L339.961 234.94L322.293 216.92L327.268 211.32L330.228 214.314C329.698 212.745 329.568 211.1 329.851 209.56C330.135 208.019 330.82 206.642 331.833 205.58Z" fill="white"/>
<path d="M360.699 209.515C360.239 211.725 359.258 213.714 357.844 215.303C357.269 216.123 356.519 216.779 355.645 217.223C354.771 217.667 353.793 217.889 352.781 217.874C351.769 217.859 350.745 217.606 349.782 217.135C348.819 216.663 347.94 215.983 347.205 215.143L339.611 207.392L337.514 209.732L333.677 205.786L335.743 203.464L330.834 198.444L335.808 192.844L340.717 197.864L344.582 193.47L348.47 197.433L344.585 201.792L351.24 208.627C352.587 209.966 353.642 210.015 354.495 209.005C355.062 208.213 355.481 207.302 355.733 206.315L360.699 209.515Z" fill="white"/>
<path d="M372.784 212.038C371.183 213.936 368.926 215.072 366.425 215.239L364.438 208.814C365.584 208.828 366.644 208.384 367.412 207.567C367.794 207.145 368.041 206.599 368.121 205.993C368.201 205.388 368.112 204.749 367.863 204.155L367.396 202.92L343.92 192.252L348.874 186.617L363.922 194.343L355.585 178.98L360.56 173.38L373.6 200.514C374.681 202.416 375.187 204.573 375.04 206.655C374.893 208.738 374.1 210.629 372.784 212.038Z" fill="white"/>
<path d="M431.403 141.132C432.618 141.929 433.628 143.067 434.302 144.405C434.976 145.743 435.287 147.218 435.192 148.646C435.097 150.074 434.601 151.391 433.771 152.427C432.941 153.463 431.809 154.174 430.523 154.47C429.233 154.767 427.847 154.633 426.536 154.089C425.228 153.544 424.054 152.612 423.163 151.41C422.272 150.209 421.705 148.792 421.535 147.339C421.361 145.887 421.593 144.462 422.201 143.247C423.013 141.619 424.437 140.482 426.165 140.084C427.89 139.688 429.774 140.065 431.403 141.132Z" fill="#3F3F3F"/>
<path d="M427.955 159.114L432.864 167.474L436.74 159.687L427.955 159.114Z" fill="#3F3F3F"/>
<path d="M278.065 318.225C278.921 319.448 279.445 320.875 279.571 322.324C279.696 323.773 279.419 325.178 278.772 326.361C278.126 327.544 277.14 328.452 275.94 328.969C274.741 329.485 273.381 329.588 272.035 329.263C270.689 328.938 269.417 328.201 268.38 327.144C267.343 326.088 266.589 324.76 266.213 323.33C265.837 321.9 265.857 320.432 266.269 319.113C266.682 317.794 267.468 316.684 268.529 315.923C269.936 314.914 271.725 314.59 273.51 315.021C275.295 315.452 276.931 316.603 278.065 318.225Z" fill="#3F3F3F"/>
<path d="M283.588 320.54L285.043 329.954L291.807 324.966L283.588 320.54Z" fill="#3F3F3F"/>
<path opacity="0.7" d="M433.021 251.619L368.774 324.364C366.195 327.268 362.52 328.82 358.55 328.68C354.579 328.541 350.635 326.722 347.579 323.619C344.531 320.496 342.631 316.342 342.297 312.072C341.963 307.802 343.223 303.765 345.8 300.848L409.996 228.086C411.266 226.639 412.825 225.508 414.578 224.763C416.333 224.016 418.25 223.667 420.218 223.736C422.187 223.805 424.17 224.291 426.051 225.166C427.934 226.04 429.682 227.284 431.191 228.83C432.709 230.372 433.961 232.186 434.878 234.166C435.793 236.147 436.35 238.258 436.519 240.377C436.691 242.494 436.47 244.577 435.868 246.507C435.267 248.437 434.3 250.174 433.021 251.619Z" fill="white"/>
<path d="M341.763 282.626L393.224 224.272" stroke="#B2ABFF" stroke-linecap="round" stroke-linejoin="round"/>
<path d="M388.986 330.942L440.449 272.587" stroke="#B2ABFF" stroke-linecap="round" stroke-linejoin="round"/>
<path d="M456.319 254.584L466.186 243.384" stroke="#B2ABFF" stroke-linecap="round" stroke-linejoin="round"/>
<path d="M374.392 347.458L358.214 365.781" stroke="#B2ABFF" stroke-linecap="round" stroke-linejoin="round"/>
<path d="M155.555 415.012L197.758 458.186" stroke="#B2ABFF" stroke-linecap="round" stroke-linejoin="round"/>
<path d="M210.783 471.502L218.825 479.746" stroke="#B2ABFF" stroke-linecap="round" stroke-linejoin="round"/>
<path d="M143.594 402.824L130.346 389.261" stroke="#B2ABFF" stroke-linecap="round" stroke-linejoin="round"/>
<path d="M172.827 339.312L134.698 382.536L143.64 391.68L181.768 348.456L172.827 339.312Z" fill="white"/>
<path d="M253.165 421.41L215.036 464.634L223.978 473.778L262.106 430.555L253.165 421.41Z" fill="white"/>
<path d="M187.834 356.45L149.635 399.601L151.832 401.854L190.031 358.703L187.834 356.45Z" fill="white"/>
<path d="M194.024 360.964L155.896 404.187L158.096 406.437L196.224 363.213L194.024 360.964Z" fill="white"/>
<path d="M225.939 393.582L187.811 436.806L190.011 439.056L228.139 395.832L225.939 393.582Z" fill="white"/>
<path d="M198.93 365.943L160.802 409.166L166.161 414.647L204.289 371.423L198.93 365.943Z" fill="white"/>
<path d="M239.048 406.989L200.92 450.213L206.28 455.694L244.408 412.47L239.048 406.989Z" fill="white"/>
<path d="M231.999 399.789L193.871 443.013L199.231 448.493L237.359 405.27L231.999 399.789Z" fill="white"/>
<path d="M208.109 377.24L169.91 420.391L171.234 421.749L209.433 378.598L208.109 377.24Z" fill="white"/>
<path d="M183.765 350.437L145.637 393.661L146.963 395.016L185.091 351.793L183.765 350.437Z" fill="white"/>
<path d="M221.11 388.681L182.982 431.905L184.307 433.26L222.436 390.037L221.11 388.681Z" fill="white"/>
<path d="M211.645 378.979L173.517 422.203L174.842 423.559L212.971 380.335L211.645 378.979Z" fill="white"/>
<path d="M248.05 416.175L209.922 459.399L211.248 460.754L249.376 417.531L248.05 416.175Z" fill="white"/>
</g>
</svg>
